<svg xmlns="http://www.w3.org/2000/svg" viewBox="0 0 137.23 137.15"><title>Artboard 23</title>

<style>
#Layer_17 {
    transform-origin: center;
    animation: rotate 3s infinite linear;
    }


@keyframes rotate {
0% {
    transform: rotate(0deg);
}
100% {
    transform: rotate(360deg);
}
}

</style>

<g id="Layer_17" data-name="Layer 17"><path d="M68.66,136.68a68.07,68.07,0,1,1,68.07-68.07A68.15,68.15,0,0,1,68.66,136.68ZM68.66,8a60.62,60.62,0,1,0,60.62,60.61A60.68,60.68,0,0,0,68.66,8Z" fill="#333"/><path d="M68.66,1.05A67.57,67.57,0,1,1,1.09,68.61,67.64,67.64,0,0,1,68.66,1.05m0,128.68A61.12,61.12,0,1,0,7.55,68.61a61.19,61.19,0,0,0,61.11,61.12M68.66.05a68.57,68.57,0,1,0,68.57,68.56A68.57,68.57,0,0,0,68.66.05Zm0,128.68a60.12,60.12,0,1,1,60.12-60.12,60.12,60.12,0,0,1-60.12,60.12Z"/><polygon points="128.78 68.11 72.46 68.11 126.86 53.54 126.6 52.57 72.2 67.15 120.97 38.99 120.47 38.13 71.7 66.28 111.52 26.46 110.82 25.75 71 65.58 99.15 16.8 98.29 16.3 70.13 65.08 84.7 10.68 83.74 10.42 69.16 64.82 69.16 8.5 68.16 8.5 68.16 64.82 53.59 10.42 52.62 10.68 67.2 65.08 39.04 16.3 38.17 16.8 66.33 65.58 26.51 25.75 25.8 26.46 65.63 66.28 16.85 38.13 16.35 38.99 65.12 67.15 10.73 52.57 10.47 53.54 64.86 68.11 8.55 68.11 8.55 69.11 64.86 69.11 10.47 83.69 10.73 84.66 65.12 70.08 16.35 98.24 16.85 99.1 65.63 70.95 25.8 110.77 26.51 111.47 66.33 71.65 38.17 120.42 39.04 120.92 67.2 72.15 52.62 126.55 53.59 126.81 68.16 72.41 68.16 128.73 69.16 128.73 69.16 72.41 83.74 126.81 84.7 126.55 70.13 72.15 98.29 120.92 99.15 120.42 71 71.65 110.82 111.47 111.52 110.77 71.7 70.95 120.47 99.1 120.97 98.24 72.2 70.08 126.6 84.66 126.86 83.69 72.46 69.11 128.78 69.11 128.78 68.11"/><rect x="11.68" y="69.74" width="19" height="10" rx="1.71" ry="1.71" transform="translate(90.63 39.93) rotate(79.2)" fill="#efb600" stroke="#000" stroke-miterlimit="10"/></g></svg>