<svg xmlns="http://www.w3.org/2000/svg" viewBox="0 0 817.26 808.04"><defs><style>.cls-1{fill:#378bdd;}.cls-2{fill:#709344;stroke:#000;stroke-miterlimit:10;stroke-width:2px;}.cls-3{opacity:0.31;}.cls-4{fill:#fff;}.cls-5{opacity:0.17;}</style></defs><title>earth</title><g id="Layer_14" data-name="Layer 14"><path class="cls-1" d="M411.5,770A371.19,371.19,0,0,1,297,752C170.52,711.09,75.06,604.92,47.88,475a371.92,371.92,0,0,1,224.51-421,371.3,371.3,0,0,1,383,64.38A374.28,374.28,0,0,1,753,252.08a371.62,371.62,0,0,1-252.56,507.2A373.31,373.31,0,0,1,411.5,770Z"/><path d="M411.5,28.5A370.13,370.13,0,0,1,738.34,572.08c-48.78,91.66-135,160.37-238.23,185.74a372.42,372.42,0,0,1-202.65-7.23c-125-40.44-220.85-145.59-248.11-276A369.8,369.8,0,0,1,411.5,28.5m0-3A371.3,371.3,0,0,0,197.08,93.25a373.63,373.63,0,0,0-150.67,382C73.7,605.76,169.54,712.35,296.54,753.44A373.1,373.1,0,1,0,411.5,25.5Z"/><path class="cls-2" d="M702,409c-.63,25.19-59.59,47.4-108,50-33.67,1.81-96.37-4.05-107-35-7.75-22.57,19.44-37.38,17-83-.69-12.92-2.13-40-20-48-15.33-6.89-38.42,2.16-44,16-5.82,14.43,9.61,28.59,3,36-3.17,3.55-14.16,2.08-36-1-11.38-1.61-17.07-2.41-22-4-9.73-3.14-22.63-7.3-31-19-10.1-14.11-10.74-35.16-2-49,7.91-12.53,17-8.82,29-22,3.53-3.87,10.67-12.88,17-49,5.44-31.08,1.66-33,6-57,5.18-28.67,9.51-52.63,27-63,18-10.68,31.41,4,52-5,15.71-6.9,20-20.77,25-34.77A370.82,370.82,0,0,1,751.65,252.67,217.54,217.54,0,0,1,700,264c-29.61,2.56-51.74-3.2-64,12-16.19,20.08.12,57.79,2,62C658.71,384.43,702.54,387.16,702,409Z"/><path class="cls-2" d="M311,644c-1,41.9-1.51,62.85-5,77a297.12,297.12,0,0,1-8.54,29.59c-125-40.44-220.85-145.59-248.11-276,13.18-7.3,29.39-15,49.65-24.64,45-21.41,71.7-33.61,99-23,32.72,12.71,54.79,53.69,45,71-9.38,16.59-44.17,4.69-50,19s20.22,46,53,57c28.78,9.64,44.74-2.86,58,10C310,589.82,312.11,597.59,311,644Z"/><path class="cls-2" d="M190,306c-4-18.74,7-34,27-61,11.55-15.56,41.55-56,54-50,12.16,5.87-4.07,50.47,13,60,10.13,5.66,22.63-6.29,28-1,6.95,6.85-5.52,35.22-25,55-6.07,6.17-40.87,41.5-72,28C202.41,331.54,192.79,319.12,190,306Z"/><path class="cls-2" d="M738.34,572.08c-48.78,91.66-135,160.37-238.23,185.74-6.62-26.53-6.25-56,2.89-80.82,25.61-69.44,115.15-88.66,108-125-4.55-23.1-44-32.06-42-38,2.71-8,53-5.44,101,16C684.26,536.38,714.51,549.9,738.34,572.08Z"/><path class="cls-2" d="M271,77c-5.27,11.81-16.28,12.51-45,31-25.75,16.58-26.77,22.36-40,30-14.55,8.4-32.68,12.58-49.84,13.34A370.7,370.7,0,0,1,273,55.31C274.26,63.12,273.77,70.81,271,77Z"/><g class="cls-3"><path class="cls-4" d="M480.72,260.88c6.58-.32,13,.32,19.59-.48a108.31,108.31,0,0,0,20.46-4.83c2.53-.82,5.82-3.64,5.18-6.65s-4.74-4-7.44-4a192.74,192.74,0,0,1-26.31-1.09l-4.71,12a63.13,63.13,0,0,0,18.68-4.58c3.18-1.34,8.94-6.81,3.7-9.91a20.53,20.53,0,0,0-12-3c-3.52.13-10.34,2.24-10.69,6.67-1.29,16.43,28.72,4.79,20.08-3.91-4.13-4.16-16.51-3.56-17.5,3.72a16.35,16.35,0,0,1-.28,1.68l1.87-3.2-.58.59,11.29-3.39-1.11-.09,5.12,2.69-.78-.86.69,3.21,0-1.1-10.69,6.67-.24-.24,3.7-9.91a30.16,30.16,0,0,1-8.88,2.81c-3.67.44-8.55,1.66-9.95,5.62-1.22,3.46,1.87,6.13,5.23,6.43a229.16,229.16,0,0,0,31,.76l-2.26-10.61c-5.42,2-10.93,3.81-16.4,5.69s-11.09,4.29-16.83,5.2c-3,.49-3.62,4.24,0,4.06Z"/></g><g class="cls-3"><path class="cls-4" d="M757.7,338.79c-2.75-5.91-15.22-4.44-20.29-4.25a120,120,0,0,0-26.19,3.8c-3.72,1-9.13,3.39-9.05,8s5.42,5.72,9.07,5.76a61.33,61.33,0,0,0,34-10c4.18-2.72,5.64-8.45-.11-10.45a52.52,52.52,0,0,0-16-2.81L726.5,342l3.57-.21c3.92-.23,9.29-1.95,10.74-6.06s-2.13-6.24-5.65-6.95l-6.39-1.3,4,9.3c2.88-2.88,4.49-6.69,1.39-10.06-4.38-4.76-14.56-2.68-16.58,3.53a1.49,1.49,0,0,0-.33.68c-4.45,4.24-.59,8.26,4,9.3l6.31,1.42,5.1-13-3.56.14c-4,.16-10.33,2.3-11.13,6.95-.86,4.93,5,6.08,8.49,6.27a21.88,21.88,0,0,1,6.46,1.61l-.12-10.45A33.24,33.24,0,0,1,714.05,338l0,13.75c7.68-1.94,15.52-3.71,23.35-4.94,6.57-1,14.62-.78,19.83-5.52a2,2,0,0,0,.45-2.49Z"/></g><g class="cls-3"><path class="cls-4" d="M126.48,427.28c5.77,1.92,12.32-1.1,18-2.46a160.71,160.71,0,0,1,18.49-3.25c4.05-.5,8.5-1.5,11.08-5,1.75-2.38,2.38-6.28-.81-8-11.09-6.12-22.65-6.45-34.57-2.48l11.72,11.57,5.85-3.32c3.11-1.77,5.83-6,3.5-9.38-2.44-3.56-8.4-4-12.18-3l.88-.14,5.43.81c1.29.35.44,2.9,1.24.55.67-2-.89-4.25-2.33-5.35a10.89,10.89,0,0,0-7.5-1.9c-5.42.59-10.9,2.49-12.88,8-3.89,10.89,10.58,14.45,18.28,12.63L142,404.1l-5.92,3.27c-3.64,2-6.09,6.86-2.75,10.18,3.78,3.77,9.92,2.84,14.47,1.38,3-1,7,.52,9.9,1.86L162.92,407a137.24,137.24,0,0,0-22.42,6.7c-4.59,1.79-15.17,4.84-16,10.61a2.69,2.69,0,0,0,2,2.93Z"/></g><g class="cls-3"><path class="cls-4" d="M451.67,566.48l2.34-.73-4.94.62c2.81.56,5.76-.19,8.58-.48,3.92-.39,7.83-.77,11.74-1.31,7.1-1,14.26-1.65,21.42-2.12,4.47-.29,11.37-2.45,12.27-7.65s-5.44-6.9-9.36-6.9q-19.82,0-39.62.35c-4.47.08-10.87,2.38-12.45,7s2.37,7.35,6.55,8.06c11.77,2,23-1.54,32.18-8.89,4.31-3.45,1.85-8.24-2.17-10.21a29.33,29.33,0,0,0-11-2.92l.11,13.75,8.76-4.14c3.19-1.51,7.69-4.46,6.78-8.7-.85-4-6.22-5.39-9.73-5.19a.81.81,0,0,1-1,0l.13,11.78c.07-.58.53-.81,1.4-.69l-15.31-5.76a8.18,8.18,0,0,0-.1,1.56c-.15,6.91,8.61,6.67,13.29,5,.72-.23,1.42-.5,2.12-.8,3.16-1.28,7.45-4.47,6.6-8.47s-6.08-5.36-9.48-5c-4.6.43-8.71,1.44-12.51,4.2-4.33,3.15-6.69,9.56.13,11.78a30.93,30.93,0,0,0,11.66,1.62l-2.95-13.89-8.78,4.13c-3,1.42-6.95,3.86-6.8,7.71.14,3.45,3.59,5.82,6.91,6a14.25,14.25,0,0,1,6,1.65l-2.17-10.21c-1.63,1.3-3.33,1.11-5.29.77l-5.9,15.09c13.26-.21,26.5-.58,39.75-1l2.91-14.55c-10,1-20.05,2.19-29.77,4.61-5.41,1.34-21.32,4.16-18.2,12.48.91,2.43,3.94,2.1,5.92,1.48Z"/></g><g class="cls-3"><path class="cls-4" d="M283.73,107.68c15.28-1.82,30.54-4.23,45.94-4.7V88.82a305.77,305.77,0,0,1-35.87,3.33l-3.08,15.42a70.68,70.68,0,0,0,32.66-10.93c6.39-4.14,5.05-11.49-2.67-12.57-8.72-1.23-17.43-.91-26.18-.31-4.72.33-11.84,2.56-12.84,8s5.72,7.38,9.8,7.23l14.89-.55c5.48-.2,18.72-7.22,10.48-13.31l-7.24-5.35.09,9.1A6.77,6.77,0,0,1,312,87c2.12-1.3,5.31-4.51,4.25-7.4-1.78-4.85-4.74-6.51-9.73-7.47a15.64,15.64,0,0,0-13,3.89c-2.3,2.32-3.41,6.86.1,8.81l.12-.45L298,77a31,31,0,0,0-6.42,5.15c-2.62,2.76-3.23,6.62.1,9.1l7.2,5.37,10.49-13.31-14.89.5-3,15.25c6.83-.45,13.61-.9,20.41.08l-2.68-12.58a33.93,33.93,0,0,1-15.42,5.64c-4.78.42-12,2.52-13,8.11s5.79,7.39,9.91,7.31c14.07-.26,28-2.65,41.88-4.95,3.87-.65,9.39-3.75,9.31-8.23s-5.57-6.25-9.32-5.93C315.24,90,298,92.66,282.08,99.9c-5,2.28-4.63,8.53,1.65,7.78Z"/></g><g class="cls-3"><path class="cls-4" d="M215.52,623.68c5-1,9.51-3.34,14.49-4.39,4.22-.88,8.76-1.86,13.09-1.6,5.11.31,19.1-3.27,14.16-11.13-4.65-7.41-16.6-6.54-24.12-6.46a265,265,0,0,0-30,2.3c-4.38.55-11.23,4.76-10.12,10,1.22,5.74,9,5.54,13.31,5,9.45-1.19,18.92-2.29,28.36-3.55,7.85-1.05,17.91-4.9,19.59-13.7.6-3.16-1.8-6.22-4.82-7a70.45,70.45,0,0,0-32.25-1.24l9.67,13.84c3.2-2.52,6.39-5,9.4-7.76,3.16-2.86,3.43-7.52-.1-10.13-4-3-10.55-2.54-14.93-.67,4.14-1.77-1.65.75-1.74.76l5.94,13.63c4.62-3.38,13.69-7.92,12.2-14.94-1.72-8.09-12.92-7.74-18.92-6.8-4.15.65-10.38,4.15-10.19,9s6,6.86,10.21,6.49l2.86-.26c4.84-.43,12.11-2.55,13.14-8.2s-5.88-7.34-10-7.4l-2.8,0-3.18,15.9.45.12-4.92-1.85.89.75-2.49-3.57H213l2.41-4.13a41.6,41.6,0,0,1-5.14,4.07c-2.79,2.1-5.89,5.22-4.16,9,1.6,3.48,6.49,5,10.1,4.62a78,78,0,0,0,15-3.13l-12.76-12.6c-3.36,2.4-6.56,5-9.74,7.59a6.43,6.43,0,0,0-.74,9.48c3.16,3.15,8.59,3.43,12.72,2.54a35.44,35.44,0,0,1,16.44.53L229.5,601c.21-1.32,3.44-2.22,3.57-2.94.06-.31-.57,0-1.73.19-3.24.5-6.49,1-9.73,1.43l-18.5,2.72,3.19,15c6.29-.93,12.61-1.52,19-1.84,4.25-.21,9.93-1.45,13.46.49l10-12.7c-7.56.54-15,1.46-22.25,3.9-5.64,1.9-13.81,5-17.62,9.75-4,5,2.18,7.57,6.67,6.69Z"/></g><g class="cls-3"><path class="cls-4" d="M91.15,235.64c-13.42-.61-27.59,2.16-40.89,3.91l3.34,15.71a294.93,294.93,0,0,0,42.09-10.59c4.32-1.41,9.77-6.79,6.53-11.51-3.48-5.08-11.48-3.85-16.31-2.29A40.36,40.36,0,0,0,69.68,241c-2.56,2.61-3.54,6.34-.72,9.16,3.08,3.07,8.28,3.28,12.29,2.45a65.15,65.15,0,0,0,33.33-17.74c3.7-3.72,3.07-9.44-2.37-11.17a82.89,82.89,0,0,0-29.95-4l9.86,10.06a20,20,0,0,1,4.76-4.22c3.67-2.45,6.76-7.18,3-11s-11.15-3.69-15.58-1.48L74.11,218.2c-3.75,1.88-9.25,5.53-7,10.51,2.15,4.71,9.11,5.34,13.53,4.26a55.71,55.71,0,0,0,9.13-2.72c3.38-1.47,8-4.75,7.11-9.13s-6.53-5.67-10.21-5.44a55.81,55.81,0,0,0-9.38,1.55L83.88,232l10.21-5L81.48,214.57a52.12,52.12,0,0,0-12.42,11.79c-5,6.39,5.47,10.3,9.87,10a50.23,50.23,0,0,1,18.19,2.18l-2.37-11.17a32.72,32.72,0,0,1-16.85,9.43l11.57,11.61a12.64,12.64,0,0,1,6.22-3.79l-9.78-13.8a249.36,249.36,0,0,1-35.65,8.68c-4.55.78-11.79,4.86-10.6,10.46,1.28,6,9.47,5.84,13.94,5.25C67,253.47,80.86,252,93.77,248c3-.92,6.78-4.25,6-7.74-.81-3.81-5.51-4.47-8.66-4.61Z"/></g><g class="cls-3"><path class="cls-4" d="M360,358.68a28.23,28.23,0,0,0,7.47-3.47c.81-.46.91-.52.31-.17.47-.22.94-.41,1.43-.59.95-.33,1-.35.06,0,.49-.13,1-.24,1.49-.33,2.8-.55,6.71-2.52,7.29-5.69.54-2.93-2.54-5.07-5.17-5.27s-5.5-.29-8.25-.41c-1.1,0-2.2-.14-3.3-.14a11.55,11.55,0,0,0-3.26.28c-2.41.67-3,.86-1.76.56l8.08,5.9a8.47,8.47,0,0,0,1.41-4.43c.06-6.37-10.5-4.71-12.81-.69.06-.1-.69.94-.35.7-3.19,2.26-4.23,6.18.08,7.92-.81-.44-.38-.21,1.28.67a7.76,7.76,0,0,0,2.85.54c1.49.16,3,.14,4.53.18,2.37.07,4.73.17,7.1.17L366.23,344a28.56,28.56,0,0,0-8.12,4.13c-2.57,1.91-5.63,4.38-5.17,7.94.36,2.85,5.05,3.18,7,2.65Z"/></g><g class="cls-3"><path class="cls-4" d="M727.92,623.56c-16-11.4-40.07-5.4-56,3.1-2.9,1.54-5.11,5.35-3.13,8.4s7.67,3.68,10.89,2.71a184.49,184.49,0,0,0,29.06-11.32c3.34-1.67,7.89-4.73,6-9.1S706.8,613,703,613.66c-2.26.43-4.52.9-6.77,1.37l11.07,2.76c-.27.48-.21.76.16.83l-3.13,3.1.82-.52c4.93-3,5-8-.11-10.55a19.18,19.18,0,0,0-9.86-2.37c-3.56,0-10.59,2.71-9.63,7.51.67,3.29,2.68,4.36,5.34,6l1.74-9.58c-5.15,2.65-7.51,8.21-4.64,13.35,2,3.54,7.82,3.24,11.07,2.76,2.28-.34,4.56-.67,6.84-1.06l-8.08-11.55a151.38,151.38,0,0,1-23.65,9.74l10.43,10.29c11-6.16,23.42-5.34,35.58-4.59,2.68.16,5.8-.27,7.78-2.34,1.48-1.55,1.91-3.89-.06-5.28Z"/></g><path class="cls-5" d="M781.5,404.5c0,204.35-165.65,370-370,370-154.24,0-286.43-94.37-342-228.52,67.4,106.11,186,176.52,321,176.52a380,380,0,0,0,380-380q0-17-1.47-33.57A370,370,0,0,1,781.5,404.5Z"/></g></svg>