<svg xmlns="http://www.w3.org/2000/svg" viewBox="0 0 137.2 137.2"><title>Artboard 24</title>

<style>
#Layer_16 {
    transform-origin: center;
    animation: rotate 3s infinite linear;
    }


@keyframes rotate {
0% {
    transform: rotate(0deg);
}
100% {
    transform: rotate(360deg);
}
}

</style>

<g id="Layer_16" data-name="Layer 16"><path d="M68.55,136.61a68.07,68.07,0,1,1,68.07-68.07A68.15,68.15,0,0,1,68.55,136.61Zm0-128.68a60.62,60.62,0,1,0,60.61,60.61A60.68,60.68,0,0,0,68.55,7.93Z" fill="#333"/><path d="M68.55,1A67.57,67.57,0,1,1,1,68.54,67.65,67.65,0,0,1,68.55,1m0,128.69A61.12,61.12,0,1,0,7.44,68.54a61.18,61.18,0,0,0,61.11,61.12M68.55,0a68.57,68.57,0,1,0,68.57,68.57A68.57,68.57,0,0,0,68.55,0Zm0,128.69a60.12,60.12,0,1,1,60.11-60.12,60.12,60.12,0,0,1-60.11,60.12Z"/><polygon points="128.66 68.04 72.35 68.04 126.74 53.47 126.49 52.5 72.09 67.08 120.86 38.92 120.36 38.05 71.59 66.21 111.41 26.39 110.7 25.68 70.88 65.5 99.04 16.73 98.17 16.23 70.02 65 84.59 10.61 83.63 10.35 69.05 64.75 69.05 8.43 68.05 8.43 68.05 64.75 53.47 10.35 52.51 10.61 67.08 65 38.92 16.23 38.06 16.73 66.22 65.5 26.4 25.68 25.69 26.39 65.51 66.21 16.74 38.05 16.24 38.92 65.01 67.08 10.61 52.5 10.35 53.47 64.75 68.04 8.44 68.04 8.44 69.04 64.75 69.04 10.35 83.62 10.61 84.58 65.01 70.01 16.24 98.17 16.74 99.03 65.51 70.87 25.69 110.7 26.4 111.4 66.22 71.58 38.06 120.35 38.92 120.85 67.08 72.08 52.51 126.48 53.47 126.74 68.05 72.34 68.05 128.66 69.05 128.66 69.05 72.34 83.63 126.74 84.59 126.48 70.02 72.08 98.17 120.85 99.04 120.35 70.88 71.58 110.7 111.4 111.41 110.7 71.59 70.87 120.36 99.03 120.86 98.17 72.09 70.01 126.49 84.58 126.74 83.62 72.35 69.04 128.66 69.04 128.66 68.04"/></g></svg>