<svg xmlns="http://www.w3.org/2000/svg" viewBox="0 0 504.18 562"><defs><style>.cls-1{fill:#bfc0c1;}.cls-1,.cls-12,.cls-3,.cls-4,.cls-5,.cls-6,.cls-7{stroke:#000;stroke-width:0.5px;}.cls-1,.cls-12,.cls-2,.cls-3,.cls-4,.cls-5,.cls-6,.cls-7{stroke-miterlimit:10;}.cls-2{fill:none;stroke:#aa17aa;}.cls-3{fill:#898989;}.cls-4{fill:#0a62a3;}.cls-5{fill:#8c8c8c;}.cls-6{fill:#494949;}.cls-7{fill:#6c8493;}.cls-8{opacity:0.52;}.cls-13,.cls-9{fill:#fff;}.cls-10{opacity:0.28;}.cls-11{opacity:0.08;}.cls-12{fill:#ba4545;}.cls-13{font-size:20px;font-family:Futura-Medium, Futura;}</style></defs><title>hubble</title><g id="Layer_14" data-name="Layer 14"><path class="cls-1" d="M290.26,223.09c0,20.41-4.87,30.71-13.15,40.84-.5.62-1,1.23-1.53,1.84a29.77,29.77,0,0,1-8.2,6.88L177,279.56l-10.13.78a1.93,1.93,0,0,0,.73-.18c.73-.15,1.45-.32,2.17-.5,1.12-.28,2.23-.61,3.32-1,21-7.13,36.39-29.45,36.39-55.89a64.35,64.35,0,0,0-7.86-31.15c-6.51-11.79-16.6-20.71-28.53-24.75a45.27,45.27,0,0,0-6.33-1.65l-.59-.1c-.18-.12-.38-.22-.56-.33l9.76.79h0L235,170.43l12.89,1,11.53.93,6.11.49a29.61,29.61,0,0,1,8.19,6.89c1.46,1.7,2.87,3.41,4.21,5.16C285.05,194.27,290.26,204.87,290.26,223.09Z"/><path class="cls-2" d="M161.47,280.75a21.68,21.68,0,0,1,4.05-.31Z"/><path class="cls-2" d="M166.86,280.34c-.15,0-.33,0-.52.06l-.77,0,1-.07Z"/><path class="cls-1" d="M307.1,224.49c0,16-2.49,23.63-6.68,31.61-.15.28-.3.57-.45.83a17,17,0,0,1-3,4l-6.58-9.74L286,256.47l3.85,5.69-12.7,1.77c8.28-10.13,13.15-20.43,13.15-40.84,0-18.22-5.21-28.82-12.35-38.14l4.82.64-.44,2.16,2.43.51.49-2.34,10.64,1.4a15.57,15.57,0,0,1,2.87,3.59c.29.48.57,1,.85,1.51C303.76,200.4,307.1,208.46,307.1,224.49Z"/><path class="cls-1" d="M348.89,224c0,12.85-2.93,18.95-7.85,25.34a16.37,16.37,0,0,1-4.39,4.08L300,256.93c.15-.26.3-.55.45-.83,4.19-8,6.68-15.58,6.68-31.61s-3.34-24.09-7.53-32.07c-.28-.53-.56-1-.85-1.51l36.76,3.31v5.49h3.74v-2.39c.28.32.55.65.82,1C345,204.71,348.89,211.18,348.89,224Z"/><path class="cls-3" d="M209.5,222.78c0,26.44-15.35,48.76-36.39,55.89-1.09.38-2.2.71-3.32,1-.72.18-1.44.35-2.17.5l-1.09.21-.19,0c-1.39.24-2.81.42-4.24.53-1.13.09-2.28.14-3.43.14a44.69,44.69,0,0,1-14.45-2.4,48,48,0,0,1-14.55-8,57.19,57.19,0,0,1-16.81-22.58,65.13,65.13,0,0,1-5-25.29c0-19.83,8.64-37.35,21.83-47.88a48,48,0,0,1,14.55-8,44.69,44.69,0,0,1,14.45-2.39c1.14,0,2.29,0,3.41.13l.85.07,1.23.14,1,.14,1,.16.59.1a45.27,45.27,0,0,1,6.33,1.65c11.93,4,22,13,28.53,24.75A64.35,64.35,0,0,1,209.5,222.78Z"/><path class="cls-4" d="M167.62,280.16a1.93,1.93,0,0,1-.73.18l10.13-.78-.37.1c-.72.18-1.44.35-2.17.5a44.91,44.91,0,0,1-8.95.91c-1.15,0-2.29-.05-3.43-.14a44.78,44.78,0,0,1-11-2.26,48,48,0,0,1-14.55-8,57.19,57.19,0,0,1-16.81-22.58,65.13,65.13,0,0,1-5-25.29c0-19.83,8.64-37.35,21.83-47.88a48,48,0,0,1,14.55-8,44.72,44.72,0,0,1,11-2.26l.85.07,1.23.14,1,.14,1,.16.59.1a45.27,45.27,0,0,1,6.33,1.65c11.93,4,22,13,28.53,24.75a64.35,64.35,0,0,1,7.86,31.15c0,26.44-15.35,48.76-36.39,55.89-1.09.38-2.2.71-3.32,1C169.07,279.84,168.35,280,167.62,280.16Z"/><path class="cls-2" d="M165.63,164.8c.18.11.38.21.56.33-1.35-.23-2.71-.41-4.11-.51,1.15-.09,2.29-.13,3.45-.13a44.75,44.75,0,0,1,7.53.64l.58.1c.59.11,1.17.23,1.75.36Z"/><polygon class="cls-3" points="339.22 192.08 339.22 199.71 335.48 199.71 335.48 190.58 339.22 192.08"/><path class="cls-1" d="M366.79,190.8l-4.27,10.63-23.3-9.35-3.74-1.5-25.63-10.3,4.27-10.63a26.58,26.58,0,0,1,34.57-14.75l3.35,1.34A26.57,26.57,0,0,1,366.79,190.8Z"/><path class="cls-5" d="M337.65,105.14l-90.28,57.41-5.85,3.72L235,170.43l-59.59-4.84-9.76-.79c.18.11.38.21.56.33-1.35-.23-2.71-.41-4.11-.51-1.12-.09-2.27-.13-3.41-.13a44.69,44.69,0,0,0-14.45,2.39,48,48,0,0,0-14.55,8c-13.19,10.53-21.83,28-21.83,47.88a65.13,65.13,0,0,0,5,25.29L95.08,259.39,43.92,208.25,286.5,54Z"/><polygon class="cls-5" points="459.27 265.98 216.69 420.23 165.54 369.09 302.99 281.69 308.56 278.15 408.11 214.84 459.27 265.98"/><polygon class="cls-3" points="308.56 278.15 302.99 281.69 289.81 262.16 285.96 256.47 290.37 251.22 296.95 260.96 308.56 278.15"/><polygon class="cls-3" points="259.4 172.41 247.87 171.48 246.48 170.34 241.52 166.27 247.37 162.55 252.98 167.14 259.4 172.41"/><path class="cls-6" d="M305.74,86.82l-20.53,99.1-.49,2.34-2.43-.51.44-2.16L303.37,86A5.69,5.69,0,0,0,305.74,86.82Z"/><path class="cls-7" d="M312.4,81a5.92,5.92,0,0,1-5.92,5.92,6,6,0,0,1-.74-.05,5.69,5.69,0,0,1-2.37-.83,5.92,5.92,0,1,1,9-5Z"/><g class="cls-8"><path class="cls-9" d="M135.79,228.64c3.34-10.63.91-22,6.77-32.2a29.11,29.11,0,0,1,8.63-9.54c4-2.77,6.7-3.43,11.32-2.33,4.41,1,15.64-4.31,9.45-9.33s-16.82-2.74-23.6.17A44.57,44.57,0,0,0,131,188.7c-4.56,5.76-8,13.05-8.78,20.43a40.83,40.83,0,0,0,.51,11.36c.93,4.77,3.12,7.1,6.75,10.06,1.84,1.5,5.64.3,6.34-1.91Z"/></g><g class="cls-8"><path class="cls-9" d="M148.64,230.51c-.2-2.27-1.23-4.33-1.69-6.62s0-4.71-.54-7c-.63-2.61-5-1.28-6,.22-1.82,2.65-1.58,5.77-.5,8.74a9.62,9.62,0,0,0,5.89,6.15c1,.35,3-.1,2.85-1.44Z"/></g><g class="cls-10"><path d="M201.52,356.83a465.29,465.29,0,0,1,33.69,33.67c.33.36,1.51,0,1.14-.46a298.2,298.2,0,0,0-33.69-33.93c-.44-.39-1.73.2-1.14.72Z"/></g><g class="cls-10"><path d="M238.9,334.9c11.42,9.43,22.59,19.25,34.31,28.3.63.48,2.42-.29,1.58-1-11.28-9.69-23.21-18.67-34.82-28-.42-.35-1.63.21-1.07.68Z"/></g><g class="cls-10"><path d="M283.58,305.11c7.68,4.43,14.12,11,20.74,16.82,7,6.17,14,12.34,21.09,18.4.71.61,2.8-.33,1.84-1.18-7-6.19-14.09-12.26-21.18-18.33-6.73-5.76-13.27-12.27-21-16.66-.64-.36-2.34.46-1.48.95Z"/></g><g class="cls-10"><path d="M330.89,277.78c1.6,3.26,5.7,5.84,8.27,8.4,2.26,2.25,4.43,4.58,6.6,6.92,4.2,4.52,8.32,9.13,12.95,13.22.56.48,2.44-.28,1.79-.92-5.56-5.53-10.87-11.28-16.32-16.91-2.27-2.34-4.56-4.66-7-6.83-1.8-1.6-4.08-4.19-6.54-4.67-.29-.06-1,.1-1,.5l0,.3c0,.18.08.27.23.34l.27.13c.28.12.94-.1.76-.48Z"/></g><g class="cls-10"><path d="M369.55,251.07c6.89,5.11,12.68,12.3,18.72,18.39,5.66,5.71,11.24,11.51,17.15,17,.49.46,2.24-.22,1.66-.85-6-6.59-12.46-12.79-18.76-19.11-5.33-5.34-10.83-12.59-17.5-16.2-.5-.27-2,.25-1.27.8Z"/></g><g class="cls-10"><path d="M399.58,232.71c7.78,2,13.16,11.46,18,17.31,5.57,6.76,11.07,13.64,17,20.11.64.7,2.93,0,2.21-.9-6.44-8.18-13.5-15.91-20.34-23.74-4.55-5.21-9-12.17-16.25-13.53-.41-.08-1.26.58-.59.75Z"/></g><g class="cls-10"><path d="M119.94,168.84a52.54,52.54,0,0,1,4.39,3,41.44,41.44,0,0,0,4.25,3.38c.4.23,1.8,0,1.37-.71a14.49,14.49,0,0,0-3.85-3.46,51.55,51.55,0,0,0-4.8-3.09c-.58-.33-2.15.38-1.36.86Z"/></g><g class="cls-10"><path d="M173.83,138.76q8.92,7,17.29,14.62c5.55,5.07,10.51,11.24,16.5,15.74.53.4,2.34-.06,1.79-.91-3.81-5.91-10.32-10.92-15.54-15.54-5.93-5.25-12.16-10.17-18.54-14.87-.61-.45-2.32.32-1.5,1Z"/></g><g class="cls-10"><path d="M221.18,113A232.89,232.89,0,0,1,239,129.7c5,5.17,9.41,10.89,14.64,15.8.41.39,1.81-.07,1.42-.73-4-6.72-10-12.47-15.49-18q-7.95-7.89-16.63-15c-.71-.58-2.74.34-1.79,1.15Z"/></g><g class="cls-10"><path d="M254.82,87.49c10.95,9.38,22,19.53,34,27.58.74.5,2.84-.26,1.87-1.19-10.37-10-22.77-18.7-34.26-27.41-.64-.48-2.46.29-1.61,1Z"/></g><g class="cls-10"><path d="M282.24,74.73c2.33,2.71,5.08,5,7.46,7.73s4.68,5.6,6.89,8.51c.5.66,2.42.07,1.87-.76-3.89-5.92-9.15-12.2-15.22-16-.29-.18-1.38.07-1,.51Z"/></g><g class="cls-10"><path d="M233.51,211c3.21,7.18,2,14.75,1.47,22.32-.07.84,1.58.64,1.71-.06,1.35-7.68,1.62-15.62-2.1-22.7-.23-.42-1.31-.08-1.08.44Z"/></g><g class="cls-10"><path d="M237,211c4.61-1.14,9.37-1.12,14-2.12.62-.14,1.12-1,.22-1.1-4.72-.68-10.07,1-14.51,2.49-.67.22-.27.88.33.73Z"/></g><g class="cls-10"><path d="M251.35,209c4.91,5.7.23,14.14,1.17,20.72.09.65,1.29.26,1.44-.18,1.25-3.86,1.35-8.9,1.32-13,0-3.08-.67-5.8-2.88-8-.32-.31-1.41,0-1.05.43Z"/></g><g class="cls-10"><path d="M237.27,233.21c5.08,2.55,12.56,1.86,17.73-.13,1-.39.79-1.49-.3-1.43-2.52.14-5,.87-7.47,1.19a29.47,29.47,0,0,1-9.32-.44c-.45-.09-1.32.46-.64.81Z"/></g><g class="cls-10"><path d="M295.92,238.54a12.23,12.23,0,0,0,2-9.14c-.16-.79-1.89-.49-1.95.24-.14,1.51-.1,3-.34,4.52s-.77,2.86-1,4.31c-.09.68,1,.37,1.27.07Z"/></g><g class="cls-10"><path d="M297.06,229.29c2.33.6,5.38,1.05,7.66,0,.62-.28.51-.91-.19-.9-1.09,0-2.15.3-3.23.35a15.49,15.49,0,0,1-3.6-.28c-.45-.08-1.36.63-.64.81Z"/></g><g class="cls-10"><path d="M303,230c-.21,2.76-1.33,6.24-.38,8.9.12.37.79.26.94,0,1.42-2.67.61-6.12,0-9,0-.24-.59-.15-.61.08Z"/></g><g class="cls-10"><path d="M295.81,239.82c2.8.26,5.94.73,8.73.27.7-.12,1.13-1,.23-1.16-2.75-.5-6,0-8.72.28-.34,0-.83.56-.24.61Z"/></g><g class="cls-11"><path d="M333.67,194.58a15.11,15.11,0,0,0-6.82.17c-1.55.34-3.82,2-2.05,3.57a16.49,16.49,0,0,1,3.81,4.75c1.22,2.2,5.66.67,6.24-1.32l1.09-3.79c.87-3-5.72-2.34-6.56.23-1.15,3.54,2.32,4.72,5,5.44,3.25.87,4.2,2.76,5.1,5.94a48.3,48.3,0,0,1,1.87,9.74c.77,10.42-.29,24.57-9.89,30.95-4.69,3.12,2.07,6.25,5.31,3.8,9.28-7,14.49-17,13.69-28.79a68.66,68.66,0,0,0-4.5-19.39,10.78,10.78,0,0,0-3.67-5.31c-.68-.44-6.6-1.77-6.35-2.61l-6.56.23-1,3.78,6.23-1.32a18,18,0,0,0-4.86-5.48l-2.05,3.57a12.93,12.93,0,0,1,4.61-.67c2.14-.08,4.56-2.8,1.36-3.49Z"/></g><g class="cls-11"><path d="M183.47,276.51c3.82,1.15,7.85.83,11.8.86,4.82,0,9.65,0,14.47,0,9-.13,18.07-.35,27.1-.58,8.34-.21,17.26.12,25.42-1.8,4.48-1.06,17.46-6.18,14.86-12.71-1.3-3.25-5.66-2.49-8.11-1.16-2.7,1.47-4.16,4.26-7,5.49-3.06,1.33-6.65,1.25-9.92,1.4q-11.7.54-23.38,1.23c-7.81.46-15.62.87-23.42,1.46-6.89.52-14.65.33-21.22,2.59-1.4.48-2.64,2.64-.6,3.25Z"/></g><path class="cls-9" d="M144.44,209.36c1-2.48,2.67-4,4.21-6.18,1.36-1.89,2.4-4,3.84-5.87a21.22,21.22,0,0,1,9.4-6.75c3.21-1.26,7.08-4.78,4.8-8.45s-8.65-2.91-12-1.68a37,37,0,0,0-16.49,12.34c-1.88,2.47-3.77,5.27-4.4,8.36s.53,5.6.89,8.6c.49,3.93,8.62,2.41,9.72-.37Z"/><polygon class="cls-12" points="406.51 138.57 293.96 145.65 305.64 88.13 406.51 138.57"/><text class="cls-13" transform="translate(304.12 125.82) rotate(9.94)">Hubble</text></g></svg>