<svg xmlns="http://www.w3.org/2000/svg" xmlns:xlink="http://www.w3.org/1999/xlink" viewBox="0 0 1277 631"><defs><style>.cls-1{fill:#fff;}.cls-2{fill:none;}.cls-3{isolation:isolate;}.cls-4{mask:url(#mask);}.cls-5{opacity:0.39;mix-blend-mode:overlay;}.cls-6,.cls-8{fill:#b9b8cc;}.cls-7{fill:#d6d5e2;}.cls-8{opacity:0.61;mix-blend-mode:multiply;}.cls-9{clip-path:url(#clip-path);}</style><mask id="mask" x="-308.06" y="-1285" width="1920" height="2610.6" maskUnits="userSpaceOnUse"><rect class="cls-1" x="-308.06" y="-1285" width="1920" height="1920"/></mask><clipPath id="clip-path"><ellipse class="cls-2" cx="825.47" cy="383.93" rx="50.15" ry="61.41" transform="translate(287.76 1118.55) rotate(-78.74)"/></clipPath></defs><title>Artboard 8</title><g class="cls-3"><g id="square"><g class="cls-4"><g id="moon"><g id="atmos"><g id="atmos-2" data-name="atmos" class="cls-5"><path class="cls-6" d="M652,185.72c298.2,0,539.94,241.74,539.94,539.94S950.2,1265.6,652,1265.6,112.06,1023.86,112.06,725.66,353.8,185.72,652,185.72m0-20a557.47,557.47,0,0,0-313.08,95.65A561.46,561.46,0,0,0,136.07,507.7a559.22,559.22,0,0,0,51.63,531A561.54,561.54,0,0,0,434,1241.59a559.22,559.22,0,0,0,531-51.63,561.54,561.54,0,0,0,202.85-246.34,559.22,559.22,0,0,0-51.63-531A561.59,561.59,0,0,0,870,209.74a556.37,556.37,0,0,0-218-44Z"/></g><g id="atmos-3" data-name="atmos" class="cls-5"><path class="cls-6" d="M652,185.72c298.2,0,539.94,241.74,539.94,539.94S950.2,1265.6,652,1265.6,112.06,1023.86,112.06,725.66,353.8,185.72,652,185.72m0-40a577.63,577.63,0,0,0-324.28,99.07A581.67,581.67,0,0,0,117.65,499.91a579.22,579.22,0,0,0,53.48,550A581.53,581.53,0,0,0,426.25,1260a579.22,579.22,0,0,0,550-53.48,581.53,581.53,0,0,0,210.07-255.12,579.17,579.17,0,0,0-53.48-550A581.31,581.31,0,0,0,877.75,191.32,576.21,576.21,0,0,0,652,145.72Z"/></g><g id="atmos-4" data-name="atmos" class="cls-5"><path class="cls-6" d="M652,185.72c298.2,0,539.94,241.74,539.94,539.94S950.2,1265.6,652,1265.6,112.06,1023.86,112.06,725.66,353.8,185.72,652,185.72m0-60a597.55,597.55,0,0,0-335.47,102.5,601.61,601.61,0,0,0-217.3,263.9,599.17,599.17,0,0,0,55.33,569,601.61,601.61,0,0,0,263.9,217.3,599.17,599.17,0,0,0,569-55.33,601.61,601.61,0,0,0,217.3-263.9,599.17,599.17,0,0,0-55.33-569A601.45,601.45,0,0,0,885.54,172.9,596.25,596.25,0,0,0,652,125.72Z"/></g></g><path id="moon-2" data-name="moon" class="cls-7" d="M1191.94,725.66c0,298.2-241.74,539.94-539.94,539.94S112.06,1023.86,112.06,725.66a539.07,539.07,0,0,1,158.2-381.85c.42-.42.84-.84,1.26-1.24,1.63-1.62,3.28-3.23,4.93-4.84a540.39,540.39,0,0,1,82.1-65.36c2-1.3,4-2.58,6-3.84,0,0,0,0,0,0A537.14,537.14,0,0,1,652,185.73C950.2,185.73,1191.94,427.46,1191.94,725.66Z"/><g id="crater"><ellipse class="cls-8" cx="818.46" cy="373.17" rx="50.15" ry="61.41" transform="translate(292.66 1103.01) rotate(-78.74)"/><g class="cls-9"><ellipse class="cls-6" cx="818.46" cy="373.17" rx="50.15" ry="61.41" transform="translate(292.66 1103.01) rotate(-78.74)"/></g></g><g id="crater-2" data-name="crater"><path class="cls-8" d="M346.12,353.76a103.35,103.35,0,0,1-34,5.36l-1.38,0c-.79,0-1.58-.07-2.35-.13l-1.39-.1c-1.68-.12-3.33-.32-4.95-.56l-1.1-.18c-.7-.1-1.39-.23-2.07-.37s-1-.21-1.54-.31c-1-.23-2-.48-3-.74-.49-.14-1-.26-1.45-.42l-1.3-.38-.28-.11q-1.05-.35-2.07-.72l0,0-.57-.21c-1.35-.52-2.66-1.1-3.92-1.72l-1.18-.57c-.44-.23-.88-.48-1.3-.72s-.79-.46-1.17-.7c-.77-.48-1.51-1-2.23-1.48-.37-.26-.72-.52-1.07-.79l-1-.8c-.34-.28-.65-.56-1-.85a20.33,20.33,0,0,1-1.82-1.77c-.28-.29-.54-.57-.81-.87,0,0-.07-.06-.07-.09-.26-.32-.52-.61-.79-.93s-.51-.65-.75-1c1.63-1.62,3.28-3.23,4.93-4.84a540.39,540.39,0,0,1,82.1-65.36c2-1.3,4-2.58,6-3.84,0,0,0,0,0,0,.58.09,1.14.18,1.69.3.82.16,1.63.31,2.43.51.34.05.67.14,1,.22.51.11,1,.25,1.48.39.31.07.61.16.91.25l1.42.42a49.52,49.52,0,0,1,9.14,3.82c.4.21.78.44,1.17.67s.67.38,1,.58l1.07.7s0,0,.05,0c.44.3.88.62,1.32.91s.82.63,1.23,1,.82.66,1.21,1c.77.69,1.51,1.39,2.19,2.13,0,0,.05.07.09.08.66.74,1.29,1.48,1.89,2.27a.1.1,0,0,1,0,.07c.3.38.58.79.86,1.19s.55.82.81,1.24.58,1,.84,1.51c.18.34.35.69.51,1a23.65,23.65,0,0,1,1.17,3C405.46,314.12,382.19,341.87,346.12,353.76Z"/><path class="cls-8" d="M385.87,276.39a72.23,72.23,0,0,0-27.32-4c2-1.3,4-2.58,6-3.84h0c.58.09,1.14.18,1.69.3q1.23.21,2.43.51c.34.05.67.14,1,.22.51.11,1,.25,1.48.39.31.07.61.16.91.25l1.42.42a49.52,49.52,0,0,1,9.14,3.82c.4.21.78.44,1.17.67s.67.38,1,.58Z"/><path class="cls-8" d="M289.2,355.05l-.57-.21a40.73,40.73,0,0,1-3.92-1.72l-1.18-.57c-.44-.23-.88-.48-1.3-.72s-.79-.46-1.17-.7c-.77-.48-1.51-1-2.23-1.48-.37-.26-.72-.52-1.07-.79l-1-.8c-.34-.28-.65-.56-1-.85a20.33,20.33,0,0,1-1.82-1.77c-.28-.29-.54-.57-.81-.87,0,0-.07-.06-.07-.09-.26-.32-.52-.61-.79-.93s-.51-.65-.75-1c1.63-1.62,3.28-3.23,4.93-4.84.15.65.35,1.3.56,1.94A29.92,29.92,0,0,0,289.2,355.05Z"/></g><path id="shadow" class="cls-8" d="M1191.94,725.68c0,298.2-241.74,539.93-539.94,539.93-155.14,0-295-65.42-393.47-170.2a792.76,792.76,0,0,0,179.88,20.5c382.94,0,693.36-270,693.36-603.14q0-18.93-1.33-37.58A537.5,537.5,0,0,1,1191.94,725.68Z"/></g></g></g></g></svg>