<svg xmlns="http://www.w3.org/2000/svg" viewBox="0 0 421.26 562"><defs><style>.cls-1{fill:#adadad;}.cls-1,.cls-12,.cls-14,.cls-2,.cls-3,.cls-4,.cls-5,.cls-6,.cls-7{stroke:#000;stroke-miterlimit:10;}.cls-2{fill:#f7bb11;}.cls-3{fill:#565556;}.cls-4{fill:#969696;}.cls-5{fill:#444;}.cls-6{fill:#828282;}.cls-14,.cls-7{fill:none;}.cls-8{fill:#565656;}.cls-9{fill:#b78300;}.cls-10{opacity:0.26;}.cls-11{fill:#2d2d2d;}.cls-12{fill:#ccc;}.cls-12,.cls-14{stroke-width:0.5px;}.cls-13{fill:#d2fffe;}.cls-15,.cls-16{fill:#fff;}.cls-16{font-size:16px;font-family:Futura-Medium, Futura;}.cls-17{letter-spacing:0.01em;}.cls-18{letter-spacing:0.02em;}.cls-19{letter-spacing:0.02em;}</style></defs><title>Artboard 13</title><g id="Layer_14" data-name="Layer 14"><polygon class="cls-1" points="315.05 229.43 317.41 233.05 299 245.03 299.46 245.73 144.86 346.41 144.4 345.71 126.14 357.6 123.78 353.98 142.04 342.08 141.59 341.39 296.19 240.71 296.64 241.41 315.05 229.43"/><rect class="cls-2" x="258.13" y="389.56" width="54.57" height="6.99" transform="translate(-168.24 219.42) rotate(-33.07)"/><path class="cls-3" d="M239.08,302.32,236.57,304l5.76,5.89a2.71,2.71,0,0,1-.46,4.16L231,321.1a2.71,2.71,0,0,1-4-1.27l-3.06-7.64-2.5,1.63a2.72,2.72,0,0,1-4.07-1.48l-6.29-20.49a7.51,7.51,0,0,1,12.1-7.88l16.2,14A2.7,2.7,0,0,1,239.08,302.32Z"/><path class="cls-3" d="M294.8,390.42a2.71,2.71,0,0,1-.46,4.16l-10.89,7.09a2.7,2.7,0,0,1-4-1.26L276.9,394a2.7,2.7,0,0,1-2.71-1.7l-3.4-8.5c-3.05-7.63,6.6-13.92,12.34-8l6.41,6.55a2.71,2.71,0,0,1,.45,3.17Z"/><rect class="cls-4" x="186.32" y="281.44" width="20.96" height="12.64" rx="3.97" ry="3.97" transform="translate(-125.15 154.01) rotate(-33.07)"/><rect class="cls-4" x="214.48" y="263.11" width="20.96" height="12.64" rx="4.5" ry="4.5" transform="translate(-110.58 166.41) rotate(-33.07)"/><rect class="cls-5" x="204.65" y="273.25" width="12.64" height="10.98" transform="translate(-117.92 160.28) rotate(-33.07)"/><circle class="cls-6" cx="242.52" cy="326.88" r="11.15"/><path class="cls-4" d="M231.33,330.13l3.7,5.67a7.77,7.77,0,0,1-2.27,10.74l-25.42,16.55c-.24.15-.47.3-.72.43a11.15,11.15,0,0,1-12.13-18.63c.22-.17.45-.33.68-.48l25.42-16.55A7.76,7.76,0,0,1,231.33,330.13Z"/><path class="cls-7" d="M206.62,363.52c.25-.13.48-.28.72-.43l-.7.46Z"/><path class="cls-7" d="M195.17,344.41c-.23.15-.46.31-.68.48v0Z"/><path class="cls-4" d="M293.68,293.56a11.14,11.14,0,0,1-3.12,15.33l-.14.1-26,16.92a7.76,7.76,0,0,1-10.73-2.27L250,318a7.75,7.75,0,0,1,2.27-10.73l26-16.92a.55.55,0,0,1,.14-.09A11.14,11.14,0,0,1,293.68,293.56Z"/><path class="cls-7" d="M278.4,290.21h0a.55.55,0,0,0-.14.09Z"/><path class="cls-7" d="M290.42,309l.14-.1h0Z"/><path class="cls-4" d="M262.45,336.69l16.95,26.15.09.14a11.14,11.14,0,1,1-18.7,12.13l-.09-.14h0l-17-26.15A7.75,7.75,0,0,1,246,338.09l5.68-3.69A7.77,7.77,0,0,1,262.45,336.69Z"/><rect class="cls-2" x="108.61" y="223.21" width="19.96" height="111.46" transform="translate(-133 109.91) rotate(-33.07)"/><rect class="cls-2" x="86.03" y="237.92" width="19.96" height="111.46" transform="translate(-144.69 99.96) rotate(-33.07)"/><rect class="cls-2" x="261.96" y="123.35" width="19.96" height="111.46" transform="translate(-53.66 177.41) rotate(-33.07)"/><rect class="cls-2" x="239.65" y="137.87" width="19.96" height="111.46" transform="translate(-65.2 167.59) rotate(-33.07)"/><rect class="cls-2" x="336.03" y="237.11" width="19.96" height="111.46" transform="translate(-103.74 236.26) rotate(-33.07)"/><rect class="cls-2" x="313.73" y="251.63" width="19.96" height="111.46" transform="translate(-115.28 226.44) rotate(-33.07)"/><rect class="cls-2" x="160.1" y="351.67" width="19.96" height="111.46" transform="translate(-194.76 158.82) rotate(-33.07)"/><rect class="cls-2" x="182.41" y="337.15" width="19.96" height="111.46" transform="translate(-183.22 168.64) rotate(-33.07)"/><rect class="cls-4" x="127.15" y="339.54" width="3.99" height="9.98" transform="translate(-167.08 126.29) rotate(-33.07)"/><rect class="cls-4" x="134.95" y="351.53" width="3.99" height="9.98" transform="translate(-172.36 132.49) rotate(-33.07)"/><rect class="cls-4" x="303.08" y="224.97" width="3.99" height="9.98" transform="translate(-76.06 203.73) rotate(-33.07)"/><rect class="cls-4" x="310.88" y="236.96" width="3.99" height="9.98" transform="translate(-81.34 209.94) rotate(-33.07)"/><rect class="cls-4" x="149.18" y="325.09" width="3.99" height="8.98" transform="translate(-155.36 135.89) rotate(-33.07)"/><rect class="cls-4" x="157.53" y="337.92" width="3.99" height="8.98" transform="translate(-161.01 142.53) rotate(-33.07)"/><rect class="cls-4" x="280.5" y="239.58" width="3.99" height="8.98" transform="translate(-87.42 193.7) rotate(-33.07)"/><rect class="cls-4" x="288.85" y="252.4" width="3.99" height="8.98" transform="translate(-93.06 200.33) rotate(-33.07)"/><path class="cls-8" d="M123.7,354a7.43,7.43,0,0,0,2.85.93,7.74,7.74,0,0,0,3.4.4c.26-.06.73-.52.24-.65-1-.27-2.11-.35-3.15-.59a9.94,9.94,0,0,0-3-.47c-.16,0-.52.19-.3.38Z"/><path class="cls-8" d="M130.44,350.12c2.1.15,4.18.8,6.31.77.85,0,1.27-1.09.21-1.06s-2.12-.21-3.19-.24-2-.34-3-.27c-.45,0-1.07.75-.31.8Z"/><path class="cls-8" d="M137.81,344.91a8.13,8.13,0,0,0,3.12.76,7,7,0,0,0,3.28.09c.18-.07.33-.26.16-.42-.69-.62-2.1-.41-3-.48a25.46,25.46,0,0,0-3.38-.21c-.09,0-.38.16-.21.26Z"/><path class="cls-8" d="M141.88,342.23a2.45,2.45,0,0,0,.63,1.72c.4.64.81,1.27,1.23,1.9s1.68,0,1.29-.53-.89-1.23-1.32-1.86a3.45,3.45,0,0,0-1.37-1.41c-.15-.06-.43,0-.46.18Z"/><path class="cls-8" d="M142.08,342.24c-.87.46-1,1.39-1.27,2.3-.33,1.12-.61,2.25-.89,3.39-.18.75,1.47.61,1.64-.06.27-1.13.57-2.26.83-3.39.18-.75.66-1.72,0-2.25a.24.24,0,0,0-.26,0Z"/><path class="cls-8" d="M134.44,347.1a18,18,0,0,0-1.48,3.25,16.13,16.13,0,0,0-1.08,3c-.17.77,1.36.52,1.56-.06l-1.08.55a1,1,0,0,0,1.08-.55c.39-1.09.77-2.19,1.18-3.28a5.56,5.56,0,0,0,.61-2.95c-.06-.35-.66-.16-.79,0Z"/><path class="cls-8" d="M128.27,351.16a10.76,10.76,0,0,0-1.11,2.93c-.34,1-1.06,2-1,3.06.05.41.8.24,1,0a8.05,8.05,0,0,0,1.33-3.15c.28-.9.8-2.07.29-3-.11-.19-.44-.06-.54.07Z"/><path class="cls-8" d="M141.63,341.27a14.9,14.9,0,0,0,3.86.92c1.6.31,3.2.62,4.81.9.58.1,1.35-.68.5-.85-1.72-.33-3.45-.62-5.17-.93a9,9,0,0,0-3.91-.26c-.11,0-.24.15-.09.22Z"/><path class="cls-8" d="M145.08,346.23c1.75-2.4,3.44-5.83,3.62-8.83,0-.64-1.13-.51-1.33-.07-.7,1.53-.74,3.26-1.24,4.86-.42,1.34-1.55,2.62-1.47,4.05,0,.19.36.07.42,0Z"/><path class="cls-8" d="M151.5,335.41c2.67.59,5.5.61,8.2,1.14.72.14,1.63-.84.61-1a29,29,0,0,0-8.55-.79c-.38,0-.9.53-.26.68Z"/><path class="cls-8" d="M154.64,340a15.85,15.85,0,0,0,1.94-4.46c.28-.78.52-1.57.8-2.34.22-.58.59-1,.4-1.62-.11-.34-.56-.28-.81-.2-1.44.44-1.5,2.05-1.85,3.35-.45,1.64-1.25,3.57-1,5.29,0,.24.43.09.52,0Z"/><path class="cls-8" d="M162.16,328.51c2.17,1,4.94,1.37,7.28,1.85.79.17,1.8-.91.67-1.14a60.69,60.69,0,0,0-7.37-1.44c-.37,0-1.22.42-.58.73Z"/><path class="cls-8" d="M165.27,332.74c1-.85,1.18-2.15,1.52-3.37s.71-2.6,1.11-3.89c.25-.79-1.33-.57-1.62-.24-.86,1-1,2.41-1.22,3.65s-1,2.82-.24,3.87c.1.14.34.07.45,0Z"/><path class="cls-8" d="M171.23,322.56c-.38.9,6.49,1.89,7.14,1.88,1,0,1.52-1.2.25-1.26-1.87-.1-3.7-.62-5.55-.89-.44-.06-1.58-.36-1.84.27Z"/><path class="cls-8" d="M174.67,326.79a11,11,0,0,0,1.07-3.4c.31-1.25.65-2.5.95-3.75.25-1-2-.81-2.21.07a37.89,37.89,0,0,0-.79,3.75,7.32,7.32,0,0,0-.17,3.38c.15.47.94.28,1.15,0Z"/><path class="cls-8" d="M181.05,316.42l0,.21a.36.36,0,0,0,.24.24,17.53,17.53,0,0,0,3.57.93,6.56,6.56,0,0,0,3.2.09c.3-.09.55-.44.26-.69-.86-.74-2.66-.64-3.76-.8s-2.44-.57-3.46-.08c0,0-.09.05-.08.1Z"/><path class="cls-8" d="M183.94,320.6c1.24-.49,1.29-1.68,1.61-2.89a43.38,43.38,0,0,1,1.2-4.51c.33-.87-1.72-.75-2-.11a15.16,15.16,0,0,0-.81,3.06c-.3,1.26-.6,2.52-.84,3.8-.06.27.14.42.36.52s.33.2.52.13Z"/><path class="cls-8" d="M190.07,310.29c1.77,1.11,4.47,1.25,6.48,1.68,1,.21,2.19-1.12.81-1.39-2.23-.43-4.77-1.08-7-.72-.16,0-.5.28-.25.43Z"/><path class="cls-8" d="M193.07,314.93a9.71,9.71,0,0,0,1.63-3.8c.37-1.27,1.32-3.09.91-4.37-.16-.52-1-.38-1.33-.06-1,1.06-1.13,2.56-1.49,3.94s-1,2.91-.6,4.25c.1.34.69.26.88,0Z"/><path class="cls-8" d="M198.4,304.68c.33.86,1.88.87,2.66,1a20,20,0,0,0,4.49.8c.42,0,1.54-.61.84-1.06-1.18-.77-2.87-.85-4.25-1.09-1.17-.2-2.49-.54-3.58,0-.08.05-.2.17-.16.28Z"/><path class="cls-8" d="M202.13,309A8.86,8.86,0,0,0,204,305c.22-1,.89-2.71.44-3.68-.18-.39-1-.23-1.21-.06-1.13.79-1.06,2-1.29,3.3a11.09,11.09,0,0,0-.25,4.36c0,.19.39.14.48,0Z"/><path class="cls-8" d="M206.36,299.66c.66,1,2.37,1.29,3.43,1.59s2.61.95,3.79.38c.2-.1.48-.28.42-.55l0-.19c-.06-.34-.42-.46-.7-.52-2-.43-4.38-1.4-6.43-1.18-.19,0-.67.19-.48.47Z"/><path class="cls-8" d="M209.83,304.21c1.06-.86,1.25-2,1.54-3.34a32.81,32.81,0,0,0,.71-4.42c.1-1.09-2.15-.85-2.23.08-.13,1.49-.41,3-.66,4.42-.2,1.1-.63,2.37.21,3.28a.33.33,0,0,0,.43,0Z"/><path class="cls-8" d="M227.33,285.39a28.6,28.6,0,0,0,4.13,1.48,12.56,12.56,0,0,0,3.79.86c.44,0,1.49-.59.83-1.07-1-.77-2.59-.91-3.82-1.26s-2.7-.82-4.08-1.09c-.59-.12-1.76.64-.85,1.08Z"/><path class="cls-8" d="M232.55,289.86a31.32,31.32,0,0,0,1.39-4.06c.36-1.44,1.15-3,1.17-4.47,0-.84-1.29-.54-1.61-.09-1.64,2.33-2,5.94-1.65,8.64,0,.28.62.18.7,0Z"/><path class="cls-8" d="M238.63,278.38a30.63,30.63,0,0,1,5.39,1.29c1.16.29,2.48.7,3.47-.15.39-.34.19-.78-.21-1l-.13-.07a1.29,1.29,0,0,0-1.45.44c.67-.35.65-.52,0-.49-.36-.07-.72-.14-1.07-.23-.72-.16-1.42-.35-2.15-.49a11.18,11.18,0,0,0-3.65-.11c-.45.06-.78.75-.15.78Z"/><path class="cls-8" d="M242.92,282.54c.45-1.35.81-2.72,1.26-4.07s1.23-2.6,1.27-3.91c0-.74-1.2-.64-1.55-.23-1.69,2-2.31,5.68-2.38,8.26,0,.73,1.23.47,1.4,0Z"/><path class="cls-8" d="M249.25,271.42a41.3,41.3,0,0,0,4.95.73,24.63,24.63,0,0,0,4.68.38c.48,0,1.49-.71.62-1.06a16.88,16.88,0,0,0-4.87-.72,30.9,30.9,0,0,0-5.09-.06c-.44,0-1,.57-.29.73Z"/><path class="cls-8" d="M253.55,275.93a24.94,24.94,0,0,0,2.12-4.42,32.32,32.32,0,0,0,1.56-4.06c.24-.94-1.65-.68-2-.11a36.58,36.58,0,0,0-1.63,4.06,20.71,20.71,0,0,0-1.37,4.46c-.09.66,1.05.4,1.27.07Z"/><path class="cls-8" d="M260.79,264.9a36.42,36.42,0,0,0,4.54.49,8.24,8.24,0,0,0,3.63,0c.2-.07.62-.43.38-.67-.9-.92-2.56-.73-3.77-.8a19.21,19.21,0,0,0-4.61.12c-.53.1-.83.71-.17.85Z"/><path class="cls-8" d="M264.46,269.32a38.88,38.88,0,0,0,2.42-7.93c.24-1-1.84-.76-2.06.07-.66,2.43-1.46,5.36-1.15,7.89.05.33.68.18.79,0Z"/><path class="cls-8" d="M274,262.06a9.54,9.54,0,0,0,.87-3.48c.15-.78.46-2.93.81-3.24l-1.13.23-.1-.09c.12.21.5.21.7.17h.06c.32-.07.63-.28.63-.62v-.09c0-.47-.89-.38-1.12-.28-1,.46-1.06,2-1.27,3-.29,1.36-.87,3.28-.13,4.55.13.23.57.09.68-.09Z"/><path class="cls-8" d="M270.75,258.51c2.71.24,5.4.2,8.1.62.85.13,1.93-1.05.71-1.22a25.36,25.36,0,0,0-8.69,0c-.33.08-.63.56-.12.61Z"/><path class="cls-8" d="M285.34,247a16.37,16.37,0,0,0-1.6,4.69c-.26,1.35-.72,3.05,0,4.27.19.3.82.15,1-.12.71-1.25.51-2.8.68-4.21s.48-3.06.71-4.59c.06-.4-.67-.28-.8,0Z"/><path class="cls-8" d="M280.39,251.66a65.45,65.45,0,0,0,9.18.5c1.07,0,1.59-1.29.27-1.32a71.46,71.46,0,0,0-9.14,0c-.44,0-1.05.64-.31.77Z"/><path class="cls-8" d="M293.28,242.33c-.32,2.41-.28,4.83-.67,7.24-.15.91,1.77.72,1.91-.07a19.57,19.57,0,0,0,.23-7.35c-.14-.6-1.4-.36-1.47.18Z"/><path class="cls-8" d="M289.82,245.77c2.79.1,5.77,1.36,8.54.91.29-.05,1-.55.47-.83-1.41-.8-3.39-.73-5-.9a10,10,0,0,0-4.18.09c-.59.18-.36.71.15.73Z"/><path class="cls-8" d="M298,240.73c.54.67,1.79.82,2.59,1.06s1.86.74,2.78.36a.46.46,0,0,0,.33-.43v-.16c0-.15-.21-.31-.34-.35-1.53-.4-3.45-1.18-5-.88-.14,0-.47.21-.31.4Z"/><path class="cls-8" d="M301,243.71c.35-.93.63-1.88.91-2.83.22-.72.72-1.59.26-2.27-.24-.35-.82-.16-1.07,0a3.22,3.22,0,0,0-.82,2.45,8.48,8.48,0,0,0,.2,2.66c.05.24.45.1.52-.06Z"/><path class="cls-8" d="M303.77,237.63a15.65,15.65,0,0,0,2.34.67,4.49,4.49,0,0,0,2.2.43c.24,0,.66-.26.58-.56-.2-.75-1.4-.85-2.05-1a7.54,7.54,0,0,0-2.79-.26c-.39.06-.73.5-.28.73Z"/><path class="cls-8" d="M306.81,240a25.6,25.6,0,0,1,.94-4.49c.19-.78-1.57-.66-1.71.06a16.31,16.31,0,0,0,.07,4.52c0,.28.69.17.7-.09Z"/><path class="cls-8" d="M308.24,234.23a26.15,26.15,0,0,0,3.33,1.14c.81.24,1.73.59,2.42-.11.19-.2.29-.59,0-.75a1.19,1.19,0,0,0-.94-.14c-.24.06-.86.33-.71.7l0,0c.21.49.88.41,1.26.18l.05,0-1.27-.06,0,0v-.45l0,.06.5-.39-.12,0,.76-.09c-1.57-.15-3.11-.72-4.69-.9-.38,0-1.24.45-.58.73Z"/><path class="cls-8" d="M310.94,232.17c-.44,1.22-1.2,3.18-.73,4.47.22.59,1.26.32,1.42-.18a7.91,7.91,0,0,0,.16-2.18,19.14,19.14,0,0,1,.21-2.14c.08-.54-.92-.34-1.06,0Z"/><path class="cls-8" d="M313.92,230.26a7.42,7.42,0,0,0,.17,2.15c.12.69.09,1.58.59,2.08.26.26.95.25,1.11-.14a3.39,3.39,0,0,0-.16-2.1,7.78,7.78,0,0,0-.69-2.21c-.18-.33-1-.14-1,.22Z"/><path class="cls-8" d="M313,231.1a14.07,14.07,0,0,0,1.93,1.09,8.35,8.35,0,0,0,2.14.89c.39.07,1.56-.45.91-.9a8.82,8.82,0,0,0-2-.84c-.72-.29-1.44-.62-2.18-.88-.31-.1-1.33.26-.8.64Z"/><path class="cls-9" d="M57.09,253.28c-.31,4,2.14,6.77,4.16,10.07,2.33,3.82,4.86,7.5,7.34,11.22,5.14,7.73,10.2,15.52,15.3,23.28,10,15.3,19.89,30.75,30.05,46,2.78,4.15,14.22.62,11.24-4.54-9.14-15.8-19-31.13-29-46.39-4.94-7.5-10-14.92-15.11-22.33-4.47-6.49-9.5-16.7-16.85-20.09-2-.91-6.88.08-7.09,2.81Z"/><path class="cls-9" d="M80.27,238.56c-.83,7.75,7,16.39,10.91,22.58,4.8,7.57,9.51,15.19,14.31,22.75,9.81,15.42,19.55,30.91,31,45.21,3.89,4.88,18.48.36,14.17-5.73-10.54-14.88-20.66-30-30.52-45.38-4.87-7.57-9.81-15.09-14.89-22.52-4.8-7-9.87-16.28-18.07-19.63-2-.81-6.58,0-6.87,2.72Z"/><path class="cls-9" d="M133.41,367.83c-2,3.37.41,6.56,2.33,9.51,2.49,3.81,5.38,7.36,8,11.09,4.94,7.07,9.58,14.37,14.2,21.65,9.6,15.15,18.7,30.63,29.19,45.19,3.83,5.3,18.79.19,14.43-5.83-11.55-16-21.4-33-32.11-49.53a251.62,251.62,0,0,0-16.93-23.11c-3-3.66-6.56-7.8-10.95-9.81-2.23-1-6.57-1.76-8.15.84Z"/><path class="cls-9" d="M154,351.9c-1.86,7.94,5.95,17.57,9.85,24.06,4.77,7.92,9.8,15.64,15.26,23.11,10.67,14.58,21.61,28.93,31.43,44.11,3.63,5.61,18.36,1.12,14.94-6C217.66,420.87,206,407,195.39,392.47c-5.45-7.49-10.72-15.11-15.69-22.93-4.72-7.43-8.88-17.15-17.21-21-2.71-1.26-7.79.2-8.53,3.37Z"/><path class="cls-9" d="M283.74,268.21c1,8.41,7.35,16.13,11.7,23.14,4.77,7.71,9.79,15.27,14.74,22.87,9.92,15.22,19.89,30.4,30.31,45.28,3.59,5.13,18,.58,14.05-5.67-9.71-15.29-19.7-30.4-29.52-45.61-4.92-7.62-9.73-15.31-14.73-22.87-4.86-7.36-9.3-15.84-16.55-21.14-2.9-2.12-10.55-.49-10,4Z"/><path class="cls-9" d="M308.51,252.73c-2.86,5.09,4.87,14.2,7.49,18.52,5,8.16,10.34,16.09,15.5,24.13,10.18,15.85,20.91,31.42,31.52,47,3.37,4.95,17.13.6,13.41-5.41-10-16.22-20-32.53-30.51-48.46-5.07-7.72-9.95-15.61-15.25-23.18-4.33-6.2-9.32-14.71-17.69-14.83a5.41,5.41,0,0,0-4.47,2.24Z"/><path class="cls-9" d="M214.11,151.41c-6.84,4,6.88,21.74,9.39,25.8,4.46,7.2,9.36,14.13,14.08,21.15l29.48,43.84c3.28,4.87,16.79.37,13-5.27l-33.2-49.55c-5.44-8.12-11-16.12-16.77-24-3.12-4.25-9.14-15.95-16-12Z"/><path class="cls-9" d="M232.24,141.41c8.25,15.08,18,29.35,27.33,43.79s18.84,28.93,28.26,43.4c3.38,5.18,17.59.41,13.66-5.52-9.55-14.42-19-28.87-28.67-43.24s-19-29.15-29.6-42.86c-2.93-3.77-13.84-.79-11,4.43Z"/><g class="cls-10"><path class="cls-11" d="M195.05,347.82c-.54,5.91,2.95,15.55,10.19,14.65a1.85,1.85,0,0,0,1.71-1.7c0-1.07-.84-1.68-1.53-2.44a21.64,21.64,0,0,1-2.63-3.33c-1.55-2.54-2.06-5.53-3.55-8.07-.76-1.29-4.05-.62-4.19.89Z"/></g><g class="cls-10"><path class="cls-11" d="M222.37,330.38c-2.12,2.72-.38,7.21,1.42,9.73,2.1,2.94,5.32,5.36,9,5.55,1.5.09,4.37-1.73,2.55-3.24-1-.88-2.41-1.2-3.55-2a13.44,13.44,0,0,1-3.16-3.09,15.09,15.09,0,0,1-2.1-3.57c-.52-1.34-.72-2.67-1.76-3.72a1.65,1.65,0,0,0-2.38.31Z"/></g><g class="cls-10"><path class="cls-11" d="M251.67,311.47c-1,1.29,1.26,2.74,1.9,3.47a21.24,21.24,0,0,1,2,2.49c1.07,1.66,1.2,4.58,3,5.54a3.54,3.54,0,0,0,4.1-.52c1.3-1.54,1-2.79.22-4.53a14.92,14.92,0,0,0-2.87-4.4c-1.76-1.84-6.07-4.8-8.29-2Z"/></g><g class="cls-10"><path class="cls-11" d="M279,293.8c.89,2,3.33,3.31,4.83,4.91s3.51,4.28,3.81,6.59c.35,2.7,6.41,1.59,6.61-.82.24-2.88-2.57-6.27-4.48-8.17-2.3-2.29-5.44-4.29-8.82-4-.52,0-2.36.57-1.95,1.52Z"/></g><g class="cls-10"><path class="cls-11" d="M246.63,346.2a15.65,15.65,0,0,0,7.31-2.79c1.57-1,5.55-3.26,4.59-5.59-.89-2.14-4.22-1.63-5.62-.28a49.27,49.27,0,0,1-3.54,3.7,27.16,27.16,0,0,0-4,3.15c-.89,1,.12,1.88,1.24,1.81Z"/></g><g class="cls-10"><path class="cls-11" d="M262.93,369.65l-.29.33-1.88.24c3,1.36,7.53-.89,10.16-2.28,3-1.57,7.64-4.35,8.46-7.83.71-3-4.52-2.28-5.86-1.48-2.65,1.56-4.51,4.32-7.07,6.12-1.85,1.3-5,2.29-6.18,4.34a.73.73,0,0,0,0,.78,1.32,1.32,0,0,0,.78.52c.52.15,1.85,0,1.87-.74Z"/></g><g class="cls-10"><path class="cls-11" d="M235.47,320.32a8,8,0,0,1,1.32,1.75,1.47,1.47,0,0,0,1.43.74,1.59,1.59,0,0,0,1.27-.56c.25-.31.42-.62.18-1a10.64,10.64,0,0,0-2-2.33c-.84-.73-3.27.33-2.19,1.4Z"/></g><g class="cls-10"><path class="cls-11" d="M232.88,325.46c1.41,1.17,3.61,2.11,5.33,1a1.15,1.15,0,0,0,.64-1.12v-.08a1.32,1.32,0,0,0-1.18-.86,28.7,28.7,0,0,1-3.19-.54c-.74-.17-2.62.72-1.59,1.57Z"/></g><g class="cls-10"><path class="cls-11" d="M237,331.62c.18-.1.17-.11,0,0a3,3,0,0,0,.56-.3,5.71,5.71,0,0,0,.47-.39c-.18.14-.18.15,0,0q-.41.19-.09.06c-.39.1-.45.12-.2.06a3.16,3.16,0,0,0,1-.32c.63-.29,1.69-1,1.44-1.86s-1.27-1.11-2.07-1.1a4,4,0,0,0-3.35,1.75,1.52,1.52,0,0,0-.07,2,1.88,1.88,0,0,0,2.32.11Z"/></g><g class="cls-10"><path class="cls-11" d="M242.71,335.78l.59-3.18a1,1,0,0,0-.43-1l-.17-.13a2.51,2.51,0,0,0-2.6.11,2.09,2.09,0,0,0-1,1.16,9,9,0,0,0-.16,1.06l-.32,2.11c-.29,2,3.79,1.54,4.1-.14Z"/></g><g class="cls-10"><path class="cls-11" d="M247.84,334.44a18.58,18.58,0,0,0-.91-3.9c-.77-2.06-5.22-.52-4.09,1.25a23.69,23.69,0,0,0,2.76,3.33c.55.59,2.4.37,2.24-.68Z"/></g><g class="cls-10"><path class="cls-11" d="M251.87,329.24a3,3,0,0,0-1.25-1.54c-.27-.18-.53-.37-.8-.53a3.69,3.69,0,0,0-2-.49c-1.13-.06-3.28,1-2.47,2.43.44.75,1.41.91,2.17,1.16a7.19,7.19,0,0,0,2.56.36c.57,0,2.05-.5,1.77-1.39Z"/></g><g class="cls-10"><path class="cls-11" d="M251.56,321.89c-.87-1.17-2.64-.8-3.78-.34a10,10,0,0,0-1.57.79c-.23.14-.2.13.09,0-.27.1-.21.09.16,0a4.34,4.34,0,0,0-1.39.57c-.58.45-1.17,1.11-.7,1.85,1,1.53,3.53.62,4.73-.08a6.42,6.42,0,0,0,1.26-1c.29-.28-.25.14.12-.08a3.83,3.83,0,0,0,.51-.39,1.37,1.37,0,0,1-.64.31c.53-.16,1.79-.77,1.21-1.56Z"/></g><g class="cls-10"><path class="cls-11" d="M244.21,319a15.53,15.53,0,0,0-1.1,1.59c-.32.53-.84,1.26-.59,1.89.41,1.06,2.33,1,3,.15a1.89,1.89,0,0,0,.52-1c0-.3,0-.61,0-.91a9.14,9.14,0,0,1,.24-1.64c.1-.45-.45-.66-.8-.67a1.45,1.45,0,0,0-1.27.56Z"/></g><g class="cls-10"><path class="cls-11" d="M240,318.34a19.25,19.25,0,0,0-.64,2.9,1,1,0,0,0,.41.95l.22.13a2.47,2.47,0,0,0,2.88-.37l.14-.17c.2-.23.55-.69.4-1a20,20,0,0,0-1.53-2.8c-.39-.63-1.71-.24-1.88.4Z"/></g><g class="cls-10"><path class="cls-11" d="M186.87,288.49c.08,1.42,1.11,2.9,1.89,4.05s1.88,2.8,3.46,2.76a2.45,2.45,0,0,0,1.59-.56c1.18-1.21-.55-2.53-1.19-3.32-1-1.21-1.63-2.74-2.68-3.86-.82-.86-3.15-.49-3.07.93Z"/></g><g class="cls-10"><path class="cls-11" d="M199.38,281.33c.07,1.26,1.3,2.37,1.93,3.4a3.39,3.39,0,0,0,1.53,1.62,2.78,2.78,0,0,0,2.6-.11c1.64-1.06.59-2.62-.34-3.71a6.73,6.73,0,0,0-3.63-2.52c-.82-.18-2.15.35-2.09,1.32Z"/></g><g class="cls-10"><path class="cls-11" d="M216.35,270.65c-.95,1-.26,2.8.28,3.84a5.88,5.88,0,0,0,3.84,3.11c.9.16,3.73-.52,3.18-2-.37-1-1.15-1.33-1.93-2-.62-.5-1.23-1-1.84-1.53s-2.49-2.53-3.53-1.47Z"/></g><g class="cls-10"><path class="cls-11" d="M227,264.2a18.6,18.6,0,0,1,1.85,2.39c.29.44.48,1,.81,1.37a4.38,4.38,0,0,0,1.73,1.31,2.69,2.69,0,0,0,3.06-.92c.9-1.62-.07-2.87-1.24-4a8,8,0,0,0-4-1.93,2.36,2.36,0,0,0-1.88.49c-.32.26-.76.86-.37,1.28Z"/></g><circle class="cls-12" cx="213.69" cy="345.79" r="9.21"/><path class="cls-13" d="M221.36,345.79a7.78,7.78,0,0,1-.17,1.61c0,.17-.08.34-.13.51a5.62,5.62,0,0,1-.19.58,6.36,6.36,0,0,1-.31.71,4.82,4.82,0,0,1-.27.5,7.78,7.78,0,0,1-.61.89,7.68,7.68,0,1,1-10.79-10.79,7.86,7.86,0,0,1,.89-.62l.49-.27a7.8,7.8,0,0,1,.72-.31c.18-.07.38-.13.57-.19l.52-.13a7.67,7.67,0,0,1,9.28,7.51Z"/><path class="cls-14" d="M221.36,345.79a7.78,7.78,0,0,1-.17,1.61c0,.17-.08.34-.13.51a5.62,5.62,0,0,1-.19.58,6.36,6.36,0,0,1-.31.71,4.82,4.82,0,0,1-.27.5,7.78,7.78,0,0,1-.61.89,7.68,7.68,0,1,1-10.79-10.79,7.86,7.86,0,0,1,.89-.62l.49-.27a7.8,7.8,0,0,1,.72-.31c.18-.07.38-.13.57-.19l.52-.13a7.67,7.67,0,0,1,9.28,7.51Z"/><circle class="cls-12" cx="271.69" cy="307.79" r="9.21"/><path class="cls-13" d="M279.36,307.79a7.78,7.78,0,0,1-.17,1.61c0,.17-.08.34-.13.51a5.62,5.62,0,0,1-.19.58,6.36,6.36,0,0,1-.31.71,4.82,4.82,0,0,1-.27.5,7.78,7.78,0,0,1-.61.89,7.68,7.68,0,1,1-10.79-10.79,7.86,7.86,0,0,1,.89-.62l.49-.27a7.8,7.8,0,0,1,.72-.31c.18-.07.38-.13.57-.19l.52-.13a7.67,7.67,0,0,1,9.28,7.51Z"/><path class="cls-14" d="M279.36,307.79a7.78,7.78,0,0,1-.17,1.61c0,.17-.08.34-.13.51a5.62,5.62,0,0,1-.19.58,6.36,6.36,0,0,1-.31.71,4.82,4.82,0,0,1-.27.5,7.78,7.78,0,0,1-.61.89,7.68,7.68,0,1,1-10.79-10.79,7.86,7.86,0,0,1,.89-.62l.49-.27a7.8,7.8,0,0,1,.72-.31c.18-.07.38-.13.57-.19l.52-.13a7.67,7.67,0,0,1,9.28,7.51Z"/><path class="cls-15" d="M208.28,343.41a14.9,14.9,0,0,0,.07,2.41c.1.83,2,.46,1.94-.41a12.9,12.9,0,0,1-.07-2.06c.05-1-1.9-.74-1.94.06Z"/><path class="cls-15" d="M265.5,306.52c.14,1.67-.27,3.35,1.1,4.61.58.54,2.33-.26,1.54-1-1.05-1-.59-2.79-.7-4-.06-.83-2-.47-1.94.41Z"/><text class="cls-16" transform="translate(238.27 139.18) rotate(57.03)">In<tspan class="cls-17" x="13.49" y="0">t</tspan><tspan x="18.01" y="0">e</tspan><tspan class="cls-18" x="26.86" y="0">r</tspan><tspan x="33.09" y="0">national </tspan></text><text class="cls-16" transform="translate(313.27 253.18) rotate(57.03)">Space <tspan class="cls-19" x="49.93" y="0">S</tspan><tspan class="cls-17" x="59.53" y="0">t</tspan><tspan x="64.05" y="0">ation</tspan></text></g></svg>