<svg xmlns="http://www.w3.org/2000/svg" viewBox="0 0 769.87 676.6">
  <defs>
    <style>.cls-1{fill:#c2d2e2;}</style>
  </defs>
  <title>journey</title>
  <g id="Layer_4" data-name="Layer 4">
    <path class="cls-1"
    d="M37.73,2.72c4.45,0,5.84,6.16,5.82,10.79q-.46,113.87-.92,227.73c-.08,18.47-7.69,35.87-17.17,39.48v.4c-3,1-5.93,2-8.88,3C6.92,287.5-.54,274-.54,254v-5.69c0-9.35,2-14.39,4-16.57,1-1.5,6.33-7.83,9.91-12l0,25.18c0,8.4,3.34,14.13,7.49,12.84s7.55-9,7.57-17.2Q28.69,121.65,29,2.75Z"/>
    <path class="cls-1"
    d="M148.92,0c9.72.74,17.49,14.08,17.34,30.47q-.84,91.92-1.7,183.85c-.35,16.43-8.17,30.94-17.88,33.75q-5.56,1.19-11.11,2.44c-9.89,2.27-17.82-10-17.88-27.17q.81-95.79,1.6-191.59C119.44,14.21,127.66-.06,137.78,0ZM142,227.14c4.25-.86,7.74-7.41,7.81-15q.81-88.4,1.61-176.77c.07-7.61-3.32-13.44-7.57-13.37l-2.23,0c-4.26.43-7.75,6.48-7.82,13.88q-.78,89.76-1.57,179.52c-.06,7.41,3.31,12.68,7.55,12.16Z"/>
    <path class="cls-1"
    d="M286.65,198.81c-.09,15.25-8.16,27.38-17.79,28.7v.32q-5.64.57-11.26,1.2c-10,1.15-18.1-9.81-18-25.78q.78-97.23,1.58-194.47c.23-3.58,2.07-6.51,4.3-6.51h10.33q-.74,97.6-1.48,195.22c-.05,6.79,3.18,11.92,7.48,11.49l2.25-.22c4.29-.42,7.81-6.18,7.85-12.89L273.26,2.24h14.59Z"/>
    <path class="cls-1"
    d="M393.51,220.71q0-40-.05-79.92c0-10.61-3.69-14.06-7.57-14.07l-7.76,0q0,47,0,94c-4.94,0-9.87.09-14.8.18q.15-109.35.31-218.69h26.54c9.72,0,17.84,12.18,17.87,27.49l.1,67.5s.64,17.19-5.27,19.32c5.72,4.42,5.34,20.68,5.34,20.67q.06,41.88.13,83.74Q400.9,220.76,393.51,220.71ZM385.89,105.5c3.88,0,7.55-2.48,7.54-12.47l0-58.69c0-8.12-3.66-11.24-7.51-11.24h-7.71q0,41.21,0,82.41Z"/>
    <path class="cls-1"
    d="M532.78,230.24c-2.24-.3-4.49-.58-6.74-.86-8-1-9.28-11.11-9.92-15.7Q507.82,157,499.6,101.24l.87,125.27q-7.38-.75-14.76-1.4L484.33,2.23H491c8.1,0,9.57,6.09,10.42,12.51q7.9,58.43,15.9,117.72-.5-65.11-1-130.21l14.59,0Z"/>
    <path class="cls-1"
    d="M659.53,228.53c-1.56,6.12-3.89,15.59-4.48,17.59-1,3-3.16,6-7.79,4.93q-16.11-3.8-32.3-7.1-1.08-117.31-2.15-234.63c.16-3.79,2-6.9,4.39-6.9l37.87.09q-2.36,9.32-4.71,18.54c-.78,3.2-3,7.06-7.63,6.93L631,27.69c-2-.05-3.42,2.36-3.39,5.85l.65,72.68q10.92,1,21.83,2.14c-1.56,6.25-3.9,16.28-4.48,18.33-1,3.08-3,6.37-7.62,5.81q-3-.37-6.07-.72c-1.82-.22-3.41,2.39-3.38,5.54q.38,42.45.76,84.9Q644.44,225.19,659.53,228.53Z"/>
    <path class="cls-1"
    d="M753.16,165.57q.11,57.92.2,115.83-5-1.71-10.07-3.36c-2.17-.72-4-4.82-4.18-9.58q-.17-52.83-.32-105.66Q730,81.14,720.88,2.69l10.74,0c.4,0,4,.39,4.68,9.38q4.83,51.81,9.56,104.72,4.49-51.66,9.06-104.45c.59-9.16,4.23-9.56,4.64-9.56l10.73,0Q761.58,85.91,753.16,165.57Z"/>
    <path class="cls-1" d="M259.09,366.63v-80.8H242.52v-9.12h43.16v9.12H269.11v80.8Z"/>
    <path class="cls-1" d="M291.85,298.42c0-13.75,6.8-22.61,20.55-22.61s20.68,8.86,20.68,22.61v46.5c0,13.62-6.81,22.61-20.68,22.61s-20.55-9-20.55-22.61Zm9.89,47c0,8.22,3.47,13,10.66,13s10.66-4.75,10.66-13V297.9c0-8.09-3.34-13-10.66-13s-10.66,4.88-10.66,13Z"/>
    <path class="cls-1" d="M375.61,366.63v-80.8H359v-9.12H402.2v9.12H385.63v80.8Z"/>
    <path class="cls-1" d="M419.16,326.17v40.46h-10V276.71h10v40.46h22.09V276.71h10v89.92h-10V326.17Z"/>
    <path class="cls-1" d="M493.54,316.53v9h-22v32h27v9.12h-37V276.71h37v9.12h-27v30.7Z"/>
    <path class="cls-1" d="M116.31,674.06H90.53V543L70.92,630.13h-8c-15.25,0-18.15-15.25-19.6-20.7L28.08,543V674.06H2.3V419.89h16c10.17,0,11.62,9.44,11.62,9.44L60,575.3,88.71,429c.37-1.09,2.18-9.08,11.62-9.08h16Z"/>
    <path class="cls-1" d="M291.32,417.35c17.43.73,31.59,14.89,31.59,32.32v195a32.65,32.65,0,0,1-31.59,32h-20a32.88,32.88,0,0,1-32.68-32v-195a32.47,32.47,0,0,1,32.68-32.32Zm-8.71,236.38a13.88,13.88,0,0,0,13.8-14.16V454.39a13.89,13.89,0,0,0-13.8-14.17h-4a14.36,14.36,0,0,0-13.79,14.17V639.57a14.35,14.35,0,0,0,13.79,14.16Z"/>
    <path class="cls-1" d="M509.18,417.35c17.43.73,31.59,14.89,31.59,32.32v195a32.65,32.65,0,0,1-31.59,32h-20a32.87,32.87,0,0,1-32.68-32v-195a32.46,32.46,0,0,1,32.68-32.32Zm-8.71,236.38a13.87,13.87,0,0,0,13.79-14.16V454.39a13.88,13.88,0,0,0-13.79-14.17h-4a14.36,14.36,0,0,0-13.8,14.17V639.57a14.36,14.36,0,0,0,13.8,14.16Z"/>
    <path class="cls-1"
    d="M758.26,674.06h-12c-14.16,0-16.34-11.25-17.43-16.34l-28-125.63v142H674.75V419.89h12c14.53,0,17.07,6.9,18.52,14.16l26.87,132.17V419.89h26.14Z"/>
  </g>
</svg>