<svg xmlns="http://www.w3.org/2000/svg" viewBox="0 0 957.31 903.5"><defs><style>.cls-1,.cls-2{fill:#f4e4a2;}.cls-2,.cls-5{stroke:#000;stroke-miterlimit:10;}.cls-2{stroke-width:3px;}.cls-3,.cls-5{fill:#c6ba8b;}.cls-4{fill:#e0d296;}.cls-6{opacity:0.17;}</style></defs><title>moon</title><g id="Layer_14" data-name="Layer 14"><path class="cls-1" d="M478.89,816.27a370.42,370.42,0,1,1,144.6-29.2A369.54,369.54,0,0,1,478.89,816.27Zm197.5-173c-21,0-38,10.54-38,23.5,0,5.46,3.13,10.8,8.83,15,7.27,5.4,17.9,8.49,29.17,8.49,1,0,1.9,0,2.72-.07,19.79-.88,35.28-11.17,35.28-23.43a14.68,14.68,0,0,0-.57-4,17.09,17.09,0,0,0-2.6-5.33C705.13,648.82,691.46,643.27,676.39,643.27Zm-412-94c-27,0-49,15.92-49,35.5,0,7,2.81,13.74,8.12,19.56,9.14,10,24.42,15.94,40.88,15.94,27,0,49-15.93,49-35.5a26.63,26.63,0,0,0-2.39-11C304.41,559.13,285.68,549.27,264.39,549.27Zm471,37c-9.93,0-18,4.93-18,11,0,3.07,2.18,6,6,8.15a25.14,25.14,0,0,0,12,2.85c9.92,0,18-4.94,18-11a6.75,6.75,0,0,0-.63-2.84C750.61,589.62,743.46,586.27,735.39,586.27Zm-334-74c-10.48,0-19,5.38-19,12,0,3,1.76,5.82,5,8.06a25.16,25.16,0,0,0,14,3.94c10.47,0,19-5.38,19-12a7.63,7.63,0,0,0-.52-2.75C417.83,516.16,410.06,512.27,401.39,512.27Zm160-254c-18.2,0-33,11-33,24.5,0,5.3,2.25,10.34,6.5,14.58,6.3,6.3,16,9.92,26.5,9.92,18.19,0,33-11,33-24.5a18.87,18.87,0,0,0-1.81-8C588,264.9,575.43,258.27,561.39,258.27Zm-210.5-75c-24.54,0-44.5,16.15-44.5,36A31,31,0,0,0,313,238.19c8.18,10.69,22.34,17.08,37.86,17.08,24.53,0,44.5-16.15,44.5-36A29.64,29.64,0,0,0,393.53,209C387.94,193.83,370.41,183.27,350.89,183.27Zm242.5-20c-11.58,0-21,6.5-21,14.5a11.72,11.72,0,0,0,4.14,8.61c4,3.74,10.17,5.89,16.86,5.89,11.58,0,21-6.51,21-14.5a9.76,9.76,0,0,0-.54-3.22C611.68,168,603.07,163.27,593.39,163.27Z"/><path d="M478.89,74.77c156.33,0,290,97,344.21,234a364.94,364.94,0,0,1,13.32,40.43,370,370,0,0,1,12.47,95.57c0,204.35-165.65,370-370,370-154.24,0-286.43-94.37-342-228.52a371.34,371.34,0,0,1-2.23-277.48c54.19-137,187.88-234,344.21-234m114.5,119c12.43,0,22.5-7.16,22.5-16a11.33,11.33,0,0,0-.62-3.71c-2.34-7.05-11.25-12.29-21.88-12.29-12.43,0-22.5,7.16-22.5,16a13.28,13.28,0,0,0,4.62,9.71c4.11,3.82,10.59,6.29,17.88,6.29m-242.5,63c25.41,0,46-16.79,46-37.5a31.05,31.05,0,0,0-1.95-10.83c-5.7-15.43-23.26-26.67-44.05-26.67-25.41,0-46,16.79-46,37.5a32.47,32.47,0,0,0,6.95,19.83c8.12,10.61,22.57,17.67,39.05,17.67m210.5,52c19.05,0,34.5-11.64,34.5-26a20.33,20.33,0,0,0-1.95-8.64c-4.73-10.11-17.52-17.36-32.55-17.36-19,0-34.5,11.64-34.5,26a22,22,0,0,0,7,15.64c6.29,6.3,16.29,10.36,27.55,10.36m-160,229c11.32,0,20.5-6,20.5-13.5a9,9,0,0,0-.62-3.29c-2.23-5.87-10.29-10.21-19.88-10.21-11.32,0-20.5,6-20.5,13.5,0,3.6,2.14,6.86,5.62,9.29a26.44,26.44,0,0,0,14.88,4.21m-137,84c27.89,0,50.5-16.57,50.5-37a28,28,0,0,0-2.52-11.57c-6.63-14.77-25.6-25.43-48-25.43-27.89,0-50.5,16.57-50.5,37,0,7.62,3.14,14.69,8.52,20.57,9.07,9.91,24.48,16.43,42,16.43m471-12c10.77,0,19.5-5.6,19.5-12.5a8.3,8.3,0,0,0-.76-3.46c-2.34-5.22-9.84-9-18.74-9-10.77,0-19.5,5.6-19.5,12.5,0,3.78,2.62,7.17,6.76,9.46a26.51,26.51,0,0,0,12.74,3m-59,82c1,0,1.89,0,2.81-.07,20.51-.91,36.69-11.72,36.69-24.93a15.78,15.78,0,0,0-.63-4.44,18.64,18.64,0,0,0-2.81-5.78c-6.17-8.71-20-14.78-36.06-14.78-21.82,0-39.5,11.19-39.5,25,0,6.19,3.55,11.86,9.44,16.22,7.24,5.37,18,8.78,30.06,8.78m-197.5-620a370.84,370.84,0,0,0-212.12,66.14A372.31,372.31,0,0,0,105.89,444.77a371.53,371.53,0,0,0,83.87,235.68A372.76,372.76,0,0,0,478.89,817.77,372.85,372.85,0,0,0,770.78,212.52,372.77,372.77,0,0,0,478.89,71.77Zm114.5,119c-6.22,0-12.14-2.05-15.84-5.49a10.43,10.43,0,0,1-3.66-7.51c0-7.05,8.93-13,19.5-13,9.06,0,17.06,4.3,19,10.23a8.53,8.53,0,0,1,.47,2.77c0,7-8.93,13-19.5,13Zm-242.5,63c-15.06,0-28.77-6.17-36.67-16.49a29.56,29.56,0,0,1-6.33-18c0-19,19.29-34.5,43-34.5,18.9,0,35.86,10.16,41.23,24.71a28.1,28.1,0,0,1,1.77,9.79c0,19-19.29,34.5-43,34.5Zm210.5,52c-10,0-19.5-3.55-25.43-9.48-4-4-6.07-8.63-6.07-13.52,0-12.68,14.13-23,31.5-23,13.47,0,25.45,6.28,29.83,15.63a17.42,17.42,0,0,1,1.67,7.37c0,12.68-14.13,23-31.5,23Zm-160,229a23.65,23.65,0,0,1-13.18-3.68c-2.78-1.94-4.32-4.37-4.32-6.82,0-5.69,8-10.5,17.5-10.5,8.07,0,15.25,3.48,17.07,8.27a6,6,0,0,1,.43,2.23c0,5.69-8,10.5-17.5,10.5Zm-137,84c-16,0-30.91-5.78-39.77-15.46-5.06-5.53-7.73-11.94-7.73-18.54,0-18.75,21.3-34,47.5-34,20.71,0,38.89,9.51,45.24,23.66a25,25,0,0,1,2.26,10.34c0,18.75-21.31,34-47.5,34Zm471-12a23.71,23.71,0,0,1-11.29-2.66c-3.31-1.84-5.21-4.33-5.21-6.84,0-5.15,7.55-9.5,16.5-9.5,8.36,0,14.38,3.65,16,7.27a5.36,5.36,0,0,1,.5,2.23c0,5.15-7.56,9.5-16.5,9.5Zm-59,82c-10.95,0-21.26-3-28.28-8.19-5.3-3.93-8.22-8.83-8.22-13.81,0-5.62,3.61-11,10.17-15.15,7-4.42,16.33-6.85,26.33-6.85,14.6,0,27.79,5.3,33.61,13.51a16,16,0,0,1,2.37,4.85,13.29,13.29,0,0,1,.52,3.64c0,11.46-14.86,21.09-33.83,21.93-.84,0-1.71.07-2.67.07Z"/><path class="cls-2" d="M314.89,584.77c0,20.43-22.61,37-50.5,37-17.5,0-32.91-6.52-42-16.43-5.38-5.88-8.52-13-8.52-20.57,0-20.43,22.61-37,50.5-37,22.38,0,41.35,10.66,48,25.43A28,28,0,0,1,314.89,584.77Z"/><path class="cls-2" d="M396.89,219.27c0,20.71-20.59,37.5-46,37.5-16.48,0-30.93-7.06-39.05-17.67a32.47,32.47,0,0,1-6.95-19.83c0-20.71,20.59-37.5,46-37.5,20.79,0,38.35,11.24,44.05,26.67A31.05,31.05,0,0,1,396.89,219.27Z"/><path class="cls-2" d="M421.89,524.27c0,7.46-9.18,13.5-20.5,13.5a26.44,26.44,0,0,1-14.88-4.21c-3.48-2.43-5.62-5.69-5.62-9.29,0-7.46,9.18-13.5,20.5-13.5,9.59,0,17.65,4.34,19.88,10.21A9,9,0,0,1,421.89,524.27Z"/><path class="cls-2" d="M595.89,282.77c0,14.36-15.45,26-34.5,26-11.26,0-21.26-4.06-27.55-10.36a22,22,0,0,1-7-15.64c0-14.36,15.45-26,34.5-26,15,0,27.82,7.25,32.55,17.36A20.33,20.33,0,0,1,595.89,282.77Z"/><path class="cls-2" d="M615.89,177.77c0,8.84-10.07,16-22.5,16-7.29,0-13.77-2.47-17.88-6.29a13.28,13.28,0,0,1-4.62-9.71c0-8.84,10.07-16,22.5-16,10.63,0,19.54,5.24,21.88,12.29A11.33,11.33,0,0,1,615.89,177.77Z"/><path class="cls-2" d="M715.89,666.77c0,13.81-17.68,25-39.5,25-12,0-22.82-3.41-30.06-8.78-5.89-4.36-9.44-10-9.44-16.22,0-13.81,17.68-25,39.5-25,16.07,0,29.89,6.07,36.06,14.78A17.57,17.57,0,0,1,715.89,666.77Z"/><path class="cls-2" d="M754.89,597.27c0,6.9-8.73,12.5-19.5,12.5a26.51,26.51,0,0,1-12.74-3c-4.14-2.29-6.76-5.68-6.76-9.46,0-6.9,8.73-12.5,19.5-12.5,8.9,0,16.4,3.82,18.74,9A8.3,8.3,0,0,1,754.89,597.27Z"/><path class="cls-3" d="M350.89,257.27c-16.14,0-30.89-6.68-39.45-17.87a33,33,0,0,1-7.05-20.13c0-21,20.86-38,46.5-38,20.66,0,38.55,10.85,44.51,27a31.42,31.42,0,0,1,2,11C397.39,240.22,376.53,257.27,350.89,257.27Z"/><path d="M350.89,181.77c20.79,0,38.35,11.24,44.05,26.67a31.05,31.05,0,0,1,1.95,10.83c0,20.71-20.59,37.5-46,37.5-16.48,0-30.93-7.06-39.05-17.67a32.47,32.47,0,0,1-6.95-19.83c0-20.71,20.59-37.5,46-37.5m0-1c-25.92,0-47,17.27-47,38.5A33.52,33.52,0,0,0,311,239.71c8.66,11.31,23.55,18.06,39.85,18.06,25.91,0,47-17.27,47-38.5a32,32,0,0,0-2-11.18c-2.86-7.76-8.82-14.73-16.78-19.62a53.63,53.63,0,0,0-28.2-7.7Z"/><path class="cls-4" d="M396.89,219.27c0,20.71-20.59,37.5-46,37.5-16.48,0-30.93-7.06-39.05-17.67a31.05,31.05,0,0,1-1.95-10.83c0-20.71,20.59-37.5,46-37.5,16.48,0,30.93,7.06,39.05,17.67A31.05,31.05,0,0,1,396.89,219.27Z"/><path class="cls-3" d="M561.39,309.27c-11.07,0-21.24-3.83-27.91-10.51-4.64-4.62-7.09-10.15-7.09-16,0-14.61,15.7-26.5,35-26.5,14.8,0,28.06,7.09,33,17.65a20.86,20.86,0,0,1,2,8.85C596.39,297.38,580.68,309.27,561.39,309.27Z"/><path d="M561.39,256.77c15,0,27.82,7.25,32.55,17.36a20.33,20.33,0,0,1,1.95,8.64c0,14.36-15.45,26-34.5,26-11.26,0-21.26-4.06-27.55-10.36a22,22,0,0,1-7-15.64c0-14.36,15.45-26,34.5-26m0-1c-19.58,0-35.5,12.11-35.5,27,0,6,2.5,11.63,7.24,16.35,6.76,6.77,17.06,10.65,28.26,10.65,19.57,0,35.5-12.11,35.5-27a21.21,21.21,0,0,0-2-9.06c-5-10.73-18.46-17.94-33.45-17.94Z"/><path class="cls-4" d="M595.89,282.77c0,14.36-15.45,26-34.5,26-11.26,0-21.26-4.06-27.55-10.36a20.33,20.33,0,0,1-2-8.64c0-14.36,15.45-26,34.5-26,11.26,0,21.26,4.06,27.55,10.36A20.33,20.33,0,0,1,595.89,282.77Z"/><path class="cls-3" d="M593.39,194.27c-7.19,0-13.83-2.34-18.22-6.43a13.65,13.65,0,0,1-4.78-10.07c0-9.1,10.31-16.5,23-16.5,10.69,0,19.88,5.19,22.35,12.63a11.82,11.82,0,0,1,.65,3.87C616.39,186.87,606.07,194.27,593.39,194.27Z"/><path d="M593.39,161.77c10.63,0,19.54,5.24,21.88,12.29a11.33,11.33,0,0,1,.62,3.71c0,8.84-10.07,16-22.5,16-7.29,0-13.77-2.47-17.88-6.29a13.28,13.28,0,0,1-4.62-9.71c0-8.84,10.07-16,22.5-16m0-1c-13,0-23.5,7.62-23.5,17a14.14,14.14,0,0,0,4.94,10.44c4.48,4.17,11.24,6.56,18.56,6.56,13,0,23.5-7.63,23.5-17a12.33,12.33,0,0,0-.68-4c-2.53-7.63-11.92-13-22.82-13Z"/><path class="cls-4" d="M615.89,177.77c0,8.84-10.07,16-22.5,16-7.29,0-13.77-2.47-17.88-6.29a11.33,11.33,0,0,1-.62-3.71c0-8.84,10.07-16,22.5-16,7.29,0,13.77,2.47,17.88,6.29A11.33,11.33,0,0,1,615.89,177.77Z"/><path class="cls-3" d="M602.45,430.24a8.43,8.43,0,0,1-3.36-.66,4.94,4.94,0,0,1-2.83-2.93,5.24,5.24,0,0,1,.94-4.83,10,10,0,0,1,4.87-3.46,10.82,10.82,0,0,1,3.48-.59,6.75,6.75,0,0,1,5.51,2.32,4.57,4.57,0,0,1,.68,1.27c1.07,3.11-1.54,6.83-5.81,8.29A10.92,10.92,0,0,1,602.45,430.24Z"/><path d="M605.55,418.27a6.3,6.3,0,0,1,5.11,2.12,4,4,0,0,1,.61,1.13c1,2.86-1.49,6.28-5.5,7.66a10.47,10.47,0,0,1-3.32.56,7.78,7.78,0,0,1-3.16-.62,4.53,4.53,0,0,1-2.56-2.63c-1-2.85,1.48-6.28,5.5-7.65a10.21,10.21,0,0,1,3.32-.57m0-1h0a11.27,11.27,0,0,0-3.64.62c-4.53,1.55-7.28,5.55-6.13,8.93a5.56,5.56,0,0,0,3.11,3.21,8.7,8.7,0,0,0,3.56.71,11.32,11.32,0,0,0,3.64-.62,10.42,10.42,0,0,0,5.11-3.63,5.77,5.77,0,0,0,1-5.29,4.75,4.75,0,0,0-.76-1.42,7.25,7.25,0,0,0-5.9-2.51Z"/><path class="cls-4" d="M611.27,421.52c1,2.86-1.49,6.28-5.5,7.66a9.09,9.09,0,0,1-6.48-.06,4,4,0,0,1-.61-1.13c-1-2.86,1.49-6.28,5.51-7.66a9.06,9.06,0,0,1,6.47.06A4,4,0,0,1,611.27,421.52Z"/><path class="cls-3" d="M425.36,782.51a10.31,10.31,0,0,1-5.3-1.37,5.79,5.79,0,0,1-2.82-3.77,6.13,6.13,0,0,1,1.81-5.41,11.52,11.52,0,0,1,6.13-3.26,13.54,13.54,0,0,1,2.59-.26c3.37,0,6.25,1.37,7.52,3.58a5.2,5.2,0,0,1,.6,1.55c.75,3.74-2.81,7.63-7.95,8.67A12.64,12.64,0,0,1,425.36,782.51Z"/><path d="M427.77,768.94c3.17,0,5.9,1.27,7.09,3.33a4.56,4.56,0,0,1,.53,1.4c.71,3.47-2.67,7.09-7.55,8.08a12.6,12.6,0,0,1-2.48.26,9.67,9.67,0,0,1-5-1.3,5.32,5.32,0,0,1-2.59-3.44c-.71-3.47,2.68-7.09,7.55-8.08a12.67,12.67,0,0,1,2.49-.25m0-1h0a13.54,13.54,0,0,0-2.68.27,12,12,0,0,0-6.41,3.41,6.58,6.58,0,0,0-1.93,5.85,6.33,6.33,0,0,0,3.05,4.09,10.56,10.56,0,0,0,5.56,1.45,13.55,13.55,0,0,0,2.68-.28,12.06,12.06,0,0,0,6.4-3.4,6.57,6.57,0,0,0,1.93-5.85,5.51,5.51,0,0,0-.65-1.72c-1.35-2.35-4.4-3.82-8-3.82Z"/><path class="cls-4" d="M435.39,773.67c.71,3.47-2.67,7.09-7.55,8.08a10.62,10.62,0,0,1-7.52-1,4.3,4.3,0,0,1-.54-1.41c-.71-3.47,2.67-7.08,7.55-8.07a10.59,10.59,0,0,1,7.53,1A4.56,4.56,0,0,1,435.39,773.67Z"/><path class="cls-3" d="M311.45,491.24a8.43,8.43,0,0,1-3.36-.66,4.94,4.94,0,0,1-2.83-2.93,5.24,5.24,0,0,1,.94-4.83,10,10,0,0,1,4.87-3.46,10.82,10.82,0,0,1,3.48-.59,6.75,6.75,0,0,1,5.51,2.32,4.57,4.57,0,0,1,.68,1.27c1.07,3.11-1.54,6.83-5.81,8.29A10.92,10.92,0,0,1,311.45,491.24Z"/><path d="M314.55,479.27a6.3,6.3,0,0,1,5.11,2.12,4,4,0,0,1,.61,1.13c1,2.86-1.49,6.28-5.5,7.66a10.47,10.47,0,0,1-3.32.56,7.78,7.78,0,0,1-3.16-.62,4.53,4.53,0,0,1-2.56-2.63c-1-2.85,1.48-6.28,5.5-7.65a10.21,10.21,0,0,1,3.32-.57m0-1h0a11.27,11.27,0,0,0-3.64.62c-4.53,1.55-7.28,5.55-6.13,8.93a5.56,5.56,0,0,0,3.11,3.21,8.7,8.7,0,0,0,3.56.71,11.32,11.32,0,0,0,3.64-.62,10.42,10.42,0,0,0,5.11-3.63,5.77,5.77,0,0,0,1-5.29,4.75,4.75,0,0,0-.76-1.42,7.25,7.25,0,0,0-5.9-2.51Z"/><path class="cls-4" d="M320.27,482.52c1,2.86-1.49,6.28-5.5,7.66a9.09,9.09,0,0,1-6.48-.06,4,4,0,0,1-.61-1.13c-1-2.86,1.49-6.28,5.51-7.66a9.06,9.06,0,0,1,6.47.06A4,4,0,0,1,320.27,482.52Z"/><path class="cls-3" d="M221.45,250.24a8.43,8.43,0,0,1-3.36-.66,4.94,4.94,0,0,1-2.83-2.93,5.24,5.24,0,0,1,.94-4.83,10,10,0,0,1,4.87-3.46,10.82,10.82,0,0,1,3.48-.59,6.75,6.75,0,0,1,5.51,2.32,4.57,4.57,0,0,1,.68,1.27c1.07,3.11-1.54,6.83-5.81,8.29A10.92,10.92,0,0,1,221.45,250.24Z"/><path d="M224.55,238.27a6.3,6.3,0,0,1,5.11,2.12,4,4,0,0,1,.61,1.13c1,2.86-1.49,6.28-5.5,7.66a10.47,10.47,0,0,1-3.32.56,7.78,7.78,0,0,1-3.16-.62,4.53,4.53,0,0,1-2.56-2.63c-1-2.85,1.48-6.28,5.5-7.65a10.21,10.21,0,0,1,3.32-.57m0-1h0a11.27,11.27,0,0,0-3.64.62c-4.53,1.55-7.28,5.55-6.13,8.93a5.56,5.56,0,0,0,3.11,3.21,8.7,8.7,0,0,0,3.56.71,11.32,11.32,0,0,0,3.64-.62,10.42,10.42,0,0,0,5.11-3.63,5.77,5.77,0,0,0,1-5.29,4.75,4.75,0,0,0-.76-1.42,7.25,7.25,0,0,0-5.9-2.51Z"/><path class="cls-4" d="M230.27,241.52c1,2.86-1.49,6.28-5.5,7.66a9.09,9.09,0,0,1-6.48-.06,4,4,0,0,1-.61-1.13c-1-2.86,1.49-6.28,5.51-7.66a9.06,9.06,0,0,1,6.47.06A4,4,0,0,1,230.27,241.52Z"/><path class="cls-5" d="M511.27,121.52c1,2.86-1.49,6.28-5.5,7.66a9.09,9.09,0,0,1-6.48-.06,4.53,4.53,0,0,1-2.56-2.63c-1-2.85,1.48-6.28,5.5-7.65,3.44-1.18,6.89-.47,8.43,1.55A4,4,0,0,1,511.27,121.52Z"/><path class="cls-4" d="M511.27,121.52c1,2.86-1.49,6.28-5.5,7.66a9.09,9.09,0,0,1-6.48-.06,4,4,0,0,1-.61-1.13c-1-2.86,1.49-6.28,5.51-7.66a9.06,9.06,0,0,1,6.47.06A4,4,0,0,1,511.27,121.52Z"/><path class="cls-3" d="M264.39,622.27c-17,0-32.84-6.2-42.35-16.59-5.66-6.19-8.65-13.42-8.65-20.91,0-20.68,22.87-37.5,51-37.5,22.06,0,41.52,10.34,48.43,25.72a28.55,28.55,0,0,1,2.57,11.78C315.39,605.45,292.51,622.27,264.39,622.27Z"/><path d="M264.39,547.77c22.38,0,41.35,10.66,48,25.43a28,28,0,0,1,2.52,11.57c0,20.43-22.61,37-50.5,37-17.5,0-32.91-6.52-42-16.43-5.38-5.88-8.52-13-8.52-20.57,0-20.43,22.61-37,50.5-37m0-1c-28.4,0-51.5,17.05-51.5,38,0,7.62,3,15,8.78,21.24,9.6,10.5,25.57,16.76,42.72,16.76,28.39,0,51.5-17,51.5-38a29,29,0,0,0-2.61-12c-7-15.56-26.64-26-48.89-26Z"/><path class="cls-4" d="M314.89,584.77c0,20.43-22.61,37-50.5,37-17.5,0-32.91-6.52-42-16.43a28,28,0,0,1-2.52-11.57c0-20.43,22.61-37,50.5-37,17.5,0,32.91,6.52,42,16.43A28,28,0,0,1,314.89,584.77Z"/><path class="cls-3" d="M401.39,538.27a26.84,26.84,0,0,1-15.17-4.3c-3.76-2.63-5.83-6.07-5.83-9.7,0-7.72,9.42-14,21-14,9.62,0,18,4.33,20.34,10.53a9.38,9.38,0,0,1,.66,3.47C422.39,532,413,538.27,401.39,538.27Z"/><path d="M401.39,510.77c9.59,0,17.65,4.34,19.88,10.21a9,9,0,0,1,.62,3.29c0,7.46-9.18,13.5-20.5,13.5a26.44,26.44,0,0,1-14.88-4.21c-3.48-2.43-5.62-5.69-5.62-9.29,0-7.46,9.18-13.5,20.5-13.5m0-1c-11.86,0-21.5,6.5-21.5,14.5,0,3.79,2.14,7.39,6,10.11a27.36,27.36,0,0,0,15.46,4.39c11.85,0,21.5-6.51,21.5-14.5a10.16,10.16,0,0,0-.69-3.66c-2.43-6.38-11-10.84-20.81-10.84Z"/><path class="cls-4" d="M421.89,524.27c0,7.46-9.18,13.5-20.5,13.5a26.44,26.44,0,0,1-14.88-4.21,9,9,0,0,1-.62-3.29c0-7.46,9.18-13.5,20.5-13.5A26.44,26.44,0,0,1,421.27,521,9,9,0,0,1,421.89,524.27Z"/><path class="cls-3" d="M769,353.77a22.46,22.46,0,0,1-12.69-3.6c-3.15-2.2-4.89-5.1-4.89-8.15,0-6.48,7.88-11.75,17.58-11.75,8,0,15.06,3.63,17,8.83a7.85,7.85,0,0,1,.55,2.92C786.55,348.5,778.67,353.77,769,353.77Z"/><path d="M769,330.77c8,0,14.71,3.62,16.57,8.51a7.49,7.49,0,0,1,.51,2.74c0,6.22-7.65,11.25-17.08,11.25a22,22,0,0,1-12.4-3.51c-2.9-2-4.68-4.74-4.68-7.74,0-6.22,7.65-11.25,17.08-11.25m0-1c-10,0-18.08,5.49-18.08,12.25,0,3.22,1.81,6.26,5.11,8.56a22.92,22.92,0,0,0,13,3.69c10,0,18.08-5.5,18.08-12.25a8.49,8.49,0,0,0-.58-3.11c-2.05-5.38-9.24-9.14-17.5-9.14Z"/><path class="cls-4" d="M786.05,342c0,6.22-7.65,11.25-17.08,11.25a22,22,0,0,1-12.4-3.51,7.5,7.5,0,0,1-.52-2.74c0-6.22,7.65-11.25,17.09-11.25a22,22,0,0,1,12.4,3.51A7.49,7.49,0,0,1,786.05,342Z"/><path class="cls-3" d="M361.75,656.86a38,38,0,0,1-9.44-1.22c-7-1.79-13.06-5.31-17.05-9.92-3.73-4.33-5.17-9.13-4.05-13.5,1.8-7.06,9.78-11.62,20.31-11.62a38.44,38.44,0,0,1,9.44,1.21c11.67,3,20.46,10.82,21.39,19.05a11.92,11.92,0,0,1-.28,4.37C380.26,652.29,372.28,656.86,361.75,656.86Z"/><path d="M351.52,621.1a37.49,37.49,0,0,1,9.32,1.2c11.67,3,20.13,10.77,21,18.61a11.24,11.24,0,0,1-.27,4.2c-1.78,7-9.91,11.25-19.83,11.25a37.58,37.58,0,0,1-9.32-1.21c-7.13-1.82-13.05-5.44-16.79-9.75-3.48-4-5.07-8.68-3.95-13.06,1.79-7,9.91-11.24,19.83-11.24m0-1h0c-10.77,0-18.93,4.71-20.8,12-1.16,4.54.32,9.5,4.16,14,4.06,4.68,10.2,8.26,17.3,10.07a38.62,38.62,0,0,0,9.57,1.24c10.77,0,18.94-4.71,20.8-12a12.56,12.56,0,0,0,.3-4.57c-1-8.42-9.9-16.43-21.76-19.46a38.6,38.6,0,0,0-9.57-1.23Z"/><path class="cls-4" d="M381.58,645.11c-2.32,9.08-15.37,13.57-29.15,10-7.13-1.82-13.05-5.44-16.79-9.75a11,11,0,0,1,.27-4.2c2.32-9.08,15.37-13.57,29.15-10,7.13,1.82,13.05,5.44,16.79,9.75A11.24,11.24,0,0,1,381.58,645.11Z"/><path class="cls-3" d="M754.89,597.27c0,6.9-8.73,12.5-19.5,12.5a26.51,26.51,0,0,1-12.74-3c-4.14-2.29-6.76-5.68-6.76-9.46,0-6.9,8.73-12.5,19.5-12.5,8.9,0,16.4,3.82,18.74,9A8.3,8.3,0,0,1,754.89,597.27Z"/><path class="cls-4" d="M754.89,597.27c0,6.9-8.73,12.5-19.5,12.5a26.51,26.51,0,0,1-12.74-3,8.3,8.3,0,0,1-.76-3.46c0-6.9,8.73-12.5,19.5-12.5a26.51,26.51,0,0,1,12.74,3A8.3,8.3,0,0,1,754.89,597.27Z"/><path class="cls-3" d="M676.39,692.27c-11.69,0-22.75-3.24-30.36-8.88-6.22-4.6-9.64-10.51-9.64-16.62,0-14.06,17.94-25.5,40-25.5,15.7,0,30,5.88,36.46,15a18,18,0,0,1,3.54,10.51C716.39,680.83,698.44,692.27,676.39,692.27Z"/><path d="M676.39,641.77c16.07,0,29.89,6.07,36.06,14.78a17.57,17.57,0,0,1,3.44,10.22c0,13.81-17.68,25-39.5,25-12,0-22.82-3.41-30.06-8.78-5.89-4.36-9.44-10-9.44-16.22,0-13.81,17.68-25,39.5-25m0-1c-22.34,0-40.5,11.66-40.5,26,0,6.28,3.49,12.32,9.84,17,7.69,5.71,18.87,9,30.66,9,22.33,0,40.5-11.66,40.5-26a18.45,18.45,0,0,0-3.63-10.8c-6.54-9.23-21-15.2-36.87-15.2Z"/><path class="cls-4" d="M715.89,666.77c0,13.81-17.68,25-39.5,25-12,0-22.82-3.41-30.06-8.78a17.57,17.57,0,0,1-3.44-10.22c0-13.81,17.68-25,39.5-25,12,0,22.82,3.41,30.06,8.78A17.57,17.57,0,0,1,715.89,666.77Z"/><path class="cls-6" d="M848.89,444.77c0,204.35-165.65,370-370,370-154.24,0-286.43-94.37-342-228.52,67.4,106.11,186,176.52,321,176.52a380,380,0,0,0,380-380q0-17-1.47-33.57A370,370,0,0,1,848.89,444.77Z"/></g></svg>