<svg xmlns="http://www.w3.org/2000/svg" viewBox="0 0 1459.86 402.46"><title>Artboard 26</title><g id="Layer_18" data-name="Layer 18"><path d="M1404.92,238.65l-37.29-31.88-48.12-34.28-30.07-45.11-45.11-17.44-27.06-3-37.89,20.45-39.1,8.42-28.87-14.43-27.66-3-21.66-7.22s-50.52-4.21-54.73-1.2S978.49,92.5,978.49,92.5L956.24,78.06,917.15,64.83,869.63,32.35l-39.09-6.61L774,2.88l-69.16,40.3L691.6,63.63,663.94,82.27l-8.42,13.24-34.89,6-14.43,1.2-34.88,7.22L522,98.51,482.9,94.3,454,92.5,438.4,82.27,422.16,98.51l-12.63-9-17.44,7.22H371.64L353,120.17l-18.64,21.65-12,11.43-7.22,14.43-17.44,6-17.44,11.43-33.08,9-27.67,18.65-22.85,8.42-14.44,16.24s-59.54,28.87-63.75,31.87L19.79,318.64l26.47,18.65,105.25-10.23s138.93,13.23,145,16.24,82.39,7.22,88.41,12.63S522,347.51,522,347.51l117.28,30.07,108.86-22.85,47.51,22.85h87.21L949,348.71l105.86-33.08,69.76,18.65L1198,305.41l88.41,6,87.21,11.43L1448.82,291l-17.44-30.68Z" fill="#ededed"/><path d="M444.11,97c-1.8.6-5.41,5.41-5.41,5.41l-6-6-14.43,7.22L410.43,100l-9,12-4.81-10.83-27.67,14.43L361.71,109l-28.87,37.89-9,4.81-9,19.25-20.45,9.62-13.83,9.62-18.65,40.9v48.12h49.32s29.47-19.85,31.28-25.86,17.44-22.26,17.44-22.26l23.45-18.64,46.32-28.87,17.44-27.07S470,140.31,470,133.1,483.2,94.6,483.2,94.6l-27.06,7.22S445.91,96.41,444.11,97Z" fill="#383838" opacity="0.12"/><path d="M547,252.78c-.6-1.2,2.4-20.45,3-21.65s4.82-16.84,4.82-16.84-3-9.62-4.21-8.42-9,15-9,15l3-17.44-9.62,16.84s-6.62,16.84-7.22,15,12.63-36.08,12.63-36.08l-9.62-12.64-11.43-15,.6-15.64,4.21-3.61s-2.4-15.63-2.4-17.44,2.4-13.23,2.4-15.64,1.81-17.44,1.81-17.44l-19.25,1.81-10.22,12-3,11.43-8.42,3-28.27,33.68,2.41,9.62L454.34,183l4.81,7.21s-6.62,13.84-6.62,14.44v22.85L447.12,242l8.42,15.64,2.4,21.65-4.21,8.42,12-15,6.62-1.2-1.2,10.22L479,264.81l-1.8-8.42,6-1.8,3.61,7.82-3.61,16.84s-1.8,11.42,0,10.22,11.43-3.61,10.83-5.41-2.41-11.43-1.8-12.63,3.6-19.25,3.6-19.25l-3.6-18.64,1.8-15-.6-11.43,9.62-16.84,9,9.63s-1.2,9.62,0,10.82-9.62,29.47-7.82,26.47,16.24-30.08,16.24-30.08l4.82,3.61L513.88,239l-10.83,6-4.21,15L497,270.83l5.41,6,7.82-1.8,10.22,4.21s8.42,4.21,10.83,3.61,13.83-1.21,13.83-1.21V270.83s7.82-7.82,7.82-9,2.41-12,2.41-12l6-18.65S547.56,254,547,252.78Z" fill="#383838" opacity="0.12"/><path d="M636.57,136.71c-1.8-.61-21.65-27.67-21.65-27.67l-3,10.22-12.63-15-26.46,7.82-11.43,7.81,8.42,22.26s8.42,4.21,13.23,7.22,16.84,15,16.84,15l-2.4-32.48s16.24,13.24,16.84,15.64,17.44-5.41,17.44-5.41S638.38,137.31,636.57,136.71Z" fill="#383838" opacity="0.12"/><path d="M704.54,43.48,691.3,63.93,663.64,82l-8.42,13.24-37.89,6.61,16.24,12L636.88,140l-24.37,13.54v10.82s-7.21,6.62-6.61,7.82,7.22,11.43,7.22,11.43l11.42-7.82,7.82,5.41,4.81,16.24s3.61-11.43,4.21-12.63,9.63,1.8,9.63,1.8l-5.42-16.23,5.42-6L663.64,168s12.63-3,10.82-3.61-18.64-15-18.64-15V137.91l-2.41-11.43,10.23-18.64,9,4.81,4.81,10.82V134.3l-3,19.25,8.42-15.64,4.82,11.43V159l19.84,13.23,4.81,18L731,204.67s-1.2-28.27-2.41-28.87-9.62-18.65-10.82-18.65-17.44-9.62-17.44-9.62l-6-8.42-11.43-4.81,5.42-15s10.22,9,11.42,9,10.83,1.2,10.83,1.2,2.41,9,3.61,9.62,4.81-7.22,4.81-7.22l-4.81,18.05,11.43-21.05-5.42-9.63s-3,4.81-4.81,3-7.22-20.45-7.22-20.45l-6-13.23,1.2-6.62H725l18-10.82,17.44-12,4.81-18,2.41-9,3.61-7.81-3.61-4.82,6-16.84Z" fill="#383838" opacity="0.12"/><path d="M768.29,49.5l-7.22,17.44L749,80.17,734.61,100l2.4,15-2.4,16.84s13.23-16.24,14.43-16.24,13.23-18,13.23-18,9-13.83,11.43-16.24,9.62-11.43,10.83-10.82,5.41-11.43,5.41-11.43V36.87l-10.83,18Z" fill="#383838" opacity="0.12"/><path d="M803.17,50.1c-.6,3.61-4.81,16.24-4.81,16.24V89.79l-10.22,20.45,1.8,12-10.22,20.45-6-3.61-7.22,9.62,4.82,6L759.87,177l-3.61,13.23,15-22.85,4.21,1.8,3-12,11.43-16.84v-8.42l9-21s4.81-21,5.42-22.25,4.81-21.65,4.81-21.65L811,48.29l-1.8-16.24S803.77,46.49,803.17,50.1Z" fill="#383838" opacity="0.12"/><path d="M833.94,224.19a.82.82,0,0,0-.09.33C833.85,224.82,833.88,224.66,833.94,224.19Z" fill="#383838" opacity="0.12"/><path d="M978.79,204.67c0-1.81-7.21,0-7.21,0s-8.42,8.42-9,6.61,4.82-11.42,6-12.63-3-8.42-3-8.42l-6-9-12.63-12.63-12-10.22-3-7.22s.6-6,1.2-9.62-1.8-9.63-1.8-9.63,1.8-7.21,3-8.42,6.61-8.42,6-9.62-4.81-7.22-4.81-7.22h-6l-10.23-7.82,6-24.65s-26.47,31.27-27.67,32.47,0-6.61,0-6.61l-9-12-4.81-12.63-7.22-12.63V54.91l3.61-9-9,4.81-7.22-1.81-10.23-5.41-6.61-2.4-4.81,5.41h-6.62l-8.42,14.43,3.61,12-4.21,3.61-2.41,7.82L815.8,94l6,24.66-8.42-3-10.83,16.24-8.42,10.83,1.2,7.82-5.41,13.83-12,13.84s1.81,7.81,0,7.81-21.65,49.32-21.65,49.32,19.25-24.06,20.45-24.06,4.81-10.82,4.81-10.82l8.42-10.23s5.41-11.42,6-13.23,4.81-9.62,5.41-10.82,7.22-10.83,11.43-17.45,9-6,11.42-6.61,7.22,4.81,8.42,7.82-8.42,38.49-8.42,40.29,13.84-39.09,13.84-39.09,9.62,10.83,11.42,13.23-4.21-13.83-4.21-14.43-4.81-15.64-4.81-15.64l-10.22-14.44,10.22-13.23h10.23l3.61,9.63,8.42,8.42s10.82,3.61,13.23,3.61,12,.6,12,.6l-.61,15s-11.42,8.42-12.63,8.42-14.43,8.42-14.43,8.42,1.8,13.23,3,15,3,7.82,3,7.82-4.21,4.81-6,6.61-8.42,5.42-8.42,5.42l-4.81,15s-12,10.93-13.14,13.51c-.06.47-.09.63-.09.33a.82.82,0,0,1,.09-.33c.29-2.33,1.21-12.51,1.71-13.51.6-1.2,10.22-24.06,10.22-24.06l-12.63,18L812.8,228.12s-18,18-18.65,20.45-1.2-7.21-.6-8.42,3-9,3-9l10.82-23.45-14.43,6,5.41-23.46-8.42,14.44-6,9-10.23,6,4.81,11.43-9.62,6-9.62,9L740,260.6l7.82,1.21,10.83-2.41,6.61-4.21,16.24-1.8,8.42,4.81,11.43,1.2,13.83,13.23,20.45-13.83,9-3.61,4.21-11.43,16.24-18s12-5.41,12-6.62,7.22-21,7.22-21l16.84-15.63,17.44-22.26,4.21,19.25,9,16.24L952.33,192s6,4.21,7.22,3.61-15,39.69-15,39.69l15.64-6,20.45-9s0-4.21-1.81-6.62S978.79,206.47,978.79,204.67Z" fill="#383838" opacity="0.12"/><path d="M863.32,239.55C862.11,239,851.89,251,851.89,251l-8.42,12s-6.62,10.82-7.82,9.62-7.22,19.25-8.42,19.85-6,14.43-7.22,12.63,6,21.65,6,21.65l9.62-7.22,13.83-16.84,10.83-9.62c3-1.8,5.41-9.62,9-14.43s3-8.42,3.61-9.63-.6-12.63,0-13.83S875.35,245,875.35,245l1.8-11.42S864.52,240.15,863.32,239.55Z" fill="#383838" opacity="0.12"/><path d="M1168.25,263.61c-1.2-1.8-12.63-5.41-12.63-5.41l-1.81-21.66-6-9,3-10.82-3.61-3.61-5.41,4.81-1.21-13.23-6,10.82.6-21.05-10.83,4.82-19.84,7.81s-12-3-13.24-2.4-11.42,0-11.42,0l-13.84,9s4.21,12,3.61,13.83-4.81,3-12,8.42-18,9.63-19.84,10.23-25.27,21.65-26.47,21.65-18.64,12-18.64,12-16.84,27.06-17.44,28.27-18.05,18.64-18.05,18.64l-37.89,34.89,32.48-13.84,102.85-32.48L1124.34,334l73.38-28.87-14.44-25.26S1169.45,265.41,1168.25,263.61Z" fill="#383838" opacity="0.12"/><path d="M1179.07,127.08,1140,135.5l-4.81,16.84-10.23,13.84s-3.6,8.42-1.8,7.81,11.43,0,11.43,0l19.24-17.44,3.61,8.42L1140,184.22,1128.3,197.5l11.68-7.27,9,7.22,4.81,9.62,11.43,7.22,7.22,10.23,4.21,9,3.61-21s4.81-10.83,4.81-12,8.42-18,8.42-18l6.62-6,6-12.63,4.21-9.62-1.8-9.63,5.41-9v-8.42l6.61,1.81,1.81-21.66H1217Z" fill="#383838" opacity="0.12"/></g></svg>