<svg xmlns="http://www.w3.org/2000/svg" viewBox="0 0 1337.76 422.09"><title>Artboard 27</title><g id="Layer_18" data-name="Layer 18"><path d="M1285.87,263.61l-37.29-31.87-48.12-34.28-30.07-45.11-45.11-17.44-27.06-3-37.89,20.45-39.1,8.42-28.87-14.44-27.66-3-21.65-7.22s-50.53-4.21-54.74-1.2-28.86-17.45-28.86-17.45L837.19,103,798.1,89.8,750.58,57.32,711.49,50.7,655,27.85l-69.16,40.3L572.56,88.59l-27.67,18.65-8.42,13.23-34.88,6-14.44,1.2-34.88,7.22L403,123.48l-39.09-4.21L335,117.46l-15.64-10.22-16.24,16.24-12.63-9L273,121.67H252.59l-18.65,23.46L215.3,166.78l-12,11.43-7.22,14.43-17.44,6-17.44,11.43-33.08,9-27.67,18.64-22.85,8.42L63.13,262.41s-27.57,42.87-31.78,45.87l-24,40.46,14.61,1.51,17.94-3.82s131.51,18.83,137.53,21.84,82.4,7.21,88.41,12.63S403,372.48,403,372.48l117.28,30.07,108.86-22.86,47.52,22.86h87.21L830,373.68,935.83,340.6l69.77,18.64L1079,330.38l88.41,6,87.21,11.43,75.18-31.88-17.44-30.67Z" fill="#ededed"/><path d="M325.06,122c-1.8.61-5.41,5.42-5.41,5.42l-6-6-14.44,7.22L291.38,125l-9,12-4.81-10.82-27.67,14.43L242.66,134,213.8,171.89l-9,4.82-9,19.24-20.45,9.63-13.83,9.62-18.64,40.9v48.11h49.31s29.47-19.85,31.28-25.86,17.44-22.25,17.44-22.25l23.46-18.65,46.31-28.87,17.44-27.06s22.85-16.24,22.85-23.46,13.24-38.49,13.24-38.49l-27.07,7.22S326.87,121.37,325.06,122Z" fill="#383838" opacity="0.12"/><path d="M427.91,277.75c-.6-1.2,2.41-20.45,3-21.65s4.81-16.84,4.81-16.84-3-9.63-4.21-8.42-9,15-9,15l3-17.44-9.62,16.84s-6.62,16.84-7.22,15,12.63-36.09,12.63-36.09l-9.62-12.63-11.43-15,.6-15.63,4.21-3.61s-2.4-15.64-2.4-17.44,2.4-13.24,2.4-15.64,1.81-17.44,1.81-17.44l-19.25,1.8-10.22,12-3,11.43-8.42,3-28.27,33.69,2.41,9.62L335.29,208l4.81,7.22s-6.62,13.83-6.62,14.43v22.86l-5.41,14.43,8.42,15.64,2.41,21.65-4.21,8.42,12-15,6.62-1.21-1.2,10.23L360,289.78l-1.81-8.42,6-1.81,3.61,7.82-3.61,16.84s-1.81,11.43,0,10.23S375.58,310.83,375,309s-2.4-11.42-1.8-12.63,3.61-19.24,3.61-19.24l-3.61-18.65,1.8-15-.6-11.43L384,215.2l9,9.62s-1.21,9.63,0,10.83-9.63,29.47-7.82,26.46S401.45,232,401.45,232l4.81,3.61-11.43,28.27-10.83,6-4.21,15L378,295.79l5.41,6,7.82-1.81,10.23,4.21s8.42,4.21,10.82,3.61,13.84-1.2,13.84-1.2V295.79s7.81-7.82,7.81-9,2.41-12,2.41-12l6-18.64S428.51,279,427.91,277.75Z" fill="#383838" opacity="0.12"/><path d="M517.52,161.67c-1.8-.6-21.65-27.67-21.65-27.67l-3,10.23-12.63-15L453.77,137l-11.43,7.82,8.42,22.25s8.42,4.21,13.24,7.22,16.84,15,16.84,15l-2.41-32.48s16.24,13.23,16.84,15.64,17.44-5.42,17.44-5.42S519.33,162.27,517.52,161.67Z" fill="#383838" opacity="0.12"/><path d="M585.49,68.45,572.26,88.9l-27.67,18-8.42,13.23-37.89,6.62,16.24,12L517.84,165l-24.37,13.53v10.83s-7.22,6.61-6.62,7.82,7.22,11.42,7.22,11.42l11.43-7.82,7.81,5.42,4.82,16.24s3.6-11.43,4.21-12.63,9.62,1.8,9.62,1.8l-5.41-16.24,5.41-6L544.59,193s12.63-3,10.83-3.61-18.65-15-18.65-15V162.87l-2.4-11.42,10.22-18.65,9,4.81,4.81,10.83v10.82l-3,19.25,8.42-15.64,4.81,11.43v9.62l19.84,13.24,4.82,18L612,229.63s-1.2-28.26-2.4-28.87-9.63-18.64-10.83-18.64-17.44-9.62-17.44-9.62l-6-8.42-11.42-4.82,5.41-15s10.22,9,11.43,9,10.82,1.2,10.82,1.2,2.41,9,3.61,9.63,4.81-7.22,4.81-7.22l-4.81,18,11.43-21.05-5.41-9.62s-3,4.81-4.82,3-7.21-20.45-7.21-20.45l-6-13.24,1.2-6.61h21.66l18-10.83,17.44-12,4.81-18,2.41-9,3.61-7.82-3.61-4.81,6-16.84Z" fill="#383838" opacity="0.12"/><path d="M649.24,74.46,642,91.9l-12,13.23L615.56,125,618,140l-2.41,16.84s13.23-16.24,14.43-16.24,13.24-18,13.24-18,9-13.84,11.42-16.24,9.63-11.43,10.83-10.83,5.41-11.43,5.41-11.43V61.83l-10.82,18Z" fill="#383838" opacity="0.12"/><path d="M684.12,75.06c-.6,3.61-4.81,16.24-4.81,16.24v23.46l-10.22,20.45,1.8,12-10.22,20.44-6-3.6-7.21,9.62,4.81,6L640.82,202l-3.61,13.23,15-22.86,4.21,1.81,3-12,11.42-16.84v-8.42l9-21.05s4.82-21,5.42-22.26,4.81-21.65,4.81-21.65l1.8-18.64L690.14,57S684.73,71.45,684.12,75.06Z" fill="#383838" opacity="0.12"/><path d="M714.89,249.16a1,1,0,0,0-.09.32C714.8,249.78,714.83,249.62,714.89,249.16Z" fill="#383838" opacity="0.12"/><path d="M859.75,229.63c0-1.8-7.22,0-7.22,0s-8.42,8.42-9,6.62,4.81-11.43,6-12.63-3-8.42-3-8.42l-6-9-12.63-12.63-12-10.23-3-7.22s.6-6,1.21-9.62-1.81-9.62-1.81-9.62,1.81-7.22,3-8.42,6.62-8.42,6-9.62-4.81-7.22-4.81-7.22h-6l-10.23-7.82,6-24.66s-26.47,31.28-27.67,32.48,0-6.62,0-6.62l-9-12-4.81-12.63L757.5,87.69V79.87l3.61-9-9,4.81-7.22-1.8-10.22-5.41L728,66l-4.81,5.41H716.6l-8.42,14.44,3.61,12-4.21,3.61-2.41,7.81L696.75,119l6,24.66-8.42-3-10.83,16.24-8.42,10.82,1.21,7.82-5.42,13.84-12,13.83s1.81,7.82,0,7.82-21.65,49.32-21.65,49.32,19.25-24.06,20.45-24.06,4.81-10.83,4.81-10.83l8.42-10.22s5.42-11.43,6-13.23,4.81-9.63,5.41-10.83,7.22-10.82,11.43-17.44,9-6,11.42-6.62,7.22,4.81,8.43,7.82-8.43,38.49-8.43,40.3S719,176.1,719,176.1s9.62,10.83,11.43,13.24-4.21-13.84-4.21-14.44-4.82-15.64-4.82-15.64l-10.22-14.43,10.22-13.23h10.23l3.61,9.62,8.42,8.42s10.82,3.61,13.23,3.61,12,.6,12,.6l-.6,15s-11.43,8.42-12.63,8.42-14.44,8.42-14.44,8.42,1.81,13.23,3,15,3,7.82,3,7.82-4.21,4.81-6,6.62-8.42,5.41-8.42,5.41l-4.81,15s-12,10.92-13.14,13.51c-.06.46-.09.62-.09.32a1,1,0,0,1,.09-.32c.29-2.33,1.21-12.51,1.71-13.51.6-1.2,10.23-24.06,10.23-24.06l-12.63,18-20.45,23.46s-18,18-18.65,20.45-1.2-7.22-.6-8.42,3-9,3-9l10.82-23.46-14.43,6,5.41-23.45-8.42,14.43-6,9-10.23,6,4.82,11.43-9.63,6-9.62,9L621,285.57l7.82,1.2,10.83-2.41,6.61-4.21,16.24-1.8,8.42,4.81,11.43,1.2,13.83,13.24,20.45-13.84,9-3.61,4.21-11.42,16.24-18.05s12-5.41,12-6.61,7.22-21,7.22-21l16.84-15.64,17.44-22.25,4.21,19.24,9,16.24L833.28,217s6,4.21,7.22,3.61-15,39.7-15,39.7l15.64-6,20.45-9s0-4.21-1.8-6.62S859.75,231.44,859.75,229.63Z" fill="#383838" opacity="0.12"/><path d="M744.27,264.52c-1.2-.6-11.43,11.42-11.43,11.42l-8.42,12s-6.61,10.83-7.82,9.63-7.21,19.24-8.42,19.84-6,14.44-7.22,12.63,6,21.66,6,21.66l9.62-7.22,13.84-16.84,10.82-9.62c3-1.81,5.41-9.63,9-14.44s3-8.42,3.61-9.62-.6-12.63,0-13.84,2.41-10.22,2.41-10.22l1.8-11.43S745.47,265.12,744.27,264.52Z" fill="#383838" opacity="0.12"/><path d="M1049.2,288.57c-1.2-1.8-12.63-5.41-12.63-5.41l-1.8-21.65-6-9,3-10.83-3.61-3.61-5.41,4.81-1.21-13.23-6,10.83.6-21.05-10.82,4.81L985.45,232s-12-3-13.23-2.41-11.43,0-11.43,0l-13.83,9s4.21,12,3.6,13.84-4.81,3-12,8.42-18,9.62-19.85,10.22-25.26,21.65-26.47,21.65-18.64,12-18.64,12-16.84,27.07-17.44,28.27-18,18.65-18,18.65L800.2,386.61l32.48-13.83L935.53,340.3l69.77,18.64,73.37-28.87-14.43-25.26S1050.4,290.38,1049.2,288.57Z" fill="#383838" opacity="0.12"/><path d="M1060,152.05l-39.1,8.42-4.81,16.84-10.22,13.83s-3.61,8.42-1.81,7.82,11.43,0,11.43,0l19.25-17.44,3.6,8.42-17.44,19.24-11.68,13.28,11.68-7.26,9,7.22,4.82,9.62,11.42,7.22,7.22,10.22,4.21,9,3.61-21.05s4.81-10.82,4.81-12,8.42-18,8.42-18l6.62-6,6-12.63,4.21-9.63-1.8-9.62,5.41-9v-8.42l6.62,1.8,1.8-21.65h-5.41Z" fill="#383838" opacity="0.12"/></g></svg>