<svg xmlns="http://www.w3.org/2000/svg" viewBox="0 0 2621.08 1273.92"><title>Artboard 26</title><g id="Layer_18" data-name="Layer 18"><path d="M2621.08,1273.92V674.32C2208.37,608.43,1713.31,570.05,1181,570.05c-425.07,0-826.4,24.47-1181,67.89v636Z" fill="#788c41"/><path d="M398.13,646a11.8,11.8,0,0,1-4.19-7.94,2.68,2.68,0,0,0-.42-1.54c-.34-.42-1.15-.48-1.35,0a1.15,1.15,0,0,0,0,.49l.22,3.87-.84-1.45a7.57,7.57,0,0,1-.77,5.89c-.95,1.35-2.63,2.35-2.77,4a27.5,27.5,0,0,1,8-.9,2.25,2.25,0,0,1,1.8.51c.17.19.27.43.45.6a1.07,1.07,0,0,0,1.59-.44,1.84,1.84,0,0,0-.31-1.81A7.7,7.7,0,0,0,398.13,646Z" fill="#56412d"/><path d="M407,611.14a14.7,14.7,0,0,1-6.13-8.79,43.67,43.67,0,0,1-1.13-10.89c-.4,1.9-.81,3.82-1.35,5.68a73.9,73.9,0,0,0,5.65,15.54A21.29,21.29,0,0,0,407,611.14Z" fill="#61825d"/><path d="M398.2,614.25a21,21,0,0,0,5.67-1.49l-14-2.81c-3,3.4-7.14,5.68-11.48,4.93A8.61,8.61,0,0,0,389,613.64c.27,2.57-1.6,4.88-3.68,6.42s-4.5,2.67-6.2,4.63a8.43,8.43,0,0,0,8.32-1,21.36,21.36,0,0,1-7.31,10.72,12.18,12.18,0,0,0,7.32-.75,15.16,15.16,0,0,1-8.58,7.34,14.55,14.55,0,0,0,15-1.68c1.14,5.17,8.18,7.93,12.53,4.91a15.05,15.05,0,0,1-8.53-9.28,6.72,6.72,0,0,0,8.77-1,13.09,13.09,0,0,1-8.14-9.31,5.91,5.91,0,0,0,8.64-.78A54.79,54.79,0,0,1,398.2,614.25Z" fill="#61825d"/><path d="M387.44,609.46l2.42.49a19,19,0,0,0,1.59-2.1A10.46,10.46,0,0,1,387.44,609.46Z" fill="#61825d"/><path d="M404.12,612.81l-.06-.13-.19.08Z" fill="#61825d"/><path d="M404.06,612.68a73.9,73.9,0,0,1-5.65-15.54,25.13,25.13,0,0,1-2.15,5.36,15.1,15.1,0,0,1-4.81,5.35,19,19,0,0,1-1.59,2.1l14,2.81Z" fill="#61825d"/><path d="M396.26,602.5a25.13,25.13,0,0,0,2.15-5.36,75.27,75.27,0,0,1-1.58-8.81c-1.24,5.89-1.66,12.07-4.26,17.51a19,19,0,0,1-1.12,2A15.1,15.1,0,0,0,396.26,602.5Z" fill="#61825d"/><path d="M376.6,643.13a.49.49,0,0,1,0,.12,1.44,1.44,0,0,0,.3.24Z" fill="#56412d"/><path d="M381.52,647.72a5.55,5.55,0,0,1-.35-1.33c-.27-1.58-.55-3.16-.82-4.74a.67.67,0,0,0-.1-.28c-.22-.23-.58.07-.88.18-.57.23-1.16-.28-1.77-.33a1.24,1.24,0,0,0-1.27.85,1.27,1.27,0,0,0,.28,1.18.49.49,0,0,0,0-.12l.31.36a1.44,1.44,0,0,1-.3-.24,7.43,7.43,0,0,1-.67,4.76,10.58,10.58,0,0,1-2.83,2.53,5.13,5.13,0,0,0-2.27,3l3.3-2.13c.82-.53,1.82-1.07,2.69-.66a2.56,2.56,0,0,0,.64.27c.71.08,1-1,1.61-1.3s1.37.09,1.94.51l3.19,2.32a2.54,2.54,0,0,0-.8-2.61A8.64,8.64,0,0,1,381.52,647.72Z" fill="#56412d"/><path d="M369.4,612.81c.44-.74.86-1.49,1.27-2.25a11.69,11.69,0,0,0,.27-2.44Z" fill="#435440"/><path d="M384.59,634.21c3.34,1.68,7.21,3.39,10.68,2q-6.36-6.19-12.12-13a14,14,0,0,0,8.42,1.75c-4.73-2.49-8.27-6.83-10.71-11.59s-3.89-9.94-5.32-15.09a57.17,57.17,0,0,1-4.87,12.27,16.25,16.25,0,0,1-3.66,7.08,39.57,39.57,0,0,1-8.05,6.69,51.25,51.25,0,0,0,14.63-.46,19.39,19.39,0,0,1-16.24,10.72,26.89,26.89,0,0,0,15.76,1.33,26.48,26.48,0,0,1-20.05,9.33c7.58,5.8,19.64,4.49,25.8-2.8a37.62,37.62,0,0,0,21.91,4.67A66.2,66.2,0,0,1,384.59,634.21Z" fill="#435440"/><path d="M415.44,641.39a5.35,5.35,0,0,1-.35-1.32c-.27-1.58-.54-3.16-.82-4.74a.45.45,0,0,0-.1-.28c-.22-.24-.57.06-.87.18-.57.23-1.17-.28-1.78-.34a1.2,1.2,0,0,0-1,2,.45.45,0,0,1,0-.11l.3.35a1,1,0,0,1-.29-.24,7.43,7.43,0,0,1-.68,4.76,10.41,10.41,0,0,1-2.83,2.53,5.23,5.23,0,0,0-2.27,3l3.31-2.14c.81-.52,1.81-1.06,2.69-.66a1.94,1.94,0,0,0,.63.27c.71.08,1-1,1.61-1.3s1.37.09,1.94.51l3.19,2.32a2.55,2.55,0,0,0-.8-2.61A8.84,8.84,0,0,1,415.44,641.39Z" fill="#56412d"/><path d="M410.53,636.81a.45.45,0,0,0,0,.11,1,1,0,0,0,.29.24Z" fill="#56412d"/><path d="M403.32,606.48c.45-.73.87-1.49,1.27-2.25a11.67,11.67,0,0,0,.27-2.43Z" fill="#435440"/><path d="M418.51,627.89c3.35,1.67,7.21,3.38,10.68,2q-6.36-6.21-12.11-13a13.89,13.89,0,0,0,8.42,1.75c-4.73-2.49-8.28-6.83-10.72-11.58s-3.89-9.95-5.32-15.1a56.76,56.76,0,0,1-4.87,12.27,16.34,16.34,0,0,1-3.65,7.08,39.31,39.31,0,0,1-8.06,6.69,51.6,51.6,0,0,0,14.63-.45,19.37,19.37,0,0,1-16.24,10.71A26.89,26.89,0,0,0,407,629.59a26.44,26.44,0,0,1-20,9.33c7.58,5.8,19.64,4.49,25.8-2.8a37.48,37.48,0,0,0,21.92,4.67A66.44,66.44,0,0,1,418.51,627.89Z" fill="#435440"/><path d="M439.54,630.85a.49.49,0,0,1,0,.12,1.38,1.38,0,0,0,.3.24Z" fill="#56412d"/><path d="M444.46,635.44a5.55,5.55,0,0,1-.35-1.33c-.27-1.58-.54-3.16-.82-4.74a.48.48,0,0,0-.1-.28c-.22-.23-.58.07-.87.18-.57.23-1.17-.28-1.78-.33a1.24,1.24,0,0,0-1.27.85,1.27,1.27,0,0,0,.28,1.18.49.49,0,0,0,0-.12l.31.36a1.38,1.38,0,0,1-.3-.24,7.37,7.37,0,0,1-.67,4.76,10.58,10.58,0,0,1-2.83,2.53,5.18,5.18,0,0,0-2.27,3l3.31-2.13c.81-.53,1.81-1.07,2.69-.66a2.5,2.5,0,0,0,.63.27c.71.08,1-1,1.61-1.3s1.37.09,1.94.51l3.19,2.32a2.54,2.54,0,0,0-.8-2.61A8.84,8.84,0,0,1,444.46,635.44Z" fill="#56412d"/><path d="M432.34,600.53c.45-.74.86-1.49,1.27-2.25a11.69,11.69,0,0,0,.27-2.44Z" fill="#435440"/><path d="M447.53,621.93c3.34,1.68,7.21,3.39,10.68,2q-6.36-6.2-12.11-13a13.94,13.94,0,0,0,8.41,1.75c-4.73-2.49-8.27-6.83-10.71-11.59s-3.89-9.94-5.32-15.09a57,57,0,0,1-4.87,12.27,16.34,16.34,0,0,1-3.65,7.08,39.63,39.63,0,0,1-8.06,6.69,51.25,51.25,0,0,0,14.63-.46,19.39,19.39,0,0,1-16.24,10.72,26.89,26.89,0,0,0,15.76,1.33A26.48,26.48,0,0,1,416,633c7.58,5.8,19.64,4.49,25.8-2.8a37.62,37.62,0,0,0,21.91,4.67A66.39,66.39,0,0,1,447.53,621.93Z" fill="#435440"/><path d="M1743,622.42a11.8,11.8,0,0,1-4.19-7.94,2.74,2.74,0,0,0-.42-1.55c-.34-.42-1.15-.47-1.35,0a1.2,1.2,0,0,0,0,.5l.22,3.87-.84-1.45a7.57,7.57,0,0,1-.77,5.89c-1,1.35-2.63,2.35-2.77,4a27.85,27.85,0,0,1,8.05-.9,2.29,2.29,0,0,1,1.8.51,6.7,6.7,0,0,0,.45.6,1.06,1.06,0,0,0,1.59-.44,1.85,1.85,0,0,0-.31-1.81A8,8,0,0,0,1743,622.42Z" fill="#56412d"/><path d="M1751.92,587.52c-3.14-1.88-5.14-5.26-6.13-8.79a43.54,43.54,0,0,1-1.13-10.88c-.4,1.9-.81,3.81-1.35,5.68a74.11,74.11,0,0,0,5.65,15.54A20.84,20.84,0,0,0,1751.92,587.52Z" fill="#61825d"/><path d="M1732.34,585.85l2.42.49a20.43,20.43,0,0,0,1.59-2.11A10.64,10.64,0,0,1,1732.34,585.85Z" fill="#61825d"/><path d="M1749,589.2l-.06-.13-.19.08Z" fill="#61825d"/><path d="M1749,589.07a74.11,74.11,0,0,1-5.65-15.54,25.67,25.67,0,0,1-2.15,5.36,15.16,15.16,0,0,1-4.81,5.34,20.43,20.43,0,0,1-1.59,2.11l14,2.81Z" fill="#61825d"/><path d="M1741.16,578.89a25.67,25.67,0,0,0,2.15-5.36,75.43,75.43,0,0,1-1.58-8.82c-1.24,5.9-1.66,12.08-4.26,17.52a20.75,20.75,0,0,1-1.12,2A15.16,15.16,0,0,0,1741.16,578.89Z" fill="#61825d"/><path d="M1743.1,590.64a21.38,21.38,0,0,0,5.67-1.49l-14-2.81c-3,3.4-7.14,5.68-11.48,4.92A8.6,8.6,0,0,0,1733.9,590c.27,2.57-1.61,4.89-3.68,6.43s-4.5,2.67-6.2,4.62a8.41,8.41,0,0,0,8.32-1,21.42,21.42,0,0,1-7.32,10.72,12.21,12.21,0,0,0,7.33-.76,15.18,15.18,0,0,1-8.58,7.35,14.57,14.57,0,0,0,15-1.68c1.14,5.17,8.18,7.92,12.52,4.9a15,15,0,0,1-8.52-9.27,6.72,6.72,0,0,0,8.77-1,13.06,13.06,0,0,1-8.14-9.3,5.92,5.92,0,0,0,8.64-.78A54.79,54.79,0,0,1,1743.1,590.64Z" fill="#61825d"/><path d="M1755.42,613.19s0,.08,0,.12a1.13,1.13,0,0,0,.29.24Z" fill="#56412d"/><path d="M1760.34,617.78a5.55,5.55,0,0,1-.35-1.33c-.27-1.58-.54-3.16-.82-4.74a.48.48,0,0,0-.1-.28c-.22-.23-.58.07-.87.19-.57.22-1.17-.29-1.78-.34a1.2,1.2,0,0,0-1,2s0-.08,0-.12l.31.36a1.13,1.13,0,0,1-.29-.24,7.43,7.43,0,0,1-.68,4.76,10.41,10.41,0,0,1-2.83,2.53,5.18,5.18,0,0,0-2.27,2.95l3.31-2.13c.81-.53,1.81-1.07,2.69-.66a2.5,2.5,0,0,0,.63.27c.71.08,1-1,1.61-1.3s1.37.09,1.94.51l3.19,2.32a2.55,2.55,0,0,0-.8-2.61A8.84,8.84,0,0,1,1760.34,617.78Z" fill="#56412d"/><path d="M1748.22,582.87c.45-.74.86-1.49,1.27-2.25a11.69,11.69,0,0,0,.27-2.44Z" fill="#435440"/><path d="M1763.41,604.27c3.34,1.68,7.21,3.39,10.68,2q-6.36-6.19-12.11-13a13.94,13.94,0,0,0,8.41,1.75c-4.72-2.49-8.27-6.83-10.71-11.59s-3.89-9.94-5.32-15.09a57,57,0,0,1-4.87,12.27,16.34,16.34,0,0,1-3.65,7.08,39.63,39.63,0,0,1-8.06,6.69,51.25,51.25,0,0,0,14.63-.46,19.39,19.39,0,0,1-16.24,10.72,26.89,26.89,0,0,0,15.76,1.33,26.48,26.48,0,0,1-20,9.33c7.58,5.8,19.64,4.49,25.8-2.8a37.54,37.54,0,0,0,21.91,4.67A66.39,66.39,0,0,1,1763.41,604.27Z" fill="#435440"/><path d="M1784.44,607.24a.45.45,0,0,1,0,.11,1,1,0,0,0,.3.24Z" fill="#56412d"/><path d="M1789.36,611.82a5.35,5.35,0,0,1-.35-1.32c-.27-1.58-.55-3.16-.82-4.74a.63.63,0,0,0-.1-.28c-.22-.23-.58.06-.87.18-.58.23-1.17-.28-1.78-.34a1.21,1.21,0,0,0-1,2,.45.45,0,0,0,0-.11l.31.35a1,1,0,0,1-.3-.24,7.37,7.37,0,0,1-.67,4.76,10.41,10.41,0,0,1-2.83,2.53,5.23,5.23,0,0,0-2.27,3l3.31-2.14c.81-.52,1.81-1.06,2.68-.66a2.27,2.27,0,0,0,.64.28c.71.07,1-1,1.61-1.31s1.37.1,1.94.51l3.19,2.32a2.53,2.53,0,0,0-.8-2.6A9.07,9.07,0,0,1,1789.36,611.82Z" fill="#56412d"/><path d="M1777.24,576.92c.44-.74.86-1.5,1.27-2.25a11.77,11.77,0,0,0,.27-2.44Z" fill="#435440"/><path d="M1792.43,598.32c3.34,1.68,7.21,3.39,10.68,2q-6.36-6.19-12.12-13a13.84,13.84,0,0,0,8.42,1.75c-4.73-2.48-8.27-6.83-10.71-11.58s-3.89-9.94-5.32-15.09a57.17,57.17,0,0,1-4.87,12.27,16.16,16.16,0,0,1-3.66,7.07,39.35,39.35,0,0,1-8,6.7,51.62,51.62,0,0,0,14.63-.46,19.41,19.41,0,0,1-16.24,10.72A27,27,0,0,0,1781,600a26.49,26.49,0,0,1-20,9.34c7.58,5.8,19.64,4.48,25.8-2.81a37.55,37.55,0,0,0,21.91,4.68A66.62,66.62,0,0,1,1792.43,598.32Z" fill="#435440"/><path d="M332.22,646.56a.49.49,0,0,1,0,.12,1.17,1.17,0,0,0,.3.24Z" fill="#56412d"/><path d="M337.14,651.15a5.55,5.55,0,0,1-.35-1.33c-.27-1.58-.55-3.16-.82-4.74a.67.67,0,0,0-.1-.28c-.22-.23-.58.07-.87.18-.58.23-1.17-.28-1.78-.33a1.24,1.24,0,0,0-1.27.85,1.27,1.27,0,0,0,.28,1.18.49.49,0,0,0,0-.12l.31.36a1.17,1.17,0,0,1-.3-.24,7.37,7.37,0,0,1-.67,4.76,10.58,10.58,0,0,1-2.83,2.53,5.18,5.18,0,0,0-2.27,2.95l3.31-2.13c.81-.53,1.81-1.07,2.68-.66a2.56,2.56,0,0,0,.64.27c.71.08,1-1,1.61-1.3s1.37.09,1.94.51l3.19,2.32a2.55,2.55,0,0,0-.8-2.61A8.64,8.64,0,0,1,337.14,651.15Z" fill="#56412d"/><path d="M325,616.24c.44-.74.86-1.49,1.27-2.25a11.69,11.69,0,0,0,.27-2.44Z" fill="#435440"/><path d="M340.21,637.64c3.34,1.68,7.21,3.39,10.68,2q-6.36-6.2-12.12-13a14,14,0,0,0,8.42,1.75c-4.73-2.49-8.27-6.83-10.71-11.59s-3.89-9.94-5.32-15.09A57,57,0,0,1,326.29,614a16.25,16.25,0,0,1-3.66,7.08,39.3,39.3,0,0,1-8.05,6.69,51.25,51.25,0,0,0,14.63-.46A19.39,19.39,0,0,1,313,638a26.89,26.89,0,0,0,15.76,1.33,26.48,26.48,0,0,1-20.05,9.33c7.58,5.8,19.64,4.49,25.8-2.8a37.54,37.54,0,0,0,21.91,4.67A66.39,66.39,0,0,1,340.21,637.64Z" fill="#435440"/><path d="M1735,575.16l-37.29-31.88L1649.6,509l-30.07-45.11-45.11-17.44-27.06-3-37.9,20.45-39.09,8.42-28.87-14.43-27.67-3-21.65-7.22s-50.52-4.21-54.73-1.2S1308.58,429,1308.58,429l-22.25-14.44-39.1-13.23-47.51-32.48-39.09-6.61-56.54-22.86-69.16,40.3-13.24,20.45L994,418.78,985.61,432l-34.89,6-14.43,1.2-34.89,7.22L852.09,435,813,430.81,784.12,429l-15.63-10.23L752.25,435l-12.63-9-17.45,7.22H701.73l-18.65,23.45-18.64,21.66-12,11.42-7.22,14.44-17.44,6-17.44,11.43-33.08,9L549.56,549.3l-22.85,8.42L512.27,574s-59.54,28.86-63.75,31.87l-98.64,49.32,26.46,18.64L481.6,663.57s138.93,13.23,144.95,16.24S708.94,687,715,692.44,852.09,684,852.09,684l117.28,30.07,108.86-22.85,47.51,22.85H1213l66.16-28.87L1385,652.14l69.76,18.65,73.38-28.87,88.41,6,87.21,11.43,75.18-31.88-17.44-30.67Z" fill="#bcbcbc"/><path d="M774.2,433.52c-1.8.6-5.41,5.41-5.41,5.41l-6-6-14.43,7.21-7.82-3.61-9,12-4.81-10.82L699,452.16l-7.22-6.61-28.87,37.89-9,4.81-9,19.25-20.45,9.62-13.83,9.62L592,567.64v48.11h49.32s29.47-19.84,31.28-25.86S690,567.64,690,567.64L713.45,549l46.31-28.87,17.45-27.07s22.85-16.24,22.85-23.46,13.23-38.49,13.23-38.49l-27.06,7.22S776,432.92,774.2,433.52Z" fill="#383838" opacity="0.12"/><path d="M877.05,589.29c-.61-1.2,2.4-20.45,3-21.65s4.82-16.84,4.82-16.84-3-9.62-4.21-8.42-9,15-9,15l3-17.45L865,556.81s-6.62,16.84-7.22,15,12.63-36.09,12.63-36.09l-9.62-12.63-11.43-15,.6-15.64,4.21-3.61s-2.4-15.64-2.4-17.44,2.4-13.23,2.4-15.64S856,438.33,856,438.33l-19.25,1.8-10.22,12-3,11.43-8.42,3-28.27,33.68,2.41,9.62-4.82,9.62,4.82,7.22s-6.62,13.83-6.62,14.44V564l-5.41,14.44,8.42,15.63,2.4,21.65-4.21,8.43,12-15,6.62-1.2-1.21,10.22,7.82-16.84-1.8-8.42,6-1.8,3.61,7.81-3.61,16.84s-1.8,11.43,0,10.23,11.43-3.61,10.83-5.41-2.41-11.43-1.8-12.63,3.6-19.25,3.6-19.25l-3.6-18.64,1.8-15-.6-11.43,9.62-16.84,9,9.62s-1.2,9.63,0,10.83-9.62,29.47-7.82,26.46,16.24-30.07,16.24-30.07l4.81,3.61L844,575.46l-10.83,6-4.21,15-1.8,10.82,5.41,6,7.82-1.81,10.22,4.21s8.42,4.22,10.83,3.61,13.83-1.2,13.83-1.2V607.33s7.82-7.81,7.82-9,2.41-12,2.41-12l6-18.64S877.65,590.49,877.05,589.29Z" fill="#383838" opacity="0.12"/><path d="M966.66,473.21c-1.8-.6-21.65-27.66-21.65-27.66l-3,10.22-12.63-15-26.46,7.81-11.43,7.82,8.42,22.26s8.42,4.21,13.23,7.21,16.84,15,16.84,15l-2.4-32.48s16.24,13.23,16.84,15.64,17.44-5.41,17.44-5.41S968.47,473.81,966.66,473.21Z" fill="#383838" opacity="0.12"/><path d="M1034.62,380l-13.23,20.45-27.66,18-8.42,13.23-37.89,6.62,16.23,12L967,476.52,942.6,490.05v10.83s-7.21,6.62-6.61,7.82,7.22,11.43,7.22,11.43l11.42-7.82,7.82,5.41L967.26,534s3.61-11.43,4.21-12.63,9.63,1.8,9.63,1.8l-5.42-16.24,5.42-6,12.63,3.61s12.63-3,10.82-3.61-18.64-15-18.64-15V474.42L983.5,463l10.23-18.65,9,4.82,4.81,10.82v10.83l-3,19.24,8.42-15.63,4.81,11.42v9.63l19.85,13.23,4.81,18,18.65,14.44s-1.2-28.27-2.41-28.87-9.62-18.65-10.82-18.65-17.45-9.62-17.45-9.62l-6-8.42L1013,470.81l5.42-15s10.22,9,11.42,9,10.83,1.21,10.83,1.21,2.4,9,3.61,9.62,4.81-7.22,4.81-7.22l-4.81,18,11.43-21.05-5.42-9.62s-3,4.81-4.81,3-7.22-20.45-7.22-20.45l-6-13.23,1.2-6.62h21.65l18-10.82,17.44-12,4.81-18.05,2.41-9,3.6-7.82-3.6-4.81,6-16.84Z" fill="#383838" opacity="0.12"/><path d="M1098.38,386l-7.22,17.45-12,13.23-14.43,19.84,2.4,15-2.4,16.84s13.23-16.24,14.43-16.24,13.23-18,13.23-18,9-13.83,11.43-16.24,9.62-11.43,10.83-10.83,5.41-11.42,5.41-11.42V373.37l-10.83,18.05Z" fill="#383838" opacity="0.12"/><path d="M1133.26,386.6c-.6,3.61-4.81,16.24-4.81,16.24V426.3l-10.22,20.45,1.8,12-10.22,20.45-6-3.61-7.22,9.62,4.81,6L1090,513.51l-3.61,13.23,15-22.85,4.21,1.8,3-12L1120,476.82V468.4l9-21s4.81-21.05,5.41-22.25,4.82-21.65,4.82-21.65l1.8-18.65-1.8-16.24S1133.86,383,1133.26,386.6Z" fill="#383838" opacity="0.12"/><path d="M1164,560.7a.87.87,0,0,0-.1.32C1163.93,561.33,1164,561.17,1164,560.7Z" fill="#383838" opacity="0.12"/><path d="M1308.88,541.18c0-1.81-7.21,0-7.21,0s-8.42,8.42-9,6.61,4.82-11.43,6-12.63-3-8.42-3-8.42l-6-9L1277,505.09l-12-10.22-3-7.22s.6-6,1.2-9.63-1.8-9.62-1.8-9.62,1.8-7.22,3-8.42,6.61-8.42,6-9.62-4.81-7.22-4.81-7.22h-6l-10.22-7.82,6-24.66s-26.46,31.28-27.66,32.48,0-6.62,0-6.62l-9-12-4.82-12.63-7.21-12.63v-7.82l3.61-9-9,4.81L1194,385.4,1183.78,380l-6.61-2.41-4.81,5.42h-6.62l-8.42,14.43,3.61,12-4.21,3.61-2.41,7.82-8.42,9.62,6,24.66-8.42-3-10.83,16.24-8.42,10.83,1.2,7.82L1120,500.88l-12,13.83s1.81,7.82,0,7.82-21.65,49.32-21.65,49.32,19.24-24.06,20.45-24.06,4.81-10.82,4.81-10.82l8.42-10.23s5.41-11.43,6-13.23,4.82-9.62,5.42-10.83,7.21-10.82,11.42-17.44,9-6,11.43-6.61,7.22,4.81,8.42,7.81-8.42,38.5-8.42,40.3,13.84-39.09,13.84-39.09,9.62,10.82,11.42,13.23-4.21-13.83-4.21-14.44-4.81-15.63-4.81-15.63l-10.22-14.44,10.22-13.23h10.23l3.6,9.62,8.42,8.42s10.83,3.61,13.24,3.61,12,.6,12,.6l-.6,15s-11.42,8.42-12.63,8.42-14.43,8.42-14.43,8.42,1.8,13.23,3,15,3,7.82,3,7.82-4.21,4.81-6,6.61-8.42,5.41-8.42,5.41l-4.81,15s-12,10.92-13.14,13.51c-.06.47-.1.63-.1.32a.87.87,0,0,1,.1-.32c.29-2.33,1.21-12.51,1.71-13.51.6-1.2,10.22-24.06,10.22-24.06l-12.63,18-20.45,23.45s-18,18-18.64,20.45-1.2-7.22-.6-8.42,3-9,3-9l10.82-23.46-14.43,6,5.41-23.46L1120,541.18l-6,9-10.23,6,4.81,11.43-9.62,6-9.62,9-19.25,14.43,7.82,1.2,10.82-2.4,6.62-4.21,16.24-1.81,8.42,4.81,11.43,1.21,13.83,13.23,20.45-13.83,9-3.61,4.21-11.43,16.24-18s12-5.42,12-6.62,7.22-21.05,7.22-21.05l16.84-15.64,17.44-22.25,4.21,19.25,9,16.23,20.45-3.6s6,4.21,7.22,3.6-15,39.7-15,39.7l15.64-6,20.45-9s0-4.21-1.81-6.61S1308.88,543,1308.88,541.18Z" fill="#383838" opacity="0.12"/><path d="M1193.41,576.06c-1.21-.6-11.43,11.43-11.43,11.43l-8.42,12s-6.62,10.82-7.82,9.62-7.22,19.25-8.42,19.85-6,14.43-7.22,12.63,6,21.65,6,21.65l9.62-7.22,13.83-16.84,10.83-9.62c3-1.81,5.41-9.62,9-14.44s3-8.42,3.61-9.62-.6-12.63,0-13.83,2.4-10.23,2.4-10.23l1.81-11.42S1194.61,576.66,1193.41,576.06Z" fill="#383838" opacity="0.12"/><path d="M1498.34,600.12c-1.21-1.81-12.63-5.42-12.63-5.42l-1.81-21.65-6-9,3-10.82-3.61-3.61-5.42,4.81-1.2-13.23-6,10.82.6-21-10.83,4.81-19.85,7.82s-12-3-13.23-2.4-11.42,0-11.42,0l-13.84,9s4.21,12,3.61,13.83-4.81,3-12,8.42-18,9.62-19.85,10.23-25.26,21.65-26.46,21.65-18.64,12-18.64,12-16.84,27.06-17.45,28.26-18,18.65-18,18.65l-37.89,34.88,32.48-13.83,102.84-32.48,69.77,18.65,73.38-28.87-14.44-25.26S1499.54,601.92,1498.34,600.12Z" fill="#383838" opacity="0.12"/><path d="M1509.16,463.59,1470.07,472l-4.81,16.84L1455,502.68s-3.61,8.42-1.8,7.82,11.43,0,11.43,0l19.24-17.44,3.61,8.42-17.44,19.25L1458.39,534l11.68-7.27,9,7.22,4.81,9.62,11.43,7.22,7.22,10.22,4.21,9,3.61-21s4.81-10.83,4.81-12,8.42-18.05,8.42-18.05l6.61-6,6-12.63,4.21-9.63-1.81-9.62,5.42-9v-8.42l6.61,1.8,1.81-21.65h-5.42Z" fill="#383838" opacity="0.12"/><path d="M321.91,786.73c4,.53,8,1.07,12,1.91l1.44-.66Z" fill="#95d0d8"/><path d="M321.91,788.23c2.88.38,5.75.77,8.61,1.28,2.4.43,3.39.79,5.57-.24,1.48-.7.57-2.67-.75-2.79l-13.43-1.25c-1.92-.18-1.91,2.83,0,3l13.43,1.25-.76-2.8c-1.68.8-4.44-.28-6.26-.56-2.13-.32-4.27-.61-6.41-.89C320,785,320,788,321.91,788.23Z" fill="#95d0d8"/><path d="M790.7,781.22c-5.91-1-12-.5-17.92-.08a651.32,651.32,0,0,1-133.64-4.53c-16.46-2.26-33-5.17-49.59-3.64-13.24,1.23-26,5.26-39.18,7.36-26.94,4.3-54.47.38-81.37-4.22-24.68-4.22-49.29-9-74.18-11.71a442.82,442.82,0,0,0-50.05-2.57c-25.29.14-52.25,3.1-71.89,19,16.77,13.61,41.37,16.68,61,7.78-3.95-.84-8-1.38-12-1.91L335.34,788l-1.44.66a49.34,49.34,0,0,1,12.9,4.42c7.62,4,14,11.52,14.2,20.13.29,12.7-12.54,22-25,24.67s-25.5,1-37.86,4c-8,1.92-15.4,5.7-23.13,8.49-30.26,10.91-64.27,6.28-94.9,16.08-8.53,2.73-17.69,7.73-19.58,16.47-1.94,9,4.73,17.47,11.67,23.5,25.39,22,59.45,31.46,92.86,35.18,10.92,1.21,22.14,1.86,32.76-.95,8.76-2.33,16.8-6.94,25.61-9,11.5-2.74,23.53-1,35.23.68L409,939.62c12.09,1.78,24.36,3.55,36.47,2,16.87-2.16,32.21-10.57,47.08-18.82l40.63-22.56c9.58-5.32,19.44-10.74,30.29-12.28,11.94-1.69,24,1.44,36,2.68,15.25,1.56,30.62,0,45.87-1.49,18.11-1.81,37.94-4.45,50.22-17.88,3.43-3.75,6.21-8.3,10.62-10.83,4-2.28,8.76-2.6,13.33-3.09,11.84-1.28,24.07-4.44,32.77-12.57,9.2-8.6,14.35-22.5,26.36-26.3,7.33-2.32,15.24-.07,22.93,0s16.82-3.83,17.58-11.49c.4-4-1.74-7.89-4.25-11.08A39.65,39.65,0,0,0,790.7,781.22Z" fill="#95d0d8"/><path d="M791.09,779.77c-8.07-1.15-16.11-.24-24.21.25q-13.26.79-26.57,1.05-27.07.51-54.14-1.22c-18.81-1.21-37.48-3.41-56.14-6-16.46-2.32-32.82-4-49.34-1.17-18,3-35.11,7.87-53.53,8s-36.74-2.47-54.88-5.53c-34.36-5.79-68.52-12.58-103.41-14.29-32.53-1.59-70.13-2.35-97.06,18.94a1.51,1.51,0,0,0,0,2.12,61.9,61.9,0,0,0,62.85,8,1.51,1.51,0,0,0-.36-2.74c-4.11-.83-8.24-1.42-12.39-2v3l13.43,1.25-.76-2.8-1.44.67a1.52,1.52,0,0,0,.36,2.74c9,2,18,5.67,23.09,13.85,4.89,7.91,3.06,17-3.38,23.37-13.28,13.13-33.07,9.57-49.9,12-9,1.31-17,5-25.37,8.29a126.17,126.17,0,0,1-25.71,6.84c-18.28,3-36.91,3.16-55.17,6.34C184.71,863,166.34,866.2,160.31,879c-6.27,13.32,6.76,25.52,16.27,32.82,26.47,20.31,60.37,28.7,93.08,31.67,8.93.81,18,1,26.82-1s16.87-6.62,25.63-9c10.08-2.76,20.59-1.9,30.81-.53s20.36,3,30.54,4.45c18.7,2.74,38.26,7.34,57.24,6.18,17.63-1.07,33.55-9,48.77-17.33,16.88-9.29,33.56-19,50.58-28,8.82-4.69,18.05-8.69,28.16-9.16,9.55-.45,19,1.61,28.39,2.77,18.9,2.32,38.29.27,57.1-2.09,14-1.74,28.73-4.75,39.67-14.25A77.56,77.56,0,0,0,701,867a20.68,20.68,0,0,1,13.47-7.59c8-1.24,16-1.81,23.66-4.63a43.8,43.8,0,0,0,17.05-10.9c4.88-5.18,8.45-11.42,13.26-16.65,6.76-7.37,14.42-8.83,24.14-8,6.82.61,13.57,1.31,19.93-1.83,5-2.44,8.59-7,8-12.77-.66-6.6-6.15-12.4-11-16.39a41,41,0,0,0-18.43-8.55c-1.88-.36-2.69,2.54-.79,2.9a38.68,38.68,0,0,1,21.53,11.94c3.14,3.43,6.72,8.23,5.64,13.19-1,4.33-5.22,6.9-9.16,8.13-8.29,2.59-17-.72-25.41.19a25.07,25.07,0,0,0-15.17,7.58c-4.88,4.83-8.39,10.83-12.82,16a42.18,42.18,0,0,1-19.75,12.93c-7.81,2.5-15.88,2.51-23.81,4.28-7.37,1.65-11.15,6.66-15.87,12.1-10.84,12.5-27.61,16-43.32,17.85-18,2.14-36.5,4.11-54.61,2-9.44-1.1-18.85-3.23-28.4-2.94a59.18,59.18,0,0,0-22,5.4c-16.74,7.36-32.55,17.48-48.53,26.35-15.6,8.66-31.4,18.33-49.16,21.74-19.48,3.73-40.05-1.31-59.36-4.14l-29-4.25c-8.78-1.29-17.63-2.72-26.53-2.43-18,.6-33,11.87-51.07,12.39-17.38.5-35.51-2.76-52.29-7.1-15.82-4.09-31.23-10.13-45-19-11.93-7.71-35.74-26.19-18.26-40.65,6.16-5.1,14.5-7.24,22.12-9a210.07,210.07,0,0,1,27-4c17.29-1.67,34.87-2.51,51.66-7.3,8.25-2.36,15.93-6.15,24-8.92,9.12-3.13,18.5-3.5,28-4,13.61-.69,28.46-3,37.26-14.62,7.63-10.12,4.63-22.91-4.71-30.78-5.43-4.59-12.11-6.91-19-8.44l.36,2.74,1.43-.67c1.49-.69.57-2.67-.75-2.79l-13.43-1.25c-2-.18-1.87,2.75,0,3,3.88.52,7.75,1.08,11.59,1.86l-.36-2.74a58.72,58.72,0,0,1-59.2-7.55v2.12c24.75-19.57,59.15-19.38,89.15-18.31,35,1.26,69.21,7.7,103.61,13.62,16.8,2.89,33.69,5.58,50.75,6.28s33.43-1.45,50.08-5.13c8.53-1.88,17.09-3.72,25.84-4.18a151.18,151.18,0,0,1,25.78,1.19c17.45,2.06,34.77,4.82,52.29,6.35q29.44,2.55,59,2.44,14.76-.06,29.53-.78c10-.5,20.34-2.16,30.3-.73C792.19,782.93,793,780,791.09,779.77Z" fill="#95d0d8"/><path d="M460.8,670.26a.57.57,0,0,1,0,.13,1.59,1.59,0,0,0,.35.29Z" fill="#56412d"/><path d="M466.68,675.74a6.22,6.22,0,0,1-.42-1.59q-.48-2.83-1-5.66a.66.66,0,0,0-.12-.34c-.26-.28-.69.08-1,.22-.69.27-1.4-.34-2.13-.41a1.45,1.45,0,0,0-1.18,2.43.57.57,0,0,0,0-.13l.36.42a1.59,1.59,0,0,1-.35-.29c.21,2,.24,4-.8,5.69a12.29,12.29,0,0,1-3.39,3,6.24,6.24,0,0,0-2.71,3.54l3.95-2.55c1-.63,2.17-1.28,3.22-.79a2.67,2.67,0,0,0,.76.32c.85.1,1.17-1.14,1.92-1.56s1.64.12,2.32.62l3.81,2.77c.47-1.06-.17-2.28-1-3.12A10.41,10.41,0,0,1,466.68,675.74Z" fill="#56412d"/><path d="M470.35,659.6c4,2,8.62,4,12.77,2.37q-7.61-7.41-14.49-15.52a16.59,16.59,0,0,0,10.06,2.09c-5.65-3-9.88-8.16-12.8-13.84s-4.65-11.89-6.36-18a67.89,67.89,0,0,1-5.82,14.66,19.5,19.5,0,0,1-4.37,8.46,47.22,47.22,0,0,1-9.63,8,61.4,61.4,0,0,0,17.49-.55A23.15,23.15,0,0,1,437.79,660a32.2,32.2,0,0,0,18.84,1.59,31.64,31.64,0,0,1-24,11.16c9.06,6.93,23.48,5.36,30.84-3.36A44.88,44.88,0,0,0,489.69,675,79.43,79.43,0,0,1,470.35,659.6Z" fill="#435440"/><path d="M452.19,634c.53-.88,1-1.78,1.52-2.69a14.1,14.1,0,0,0,.32-2.91Z" fill="#435440"/><path d="M523.71,683.18A16.13,16.13,0,0,1,518,672.34a3.7,3.7,0,0,0-.57-2.11c-.47-.58-1.57-.65-1.84,0a1.55,1.55,0,0,0-.06.68c.1,1.76.2,3.52.31,5.28l-1.16-2c.58,2.72.55,5.76-1,8-1.3,1.84-3.59,3.21-3.78,5.45,3.52-1.11,7.29-1.17,11-1.22a3.06,3.06,0,0,1,2.46.69c.23.26.36.59.61.82a1.46,1.46,0,0,0,2.18-.6,2.54,2.54,0,0,0-.43-2.47A10.94,10.94,0,0,0,523.71,683.18Z" fill="#56412d"/><path d="M535.85,635.54c-4.29-2.57-7-7.19-8.37-12s-1.45-9.87-1.55-14.86c-.54,2.59-1.09,5.21-1.83,7.75a100.71,100.71,0,0,0,7.71,21.22A29.83,29.83,0,0,0,535.85,635.54Z" fill="#61825d"/><path d="M531.89,637.83l-.08-.18-.26.11Z" fill="#61825d"/><path d="M509.11,633.26l3.31.66a23.93,23.93,0,0,0,2.16-2.87A14.38,14.38,0,0,1,509.11,633.26Z" fill="#61825d"/><path d="M521.16,623.76a35.77,35.77,0,0,0,2.94-7.33,100,100,0,0,1-2.16-12c-1.7,8.05-2.27,16.49-5.82,23.91a24.8,24.8,0,0,1-1.54,2.74A20.77,20.77,0,0,0,521.16,623.76Z" fill="#61825d"/><path d="M523.81,639.79a28.8,28.8,0,0,0,7.74-2l-19.13-3.84c-4,4.64-9.75,7.76-15.68,6.72a11.74,11.74,0,0,0,14.5-1.69c.38,3.51-2.18,6.67-5,8.77s-6.14,3.65-8.46,6.32a11.51,11.51,0,0,0,11.36-1.37,29.18,29.18,0,0,1-10,14.63,16.66,16.66,0,0,0,10-1,20.73,20.73,0,0,1-11.71,10A19.9,19.9,0,0,0,517.86,674c1.55,7,11.16,10.81,17.09,6.69A20.54,20.54,0,0,1,523.31,668a9.19,9.19,0,0,0,12-1.37A17.86,17.86,0,0,1,524.18,654,8.07,8.07,0,0,0,536,652.9,74.47,74.47,0,0,1,523.81,639.79Z" fill="#61825d"/><path d="M531.81,637.65a100.71,100.71,0,0,1-7.71-21.22,35.77,35.77,0,0,1-2.94,7.33,20.77,20.77,0,0,1-6.58,7.29,23.93,23.93,0,0,1-2.16,2.87l19.13,3.84Z" fill="#61825d"/><path d="M462.33,692.73a8.74,8.74,0,0,1-3.11-5.91,2.06,2.06,0,0,0-.32-1.15c-.25-.31-.85-.35-1,0a.73.73,0,0,0,0,.36c.05,1,.11,1.92.16,2.88l-.62-1.07a5.64,5.64,0,0,1-.58,4.38c-.7,1-1.95,1.75-2.06,3a20.72,20.72,0,0,1,6-.67,1.75,1.75,0,0,1,1.35.38,4.71,4.71,0,0,0,.33.45.8.8,0,0,0,1.18-.33,1.39,1.39,0,0,0-.23-1.35A6.53,6.53,0,0,0,462.33,692.73Z" fill="#56412d"/><path d="M469,666.76a10.89,10.89,0,0,1-4.56-6.54,32.8,32.8,0,0,1-.85-8.1c-.29,1.41-.59,2.84-1,4.23a55,55,0,0,0,4.2,11.54A15.33,15.33,0,0,0,469,666.76Z" fill="#61825d"/><path d="M454.38,665.52l1.8.36a12.88,12.88,0,0,0,1.18-1.57A7.92,7.92,0,0,1,454.38,665.52Z" fill="#61825d"/><path d="M466.79,668l-.05-.12-.18.08Z" fill="#61825d"/><path d="M469,676.22a40.4,40.4,0,0,1-6.62-7.14,15.87,15.87,0,0,0,4.17-1.11l-10.38-2.09c-2.2,2.53-5.32,4.23-8.55,3.67a6.4,6.4,0,0,0,7.91-.93c.2,1.92-1.19,3.64-2.74,4.78s-3.35,2-4.61,3.45a6.26,6.26,0,0,0,6.19-.75,15.88,15.88,0,0,1-5.45,8,9.06,9.06,0,0,0,5.46-.57A11.27,11.27,0,0,1,448,689a10.84,10.84,0,0,0,11.14-1.25c.85,3.85,6.09,5.9,9.32,3.65a11.2,11.2,0,0,1-6.34-6.9,5,5,0,0,0,6.53-.75,9.71,9.71,0,0,1-6.06-6.92A4.38,4.38,0,0,0,469,676.22Z" fill="#61825d"/><path d="M466.74,667.89a55,55,0,0,1-4.2-11.54,19.13,19.13,0,0,1-1.6,4,11.12,11.12,0,0,1-3.58,4,12.88,12.88,0,0,1-1.18,1.57L466.56,668Z" fill="#61825d"/><path d="M460.94,660.34a19.13,19.13,0,0,0,1.6-4,54,54,0,0,1-1.17-6.56c-.93,4.39-1.24,9-3.17,13a14.57,14.57,0,0,1-.84,1.49A11.12,11.12,0,0,0,460.94,660.34Z" fill="#61825d"/><path d="M378.36,677.59a13.33,13.33,0,0,1-4.74-9,3,3,0,0,0-.47-1.74c-.39-.48-1.3-.54-1.53,0a1.32,1.32,0,0,0-.05.56c.09,1.46.17,2.92.26,4.37l-.95-1.63c.47,2.25.44,4.77-.88,6.65-1.07,1.53-3,2.66-3.13,4.52a31.22,31.22,0,0,1,9.1-1,2.58,2.58,0,0,1,2,.58c.18.21.3.48.5.68a1.22,1.22,0,0,0,1.81-.5,2.11,2.11,0,0,0-.36-2.05A9,9,0,0,0,378.36,677.59Z" fill="#56412d"/><path d="M385.13,640l-.07-.15-.21.1Z" fill="#61825d"/><path d="M366.27,636.26l2.74.55a21.76,21.76,0,0,0,1.79-2.38A12,12,0,0,1,366.27,636.26Z" fill="#61825d"/><path d="M388.41,638.15c-3.55-2.13-5.82-5.95-6.93-9.94s-1.2-8.17-1.28-12.3c-.46,2.15-.91,4.31-1.52,6.42a83.1,83.1,0,0,0,6.38,17.56A23.64,23.64,0,0,0,388.41,638.15Z" fill="#61825d"/><path d="M376.25,628.39a29.19,29.19,0,0,0,2.43-6.06,84.14,84.14,0,0,1-1.79-10C375.48,619,375,626,372.07,632.16a21.14,21.14,0,0,1-1.27,2.27A17.2,17.2,0,0,0,376.25,628.39Z" fill="#61825d"/><path d="M378.44,641.67a24.16,24.16,0,0,0,6.41-1.68L369,636.81c-3.34,3.84-8.07,6.42-13,5.56a9.71,9.71,0,0,0,12-1.4c.32,2.91-1.81,5.52-4.15,7.26s-5.09,3-7,5.23a9.53,9.53,0,0,0,9.41-1.13A24.17,24.17,0,0,1,358,664.44a13.76,13.76,0,0,0,8.28-.85,17.16,17.16,0,0,1-9.7,8.3A16.48,16.48,0,0,0,373.51,670c1.29,5.83,9.24,9,14.15,5.53A17,17,0,0,1,378,665.05a7.59,7.59,0,0,0,9.91-1.13,14.82,14.82,0,0,1-9.2-10.52,6.67,6.67,0,0,0,9.76-.88A62,62,0,0,1,378.44,641.67Z" fill="#61825d"/><path d="M385.06,639.89a83.1,83.1,0,0,1-6.38-17.56,29.19,29.19,0,0,1-2.43,6.06,17.2,17.2,0,0,1-5.45,6,21.76,21.76,0,0,1-1.79,2.38L384.85,640Z" fill="#61825d"/><path d="M404.93,677.27a11.76,11.76,0,0,1-4.19-7.94,2.82,2.82,0,0,0-.42-1.55c-.35-.42-1.15-.47-1.35,0a1.2,1.2,0,0,0,0,.5l.22,3.87-.84-1.45a7.57,7.57,0,0,1-.78,5.89c-.94,1.35-2.62,2.35-2.77,4a27.88,27.88,0,0,1,8.05-.89,2.3,2.3,0,0,1,1.81.5,6.61,6.61,0,0,0,.44.6,1.07,1.07,0,0,0,1.6-.44,1.83,1.83,0,0,0-.32-1.81A8.31,8.31,0,0,0,404.93,677.27Z" fill="#56412d"/><path d="M410.92,644.05l-.06-.13-.19.08Z" fill="#61825d"/><path d="M394.23,640.7l2.42.49a17.93,17.93,0,0,0,1.59-2.11A10.35,10.35,0,0,1,394.23,640.7Z" fill="#61825d"/><path d="M413.82,642.37a14.61,14.61,0,0,1-6.13-8.78,43.68,43.68,0,0,1-1.14-10.89c-.4,1.9-.8,3.81-1.34,5.68a74.11,74.11,0,0,0,5.65,15.54A21.39,21.39,0,0,0,413.82,642.37Z" fill="#61825d"/><path d="M403.06,633.74a25.67,25.67,0,0,0,2.15-5.36,73.4,73.4,0,0,1-1.58-8.82c-1.24,5.9-1.66,12.08-4.26,17.52a18.91,18.91,0,0,1-1.13,2A15.19,15.19,0,0,0,403.06,633.74Z" fill="#61825d"/><path d="M405,645.49a21.38,21.38,0,0,0,5.67-1.49l-14-2.81c-2.95,3.4-7.14,5.68-11.48,4.92a8.58,8.58,0,0,0,10.62-1.24c.28,2.57-1.6,4.89-3.68,6.43s-4.5,2.67-6.19,4.62a8.41,8.41,0,0,0,8.32-1,21.42,21.42,0,0,1-7.32,10.72,12.21,12.21,0,0,0,7.33-.76,15.18,15.18,0,0,1-8.58,7.35,14.57,14.57,0,0,0,15-1.68c1.14,5.17,8.18,7.92,12.52,4.9a15,15,0,0,1-8.52-9.27,6.72,6.72,0,0,0,8.77-1,13.06,13.06,0,0,1-8.14-9.3,5.9,5.9,0,0,0,8.63-.78A54.74,54.74,0,0,1,405,645.49Z" fill="#61825d"/><path d="M410.86,643.92a74.11,74.11,0,0,1-5.65-15.54,25.67,25.67,0,0,1-2.15,5.36,15.19,15.19,0,0,1-4.82,5.34,17.93,17.93,0,0,1-1.59,2.11l14,2.81Z" fill="#61825d"/><path d="M328.34,666.38c-.68-.55-.76-1.53-1.08-2.35a30.12,30.12,0,0,0-1.59-2.66,10.09,10.09,0,0,1-.63-4.86,11.49,11.49,0,0,1-2.27-.13,8.2,8.2,0,0,1-.73,3.72,16.71,16.71,0,0,1-1.53,2.48c-.41.58-.82,1.17-1.24,1.75l-.36-.42c-.5,1-1,2.07-1.49,3.1-.08.15-.14.36,0,.48a.4.4,0,0,0,.37,0,3.21,3.21,0,0,0,1.23-.67c.51-.45,1.15-1.1,1.73-.74.17.11.28.3.46.4.54.28,1.16-.42,1.74-.27.16,0,.31.13.47.08s.2-.17.28-.28a1.31,1.31,0,0,1,1.95-.11,1.06,1.06,0,0,0,.35.32,1.11,1.11,0,0,0,.48,0c.9,0,1.52,1.27,2.39,1.06C329.12,667,328.65,666.63,328.34,666.38Z" fill="#56412d"/><path d="M339.73,650a18.71,18.71,0,0,1-11.4-6.51,25.31,25.31,0,0,0,6.79,0,9.3,9.3,0,0,1-6.74-11.5c-3.47,5.49-7.72,11.52-14.15,12.46a22.08,22.08,0,0,0,7.68-1.32,20,20,0,0,1-11.14,8.25A16.94,16.94,0,0,0,321,652a20.68,20.68,0,0,1-11.68,6l2.55-1.3a12.42,12.42,0,0,1-5.36.09c.84,3.14,4.62,4.66,7.86,4.31s6.15-2,9.17-3.25a1.56,1.56,0,0,1,.79-.16,1.72,1.72,0,0,1,.95.7,11.23,11.23,0,0,0,14.33,1.75,21.26,21.26,0,0,1-10.46-8.54A8.73,8.73,0,0,0,339.73,650Z" fill="#546b51"/><path d="M302.37,674.86a5.55,5.55,0,0,1-.35-1.33c-.27-1.58-.54-3.16-.82-4.74a.48.48,0,0,0-.1-.28c-.22-.23-.58.07-.87.19-.57.22-1.17-.29-1.78-.34a1.24,1.24,0,0,0-1.27.85,1.27,1.27,0,0,0,.28,1.18.49.49,0,0,0,0-.12l.31.36a1.38,1.38,0,0,1-.3-.24,7.37,7.37,0,0,1-.67,4.76,10.41,10.41,0,0,1-2.83,2.53,5.18,5.18,0,0,0-2.27,3L295,678.5c.81-.53,1.81-1.07,2.69-.66a2.5,2.5,0,0,0,.63.27c.71.08,1-1,1.61-1.3s1.37.09,1.94.51l3.19,2.32a2.55,2.55,0,0,0-.8-2.61A8.84,8.84,0,0,1,302.37,674.86Z" fill="#56412d"/><path d="M297.45,670.27a.49.49,0,0,1,0,.12,1.38,1.38,0,0,0,.3.24Z" fill="#56412d"/><path d="M290.25,640c.45-.74.86-1.49,1.27-2.25a11.69,11.69,0,0,0,.27-2.44Z" fill="#435440"/><path d="M305.44,661.35c3.34,1.68,7.21,3.39,10.68,2q-6.36-6.21-12.11-13a13.94,13.94,0,0,0,8.41,1.75c-4.72-2.49-8.27-6.83-10.71-11.59s-3.89-9.94-5.32-15.09a57,57,0,0,1-4.87,12.27,16.34,16.34,0,0,1-3.65,7.08,39.63,39.63,0,0,1-8.06,6.69,51.25,51.25,0,0,0,14.63-.46,19.39,19.39,0,0,1-16.24,10.72A26.89,26.89,0,0,0,294,663.06a26.48,26.48,0,0,1-20,9.33c7.58,5.8,19.64,4.49,25.8-2.8a37.54,37.54,0,0,0,21.91,4.67A66.39,66.39,0,0,1,305.44,661.35Z" fill="#435440"/><path d="M496,688.14c-.83-.67-.92-1.86-1.31-2.85-.46-1.18-1.37-2.12-1.93-3.25a12,12,0,0,1-.77-5.91,14.31,14.31,0,0,1-2.77-.15,9.78,9.78,0,0,1-.89,4.52,19.61,19.61,0,0,1-1.86,3l-1.5,2.13-.45-.51c-.6,1.25-1.2,2.51-1.81,3.76-.09.19-.17.45,0,.59a.48.48,0,0,0,.44,0,3.93,3.93,0,0,0,1.5-.82c.62-.54,1.4-1.34,2.1-.9.21.14.35.37.57.48.65.35,1.4-.5,2.11-.33.19,0,.38.17.57.11s.24-.21.34-.35a1.61,1.61,0,0,1,2.38-.13,1.2,1.2,0,0,0,.42.39,1.61,1.61,0,0,0,.58,0c1.09,0,1.85,1.54,2.91,1.28C497,688.91,496.41,688.45,496,688.14Z" fill="#56412d"/><path d="M509.88,668.2A22.75,22.75,0,0,1,496,660.28a30.46,30.46,0,0,0,8.26.07c-6-1.2-10.09-8.18-8.21-14-4.21,6.68-9.38,14-17.2,15.15a26.83,26.83,0,0,0,9.34-1.6,24.27,24.27,0,0,1-13.56,10,20.68,20.68,0,0,0,12.47.72,25.18,25.18,0,0,1-14.2,7.31l3.1-1.6a14.94,14.94,0,0,1-6.52.12c1,3.82,5.62,5.67,9.56,5.24s7.48-2.47,11.16-4a1.87,1.87,0,0,1,.95-.2,2.08,2.08,0,0,1,1.16.85,13.66,13.66,0,0,0,17.43,2.13A25.73,25.73,0,0,1,497,670.17,10.6,10.6,0,0,0,509.88,668.2Z" fill="#546b51"/><path d="M441.46,679.47c-.68-.55-.76-1.54-1.08-2.35-.37-1-1.12-1.74-1.58-2.67a9.86,9.86,0,0,1-.63-4.86,12.41,12.41,0,0,1-2.28-.12,8.05,8.05,0,0,1-.73,3.71,15.74,15.74,0,0,1-1.53,2.48l-1.23,1.76L432,677c-.5,1-1,2.06-1.49,3.09-.08.16-.14.37,0,.48a.35.35,0,0,0,.36,0,3.21,3.21,0,0,0,1.23-.67c.51-.45,1.16-1.11,1.73-.74.17.11.28.3.46.39.54.29,1.16-.41,1.74-.27.16,0,.32.14.47.09s.2-.18.28-.29a1.33,1.33,0,0,1,2-.11,1,1,0,0,0,.34.33,1.29,1.29,0,0,0,.48,0c.9,0,1.52,1.27,2.39,1.06C442.24,680.1,441.77,679.72,441.46,679.47Z" fill="#56412d"/><path d="M452.85,663.07a18.66,18.66,0,0,1-11.4-6.51,25.31,25.31,0,0,0,6.79.06,9.31,9.31,0,0,1-6.74-11.5c-3.47,5.49-7.72,11.52-14.15,12.46a21.86,21.86,0,0,0,7.68-1.33,19.94,19.94,0,0,1-11.14,8.26,17,17,0,0,0,10.25.58,20.66,20.66,0,0,1-11.68,6l2.55-1.31a12.12,12.12,0,0,1-5.36.09c.85,3.15,4.63,4.67,7.86,4.32s6.15-2,9.17-3.25a1.57,1.57,0,0,1,.79-.17,1.73,1.73,0,0,1,.95.7,11.23,11.23,0,0,0,14.33,1.75,21.16,21.16,0,0,1-10.46-8.54A8.72,8.72,0,0,0,452.85,663.07Z" fill="#546b51"/><path d="M387.82,695.14c-.78-.63-.88-1.78-1.25-2.72a35.92,35.92,0,0,0-1.84-3.09,11.67,11.67,0,0,1-.73-5.64,13.71,13.71,0,0,1-2.64-.14,9.25,9.25,0,0,1-.85,4.3,18.1,18.1,0,0,1-1.77,2.88l-1.43,2-.43-.49-1.73,3.59c-.08.18-.16.42,0,.56a.44.44,0,0,0,.42,0,3.7,3.7,0,0,0,1.43-.78c.59-.52,1.34-1.29,2-.86.2.13.33.35.54.46.62.33,1.34-.49,2-.32.18,0,.36.16.54.11s.23-.21.33-.34a1.52,1.52,0,0,1,2.26-.12.81.81,0,0,0,1,.39c1,0,1.76,1.47,2.77,1.22C388.72,695.88,388.18,695.44,387.82,695.14Z" fill="#56412d"/><path d="M401,676.13a21.72,21.72,0,0,1-13.22-7.55,29.7,29.7,0,0,0,7.88.06c-5.71-1.14-9.62-7.8-7.82-13.34-4,6.37-9,13.36-16.41,14.45a25.45,25.45,0,0,0,8.9-1.53,23.09,23.09,0,0,1-12.92,9.57,19.65,19.65,0,0,0,11.89.68,24,24,0,0,1-13.55,7l3-1.52a14.19,14.19,0,0,1-6.22.11c1,3.65,5.36,5.41,9.11,5s7.14-2.36,10.64-3.77a1.82,1.82,0,0,1,.91-.19,2,2,0,0,1,1.11.81,13,13,0,0,0,16.61,2,24.57,24.57,0,0,1-12.12-9.9A10.13,10.13,0,0,0,401,676.13Z" fill="#546b51"/><path d="M419.67,680.64s0,.07,0,.11a1.09,1.09,0,0,0,.29.24Z" fill="#56412d"/><path d="M424.59,685.22a5.35,5.35,0,0,1-.35-1.32c-.27-1.58-.55-3.16-.82-4.74a.54.54,0,0,0-.11-.28c-.21-.24-.57.06-.87.18-.57.23-1.16-.28-1.77-.34a1.25,1.25,0,0,0-1.27.86,1.23,1.23,0,0,0,.28,1.17s0-.07,0-.11l.3.35a1.09,1.09,0,0,1-.29-.24,7.37,7.37,0,0,1-.68,4.76,10.37,10.37,0,0,1-2.82,2.53,5.2,5.2,0,0,0-2.28,3l3.31-2.14c.81-.52,1.82-1.06,2.69-.66a1.94,1.94,0,0,0,.63.27c.72.08,1-1,1.61-1.3s1.38.1,1.95.51l3.18,2.32a2.55,2.55,0,0,0-.8-2.61A8.59,8.59,0,0,1,424.59,685.22Z" fill="#56412d"/><path d="M412.47,650.31c.44-.73.86-1.49,1.27-2.25a11.6,11.6,0,0,0,.27-2.43Z" fill="#435440"/><path d="M427.66,671.72c3.34,1.68,7.21,3.38,10.68,2q-6.36-6.19-12.12-13a13.9,13.9,0,0,0,8.42,1.75c-4.73-2.48-8.27-6.83-10.72-11.58s-3.88-9.95-5.31-15.1a56.76,56.76,0,0,1-4.87,12.27,16.3,16.3,0,0,1-3.66,7.08,39,39,0,0,1-8.06,6.69,51.32,51.32,0,0,0,14.64-.45,19.38,19.38,0,0,1-16.24,10.71,26.89,26.89,0,0,0,15.76,1.33,26.44,26.44,0,0,1-20.05,9.33c7.58,5.8,19.64,4.49,25.8-2.8a37.55,37.55,0,0,0,21.91,4.68A66.67,66.67,0,0,1,427.66,671.72Z" fill="#435440"/><path d="M1449.72,673.19a8.72,8.72,0,0,1-3.12-5.91,2.13,2.13,0,0,0-.31-1.15c-.26-.31-.86-.35-1,0a.93.93,0,0,0,0,.37c.06,1,.11,1.92.17,2.88l-.63-1.08a5.59,5.59,0,0,1-.58,4.38c-.7,1-2,1.75-2.06,3a20.8,20.8,0,0,1,6-.67,1.7,1.7,0,0,1,1.35.38,4.71,4.71,0,0,0,.33.45.81.81,0,0,0,1.19-.33,1.41,1.41,0,0,0-.24-1.35A6.08,6.08,0,0,0,1449.72,673.19Z" fill="#56412d"/><path d="M1454.18,648.47l-.06-.12-.17.07Z" fill="#61825d"/><path d="M1456.33,647.22a10.92,10.92,0,0,1-4.56-6.54,32.32,32.32,0,0,1-.84-8.1c-.3,1.41-.6,2.84-1,4.22a54.46,54.46,0,0,0,4.19,11.55A15.33,15.33,0,0,0,1456.33,647.22Z" fill="#61825d"/><path d="M1441.76,646l1.8.36a13.7,13.7,0,0,0,1.18-1.57A7.85,7.85,0,0,1,1441.76,646Z" fill="#61825d"/><path d="M1456.4,656.68a40.43,40.43,0,0,1-6.63-7.14,15.58,15.58,0,0,0,4.18-1.12l-10.39-2.08c-2.2,2.53-5.31,4.23-8.55,3.66a6.41,6.41,0,0,0,7.91-.92c.2,1.91-1.19,3.64-2.74,4.78s-3.35,2-4.61,3.44a6.26,6.26,0,0,0,6.19-.74,15.9,15.9,0,0,1-5.44,8,9,9,0,0,0,5.45-.56,11.27,11.27,0,0,1-6.39,5.47,10.84,10.84,0,0,0,11.14-1.25c.85,3.85,6.09,5.9,9.32,3.65a11.2,11.2,0,0,1-6.34-6.9,5,5,0,0,0,6.53-.75,9.75,9.75,0,0,1-6.06-6.92A4.4,4.4,0,0,0,1456.4,656.68Z" fill="#61825d"/><path d="M1448.33,640.8a19.54,19.54,0,0,0,1.6-4,56.2,56.2,0,0,1-1.18-6.55c-.93,4.38-1.24,9-3.17,13a14.57,14.57,0,0,1-.84,1.49A11.24,11.24,0,0,0,1448.33,640.8Z" fill="#61825d"/><path d="M1454.12,648.35a54.46,54.46,0,0,1-4.19-11.55,19.54,19.54,0,0,1-1.6,4,11.24,11.24,0,0,1-3.59,4,13.7,13.7,0,0,1-1.18,1.57l10.39,2.08Z" fill="#61825d"/><path d="M323.38,683.07a8.84,8.84,0,0,1-3.12-5.91A2,2,0,0,0,320,676c-.26-.32-.86-.36-1,0a1.14,1.14,0,0,0,0,.37c.06,1,.11,1.92.17,2.88l-.63-1.08a5.6,5.6,0,0,1-.57,4.38c-.71,1-2,1.75-2.07,3a20.82,20.82,0,0,1,6-.66,1.65,1.65,0,0,1,1.34.38,5,5,0,0,0,.33.44.8.8,0,0,0,1.19-.33,1.35,1.35,0,0,0-.24-1.34A5.38,5.38,0,0,0,323.38,683.07Z" fill="#56412d"/><path d="M315.42,655.85l1.8.36a12.77,12.77,0,0,0,1.18-1.56A7.77,7.77,0,0,1,315.42,655.85Z" fill="#61825d"/><path d="M327.84,658.35l-.06-.12-.17.07Z" fill="#61825d"/><path d="M330,657.1a10.93,10.93,0,0,1-4.57-6.54,32.37,32.37,0,0,1-.84-8.1c-.3,1.41-.6,2.83-1,4.22a55.22,55.22,0,0,0,4.19,11.55A16.54,16.54,0,0,0,330,657.1Z" fill="#61825d"/><path d="M322,650.67a18.91,18.91,0,0,0,1.6-4,56,56,0,0,1-1.18-6.56c-.92,4.39-1.23,9-3.17,13a12.39,12.39,0,0,1-.84,1.5A11.35,11.35,0,0,0,322,650.67Z" fill="#61825d"/><path d="M330.06,666.56a40.14,40.14,0,0,1-6.63-7.15,15.94,15.94,0,0,0,4.18-1.11l-10.39-2.09c-2.2,2.54-5.31,4.23-8.54,3.67a6.4,6.4,0,0,0,7.9-.92c.21,1.91-1.19,3.63-2.74,4.78s-3.34,2-4.61,3.44a6.26,6.26,0,0,0,6.2-.75,15.94,15.94,0,0,1-5.45,8,9.09,9.09,0,0,0,5.45-.56,11.31,11.31,0,0,1-6.39,5.47,10.87,10.87,0,0,0,11.15-1.25c.85,3.84,6.08,5.89,9.32,3.64a11.19,11.19,0,0,1-6.35-6.9,5,5,0,0,0,6.53-.75,9.73,9.73,0,0,1-6.06-6.92A4.4,4.4,0,0,0,330.06,666.56Z" fill="#61825d"/><path d="M327.78,658.23a55.22,55.22,0,0,1-4.19-11.55,18.91,18.91,0,0,1-1.6,4,11.35,11.35,0,0,1-3.59,4,12.77,12.77,0,0,1-1.18,1.56l10.39,2.09Z" fill="#61825d"/><path d="M355.62,671.11c-.83-.67-.92-1.87-1.31-2.86-.46-1.18-1.37-2.12-1.93-3.25a12,12,0,0,1-.77-5.91,14.31,14.31,0,0,1-2.77-.15,9.78,9.78,0,0,1-.89,4.52,19.61,19.61,0,0,1-1.86,3l-1.5,2.13-.45-.51c-.6,1.25-1.2,2.51-1.81,3.77-.09.19-.17.44,0,.58a.45.45,0,0,0,.44,0,3.93,3.93,0,0,0,1.5-.82c.62-.54,1.4-1.34,2.1-.9.21.14.34.37.57.49.65.34,1.4-.51,2.11-.33.19,0,.38.16.56.1s.25-.21.35-.35a1.61,1.61,0,0,1,2.38-.13,1.2,1.2,0,0,0,.42.39,1.41,1.41,0,0,0,.58,0c1.09,0,1.85,1.55,2.9,1.28C356.56,671.87,356,671.41,355.62,671.11Z" fill="#56412d"/><path d="M369.47,651.16a22.72,22.72,0,0,1-13.86-7.92,30.39,30.39,0,0,0,8.25.07c-6-1.19-10.08-8.18-8.2-14-4.21,6.68-9.38,14-17.2,15.16a27.07,27.07,0,0,0,9.34-1.61,24.29,24.29,0,0,1-13.56,10,20.68,20.68,0,0,0,12.47.71,25.18,25.18,0,0,1-14.2,7.31l3.1-1.6a14.94,14.94,0,0,1-6.52.12c1,3.82,5.62,5.67,9.56,5.24s7.48-2.47,11.16-4a2,2,0,0,1,.95-.2,2.08,2.08,0,0,1,1.16.85,13.66,13.66,0,0,0,17.43,2.13,25.76,25.76,0,0,1-12.72-10.38A10.62,10.62,0,0,0,369.47,651.16Z" fill="#546b51"/><path d="M336.11,705.63c-.79-.64-.89-1.78-1.26-2.73-.43-1.12-1.3-2-1.84-3.09a11.63,11.63,0,0,1-.73-5.63,14.62,14.62,0,0,1-2.64-.15,9.27,9.27,0,0,1-.85,4.31,19,19,0,0,1-1.77,2.88l-1.43,2-.43-.49c-.57,1.2-1.15,2.4-1.73,3.59-.08.19-.16.43,0,.56a.44.44,0,0,0,.42,0,3.7,3.7,0,0,0,1.43-.78c.59-.52,1.34-1.28,2-.86.2.13.33.35.54.46.62.33,1.34-.48,2-.31.18,0,.36.16.54.1s.24-.2.33-.33a1.53,1.53,0,0,1,2.27-.13,1.21,1.21,0,0,0,.4.38,1.69,1.69,0,0,0,.55,0c1,0,1.76,1.48,2.77,1.23C337,706.36,336.47,705.92,336.11,705.63Z" fill="#56412d"/><path d="M349.31,686.61a21.68,21.68,0,0,1-13.22-7.55,28.88,28.88,0,0,0,7.88.06c-5.71-1.13-9.62-7.8-7.82-13.33-4,6.37-9,13.36-16.41,14.45a25.45,25.45,0,0,0,8.9-1.54,23.11,23.11,0,0,1-12.92,9.58,19.72,19.72,0,0,0,11.89.67,24,24,0,0,1-13.54,7l3-1.51a14.19,14.19,0,0,1-6.22.1c1,3.65,5.36,5.41,9.12,5s7.13-2.37,10.63-3.77a1.72,1.72,0,0,1,.91-.19,2,2,0,0,1,1.11.81,13,13,0,0,0,16.62,2,24.52,24.52,0,0,1-12.13-9.91A10.1,10.1,0,0,0,349.31,686.61Z" fill="#546b51"/><path d="M354.12,692.56a8.59,8.59,0,0,1-3.05-5.79,2.09,2.09,0,0,0-.31-1.13c-.25-.3-.84-.34-1,0a.73.73,0,0,0,0,.36c.05.94.11,1.88.16,2.82l-.61-1.06a5.5,5.5,0,0,1-.57,4.29c-.69,1-1.91,1.71-2,2.91a20.67,20.67,0,0,1,5.87-.65,1.64,1.64,0,0,1,1.32.37c.12.14.19.31.32.44a.78.78,0,0,0,1.16-.32,1.33,1.33,0,0,0-.23-1.32A5.81,5.81,0,0,0,354.12,692.56Z" fill="#56412d"/><path d="M358.49,668.35l-.06-.11-.17.07Z" fill="#61825d"/><path d="M360.6,667.13a10.69,10.69,0,0,1-4.47-6.4,32,32,0,0,1-.83-7.94c-.29,1.39-.58,2.78-1,4.14a53.49,53.49,0,0,0,4.1,11.31A15.83,15.83,0,0,0,360.6,667.13Z" fill="#61825d"/><path d="M346.33,665.91l1.76.36a14.42,14.42,0,0,0,1.16-1.54A7.76,7.76,0,0,1,346.33,665.91Z" fill="#61825d"/><path d="M360.66,676.39a39.83,39.83,0,0,1-6.49-7,15.65,15.65,0,0,0,4.09-1.09l-10.17-2c-2.15,2.48-5.2,4.14-8.36,3.58a6.25,6.25,0,0,0,7.73-.9c.21,1.87-1.16,3.56-2.68,4.68s-3.27,2-4.51,3.37a6.11,6.11,0,0,0,6.06-.73,15.54,15.54,0,0,1-5.33,7.81,8.82,8.82,0,0,0,5.34-.55,11,11,0,0,1-6.25,5.35,10.58,10.58,0,0,0,10.9-1.22c.84,3.77,6,5.77,9.13,3.57a11,11,0,0,1-6.21-6.75,4.89,4.89,0,0,0,6.39-.74,9.53,9.53,0,0,1-5.93-6.77A4.3,4.3,0,0,0,360.66,676.39Z" fill="#61825d"/><path d="M352.76,660.84a19.25,19.25,0,0,0,1.57-3.91,51.69,51.69,0,0,1-1.15-6.42c-.91,4.3-1.22,8.8-3.11,12.76a14,14,0,0,1-.82,1.46A11,11,0,0,0,352.76,660.84Z" fill="#61825d"/><path d="M358.43,668.24a53.49,53.49,0,0,1-4.1-11.31,19.25,19.25,0,0,1-1.57,3.91,11,11,0,0,1-3.51,3.89,14.42,14.42,0,0,1-1.16,1.54l10.17,2Z" fill="#61825d"/><path d="M1390.67,673.22a13.32,13.32,0,0,1-4.73-9,3.18,3.18,0,0,0-.48-1.75c-.39-.47-1.3-.53-1.52,0a1.32,1.32,0,0,0,0,.56c.08,1.46.17,2.91.25,4.37l-1-1.64c.48,2.26.45,4.77-.87,6.66-1.08,1.52-3,2.66-3.14,4.51a31.6,31.6,0,0,1,9.1-1,2.52,2.52,0,0,1,2,.58c.19.21.3.48.51.67a1.2,1.2,0,0,0,1.8-.49,2.08,2.08,0,0,0-.36-2A8.6,8.6,0,0,0,1390.67,673.22Z" fill="#56412d"/><path d="M1390.75,637.29a24.06,24.06,0,0,0,6.41-1.68l-15.84-3.18c-3.34,3.85-8.07,6.42-13,5.57a9.73,9.73,0,0,0,12-1.4c.31,2.9-1.81,5.52-4.16,7.26s-5.09,3-7,5.23a9.49,9.49,0,0,0,9.4-1.14,24.16,24.16,0,0,1-8.27,12.12,13.75,13.75,0,0,0,8.28-.85,17.16,17.16,0,0,1-9.7,8.3,16.45,16.45,0,0,0,16.92-1.9c1.29,5.84,9.25,9,14.16,5.54a17,17,0,0,1-9.64-10.48,7.59,7.59,0,0,0,9.92-1.14,14.74,14.74,0,0,1-9.2-10.51,6.67,6.67,0,0,0,9.76-.89A61.32,61.32,0,0,1,1390.75,637.29Z" fill="#61825d"/><path d="M1397.44,635.67a1,1,0,0,0-.07-.15l-.21.09Z" fill="#61825d"/><path d="M1378.59,631.88l2.73.55a20.45,20.45,0,0,0,1.79-2.37A11.74,11.74,0,0,1,1378.59,631.88Z" fill="#61825d"/><path d="M1400.72,633.77c-3.55-2.12-5.81-5.95-6.93-9.93s-1.2-8.17-1.28-12.3c-.45,2.14-.91,4.31-1.52,6.42a83.86,83.86,0,0,0,6.38,17.56A23.7,23.7,0,0,0,1400.72,633.77Z" fill="#61825d"/><path d="M1397.37,635.52A83.86,83.86,0,0,1,1391,618a29.41,29.41,0,0,1-2.43,6.06,17.11,17.11,0,0,1-5.45,6,20.45,20.45,0,0,1-1.79,2.37l15.84,3.18Z" fill="#61825d"/><path d="M1388.56,624A29.41,29.41,0,0,0,1391,618a82.28,82.28,0,0,1-1.78-10c-1.41,6.67-1.88,13.65-4.82,19.8a20.5,20.5,0,0,1-1.28,2.27A17.11,17.11,0,0,0,1388.56,624Z" fill="#61825d"/><path d="M1417.24,672.9a11.82,11.82,0,0,1-4.19-7.94,2.74,2.74,0,0,0-.42-1.55c-.34-.42-1.15-.47-1.35,0a1.2,1.2,0,0,0,0,.5c.08,1.29.15,2.58.23,3.87l-.85-1.45a7.54,7.54,0,0,1-.77,5.88c-.95,1.35-2.63,2.36-2.77,4a27.85,27.85,0,0,1,8.05-.9,2.25,2.25,0,0,1,1.8.51c.17.19.27.43.45.6A1.06,1.06,0,0,0,1419,676a1.85,1.85,0,0,0-.31-1.81A7.65,7.65,0,0,0,1417.24,672.9Z" fill="#56412d"/><path d="M1423.23,639.68l-.06-.13-.19.08Z" fill="#61825d"/><path d="M1406.55,636.33l2.42.49a19.1,19.1,0,0,0,1.59-2.11A10.64,10.64,0,0,1,1406.55,636.33Z" fill="#61825d"/><path d="M1426.13,638c-3.14-1.88-5.14-5.26-6.13-8.79a43.54,43.54,0,0,1-1.13-10.88c-.4,1.9-.81,3.81-1.34,5.68a73.52,73.52,0,0,0,5.64,15.54A21.34,21.34,0,0,0,1426.13,638Z" fill="#61825d"/><path d="M1415.38,629.37a26.22,26.22,0,0,0,2.15-5.36,71.48,71.48,0,0,1-1.58-8.82c-1.25,5.9-1.67,12.08-4.27,17.51a18,18,0,0,1-1.12,2A15.19,15.19,0,0,0,1415.38,629.37Z" fill="#61825d"/><path d="M1417.31,641.12a21.38,21.38,0,0,0,5.67-1.49l-14-2.81c-3,3.4-7.14,5.68-11.48,4.92a8.61,8.61,0,0,0,10.62-1.24c.27,2.57-1.6,4.89-3.68,6.43s-4.5,2.67-6.2,4.62a8.43,8.43,0,0,0,8.33-1,21.49,21.49,0,0,1-7.32,10.72,12.17,12.17,0,0,0,7.32-.76,15.18,15.18,0,0,1-8.58,7.35,14.57,14.57,0,0,0,15-1.68c1.14,5.17,8.18,7.92,12.53,4.9a15,15,0,0,1-8.53-9.27,6.72,6.72,0,0,0,8.77-1,13.08,13.08,0,0,1-8.14-9.3,5.92,5.92,0,0,0,8.64-.78A54.79,54.79,0,0,1,1417.31,641.12Z" fill="#61825d"/><path d="M1423.17,639.55a73.52,73.52,0,0,1-5.64-15.54,26.22,26.22,0,0,1-2.15,5.36,15.19,15.19,0,0,1-4.82,5.34,19.1,19.1,0,0,1-1.59,2.11l14,2.81Z" fill="#61825d"/><path d="M1400.14,690.77c-.79-.64-.88-1.78-1.25-2.72-.44-1.12-1.31-2-1.84-3.09a11.57,11.57,0,0,1-.74-5.64,14.45,14.45,0,0,1-2.63-.14,9.38,9.38,0,0,1-.85,4.3,18.15,18.15,0,0,1-1.78,2.88c-.47.68-1,1.36-1.43,2l-.42-.49c-.58,1.2-1.16,2.4-1.73,3.6-.09.18-.16.42,0,.55a.46.46,0,0,0,.43,0,4,4,0,0,0,1.43-.79c.59-.51,1.33-1.28,2-.85.2.12.33.34.54.46.62.32,1.34-.49,2-.32.18,0,.36.16.53.1s.24-.2.33-.33a1.53,1.53,0,0,1,2.27-.12,1.28,1.28,0,0,0,.4.37,1.32,1.32,0,0,0,.56,0c1,0,1.76,1.48,2.77,1.23C1401,691.5,1400.5,691.06,1400.14,690.77Z" fill="#56412d"/><path d="M1413.34,671.75a21.61,21.61,0,0,1-13.21-7.54,29.62,29.62,0,0,0,7.87.06c-5.71-1.14-9.61-7.8-7.82-13.34-4,6.37-9,13.36-16.41,14.45a25.77,25.77,0,0,0,8.91-1.53,23.21,23.21,0,0,1-12.92,9.57,19.69,19.69,0,0,0,11.88.68,24,24,0,0,1-13.54,7l3-1.52a14.34,14.34,0,0,1-6.22.11c1,3.65,5.36,5.41,9.12,5s7.13-2.36,10.64-3.77a1.72,1.72,0,0,1,.91-.19,2,2,0,0,1,1.1.81,13,13,0,0,0,16.62,2,24.6,24.6,0,0,1-12.13-9.9A10.11,10.11,0,0,0,1413.34,671.75Z" fill="#546b51"/><path d="M1436.9,680.85a5.47,5.47,0,0,1-.35-1.32c-.27-1.58-.54-3.16-.82-4.75a.45.45,0,0,0-.1-.27c-.22-.24-.58.06-.87.18-.57.23-1.17-.29-1.78-.34a1.2,1.2,0,0,0-1,2s0-.08,0-.11l.31.35a1.13,1.13,0,0,1-.29-.24,7.43,7.43,0,0,1-.68,4.76,10.41,10.41,0,0,1-2.83,2.53,5.21,5.21,0,0,0-2.27,3l3.31-2.13c.81-.52,1.81-1.07,2.69-.66a1.94,1.94,0,0,0,.63.27c.71.08,1-1,1.61-1.3s1.37.09,1.94.51l3.19,2.32a2.55,2.55,0,0,0-.8-2.61A8.84,8.84,0,0,1,1436.9,680.85Z" fill="#56412d"/><path d="M1432,676.27s0,.07,0,.11a1.13,1.13,0,0,0,.29.24Z" fill="#56412d"/><path d="M1424.78,645.94c.45-.74.86-1.49,1.27-2.25a11.67,11.67,0,0,0,.27-2.43Z" fill="#435440"/><path d="M1440,667.35c3.34,1.67,7.21,3.38,10.68,2q-6.36-6.21-12.11-13a13.89,13.89,0,0,0,8.42,1.75c-4.73-2.49-8.28-6.83-10.72-11.58s-3.89-9.95-5.32-15.1a57,57,0,0,1-4.87,12.27,16.34,16.34,0,0,1-3.65,7.08,39.31,39.31,0,0,1-8.06,6.69A51.6,51.6,0,0,0,1429,657a19.4,19.4,0,0,1-16.24,10.71,26.89,26.89,0,0,0,15.76,1.33,26.44,26.44,0,0,1-20,9.33c7.58,5.8,19.64,4.49,25.8-2.8a37.56,37.56,0,0,0,21.92,4.67A66.44,66.44,0,0,1,1440,667.35Z" fill="#435440"/><path d="M1335.7,678.7a8.76,8.76,0,0,1-3.12-5.91,2.09,2.09,0,0,0-.32-1.16c-.25-.31-.85-.35-1,0a.76.76,0,0,0,0,.37c0,1,.11,1.91.17,2.87l-.63-1.07a5.64,5.64,0,0,1-.58,4.38c-.7,1-2,1.75-2.06,3a20.72,20.72,0,0,1,6-.67,1.75,1.75,0,0,1,1.35.38,4.71,4.71,0,0,0,.33.45A.79.79,0,0,0,1337,681a1.39,1.39,0,0,0-.23-1.35A6.37,6.37,0,0,0,1335.7,678.7Z" fill="#56412d"/><path d="M1342.31,652.72a10.89,10.89,0,0,1-4.56-6.54,32.75,32.75,0,0,1-.85-8.1c-.29,1.42-.59,2.84-1,4.23a54.66,54.66,0,0,0,4.19,11.55A15.39,15.39,0,0,0,1342.31,652.72Z" fill="#61825d"/><path d="M1340.15,654a1.17,1.17,0,0,1-.05-.11l-.18.07Z" fill="#61825d"/><path d="M1327.74,651.48l1.8.36a13.59,13.59,0,0,0,1.18-1.56A7.9,7.9,0,0,1,1327.74,651.48Z" fill="#61825d"/><path d="M1342.38,662.19a40.49,40.49,0,0,1-6.63-7.15,15.87,15.87,0,0,0,4.17-1.11l-10.38-2.09c-2.2,2.53-5.32,4.23-8.55,3.67a6.4,6.4,0,0,0,7.91-.93c.2,1.92-1.19,3.64-2.74,4.79s-3.35,2-4.61,3.44a6.26,6.26,0,0,0,6.19-.75,15.88,15.88,0,0,1-5.45,8,9.13,9.13,0,0,0,5.46-.56,11.26,11.26,0,0,1-6.39,5.46,10.81,10.81,0,0,0,11.14-1.25c.85,3.85,6.09,5.9,9.32,3.65a11.2,11.2,0,0,1-6.34-6.9,5,5,0,0,0,6.53-.75,9.71,9.71,0,0,1-6.06-6.92A4.4,4.4,0,0,0,1342.38,662.19Z" fill="#61825d"/><path d="M1334.31,646.3a20.28,20.28,0,0,0,1.6-4,52.12,52.12,0,0,1-1.18-6.56c-.93,4.39-1.24,9-3.17,13a15.87,15.87,0,0,1-.84,1.5A11.35,11.35,0,0,0,1334.31,646.3Z" fill="#61825d"/><path d="M1340.1,653.86a54.66,54.66,0,0,1-4.19-11.55,20.28,20.28,0,0,1-1.6,4,11.35,11.35,0,0,1-3.59,4,13.59,13.59,0,0,1-1.18,1.56l10.38,2.09Z" fill="#61825d"/><path d="M1367.93,666.73c-.82-.67-.92-1.86-1.31-2.85-.45-1.18-1.37-2.12-1.93-3.25-.9-1.79-.84-3.9-.77-5.91a14.16,14.16,0,0,1-2.76-.15,9.91,9.91,0,0,1-.89,4.52,20.42,20.42,0,0,1-1.86,3l-1.5,2.13-.45-.51c-.61,1.25-1.21,2.51-1.81,3.76-.09.19-.17.45,0,.59a.5.5,0,0,0,.45,0,3.89,3.89,0,0,0,1.49-.82c.62-.54,1.41-1.34,2.1-.9.21.14.35.37.57.48.65.35,1.4-.5,2.12-.33.18.05.37.17.56.11s.25-.21.34-.35a1.61,1.61,0,0,1,2.38-.13c.13.14.24.32.42.39a1.67,1.67,0,0,0,.59,0c1.09,0,1.84,1.54,2.9,1.28C1368.88,667.5,1368.31,667,1367.93,666.73Z" fill="#56412d"/><path d="M1381.78,646.79a22.75,22.75,0,0,1-13.86-7.92,30.46,30.46,0,0,0,8.26.07c-6-1.2-10.08-8.19-8.2-14-4.22,6.68-9.39,14-17.21,15.15a26.75,26.75,0,0,0,9.34-1.6,24.25,24.25,0,0,1-13.55,10,20.66,20.66,0,0,0,12.46.72,25.18,25.18,0,0,1-14.2,7.31l3.11-1.6a15,15,0,0,1-6.52.12c1,3.82,5.62,5.67,9.56,5.24s7.48-2.48,11.15-4a1.81,1.81,0,0,1,1-.2,2.15,2.15,0,0,1,1.16.85,13.64,13.64,0,0,0,17.42,2.13,25.77,25.77,0,0,1-12.72-10.39A10.6,10.6,0,0,0,1381.78,646.79Z" fill="#546b51"/><path d="M1348.42,701.26c-.79-.64-.88-1.78-1.25-2.73-.44-1.12-1.31-2-1.84-3.09a11.42,11.42,0,0,1-.73-5.64,13.67,13.67,0,0,1-2.64-.14,9.42,9.42,0,0,1-.85,4.31,19.1,19.1,0,0,1-1.78,2.88l-1.43,2-.42-.49c-.58,1.2-1.15,2.4-1.73,3.59-.09.18-.16.43,0,.56a.47.47,0,0,0,.43,0,3.85,3.85,0,0,0,1.43-.78c.59-.52,1.34-1.28,2-.86.2.13.33.35.54.46.62.33,1.34-.48,2-.31.18,0,.36.16.53.1s.24-.2.33-.33a1.53,1.53,0,0,1,2.27-.13,1.08,1.08,0,0,0,.4.37,1.5,1.5,0,0,0,.56,0c1,0,1.76,1.47,2.77,1.22C1349.32,702,1348.78,701.55,1348.42,701.26Z" fill="#56412d"/><path d="M1361.62,682.24a21.7,21.7,0,0,1-13.21-7.55,28.81,28.81,0,0,0,7.87.06c-5.71-1.14-9.61-7.8-7.82-13.34-4,6.38-9,13.37-16.41,14.46a25.55,25.55,0,0,0,8.91-1.54A23.11,23.11,0,0,1,1328,683.9a19.62,19.62,0,0,0,11.88.68,24,24,0,0,1-13.54,7l3-1.52a14,14,0,0,1-6.21.11c1,3.65,5.35,5.41,9.11,5s7.13-2.36,10.64-3.77a1.81,1.81,0,0,1,.91-.18,2,2,0,0,1,1.1.81,13,13,0,0,0,16.62,2,24.49,24.49,0,0,1-12.13-9.9A10.1,10.1,0,0,0,1361.62,682.24Z" fill="#546b51"/><path d="M1366.44,688.19a8.6,8.6,0,0,1-3.06-5.79,2,2,0,0,0-.3-1.13c-.26-.3-.84-.34-1,0a.85.85,0,0,0,0,.36c.06.94.11,1.87.17,2.81l-.62-1.05a5.51,5.51,0,0,1-.56,4.29c-.69,1-1.92,1.71-2,2.91a19.9,19.9,0,0,1,5.87-.65,1.62,1.62,0,0,1,1.31.37,3.5,3.5,0,0,0,.33.43.78.78,0,0,0,1.16-.32,1.36,1.36,0,0,0-.23-1.32A5.76,5.76,0,0,0,1366.44,688.19Z" fill="#56412d"/><path d="M1372.91,662.76a10.67,10.67,0,0,1-4.46-6.41,31.39,31.39,0,0,1-.83-7.93c-.29,1.39-.59,2.78-1,4.14a53.52,53.52,0,0,0,4.11,11.31A16.31,16.31,0,0,0,1372.91,662.76Z" fill="#61825d"/><path d="M1358.64,661.54l1.77.35a12.23,12.23,0,0,0,1.15-1.53A7.63,7.63,0,0,1,1358.64,661.54Z" fill="#61825d"/><path d="M1370.8,664a1.17,1.17,0,0,0,0-.11l-.17.07Z" fill="#61825d"/><path d="M1365.07,656.47a18.38,18.38,0,0,0,1.57-3.91,54,54,0,0,1-1.15-6.42c-.91,4.3-1.21,8.8-3.11,12.76a12.36,12.36,0,0,1-.82,1.46A11,11,0,0,0,1365.07,656.47Z" fill="#61825d"/><path d="M1370.75,663.87a53.52,53.52,0,0,1-4.11-11.31,18.38,18.38,0,0,1-1.57,3.91,11,11,0,0,1-3.51,3.89,12.23,12.23,0,0,1-1.15,1.53l10.17,2.05Z" fill="#61825d"/><path d="M1373,672a39.45,39.45,0,0,1-6.49-7,15.76,15.76,0,0,0,4.09-1.09l-10.17-2.05c-2.16,2.48-5.21,4.14-8.37,3.59a6.26,6.26,0,0,0,7.74-.9c.2,1.87-1.17,3.56-2.68,4.68s-3.28,2-4.52,3.37a6.13,6.13,0,0,0,6.07-.73,15.6,15.6,0,0,1-5.34,7.81,8.89,8.89,0,0,0,5.34-.55,11,11,0,0,1-6.25,5.35,10.62,10.62,0,0,0,10.91-1.22c.83,3.76,6,5.77,9.12,3.57a11,11,0,0,1-6.21-6.76,4.91,4.91,0,0,0,6.4-.73,9.54,9.54,0,0,1-5.94-6.78A4.31,4.31,0,0,0,1373,672Z" fill="#61825d"/><path d="M1504.69,667.71a13.34,13.34,0,0,1-4.73-9,3.08,3.08,0,0,0-.48-1.75c-.39-.48-1.3-.54-1.52,0a1.34,1.34,0,0,0,0,.56c.08,1.46.17,2.92.25,4.38l-1-1.64c.48,2.25.45,4.77-.87,6.65-1.07,1.53-3,2.66-3.14,4.52a31.63,31.63,0,0,1,9.11-1,2.58,2.58,0,0,1,2,.57,6.6,6.6,0,0,0,.5.68,1.21,1.21,0,0,0,1.8-.5,2,2,0,0,0-.36-2A8.68,8.68,0,0,0,1504.69,667.71Z" fill="#56412d"/><path d="M1514.74,628.27c-3.54-2.13-5.81-5.95-6.93-9.93s-1.2-8.17-1.28-12.31c-.45,2.15-.91,4.31-1.52,6.42a83.74,83.74,0,0,0,6.38,17.57A24.21,24.21,0,0,0,1514.74,628.27Z" fill="#61825d"/><path d="M1511.47,630.17l-.08-.15-.21.09Z" fill="#61825d"/><path d="M1492.61,626.38l2.73.55a19.82,19.82,0,0,0,1.8-2.38A11.87,11.87,0,0,1,1492.61,626.38Z" fill="#61825d"/><path d="M1504.78,631.79a24,24,0,0,0,6.4-1.68l-15.84-3.18c-3.34,3.84-8.07,6.42-13,5.57a9.72,9.72,0,0,0,12-1.41c.31,2.91-1.81,5.53-4.16,7.27s-5.08,3-7,5.22a9.51,9.51,0,0,0,9.41-1.13,24.22,24.22,0,0,1-8.28,12.12,13.83,13.83,0,0,0,8.28-.86,17.14,17.14,0,0,1-9.7,8.31,16.5,16.5,0,0,0,16.93-1.9c1.28,5.84,9.24,9,14.15,5.54a17,17,0,0,1-9.63-10.48,7.59,7.59,0,0,0,9.91-1.14,14.78,14.78,0,0,1-9.2-10.51,6.68,6.68,0,0,0,9.76-.89A61.61,61.61,0,0,1,1504.78,631.79Z" fill="#61825d"/><path d="M1511.39,630a83.74,83.74,0,0,1-6.38-17.57,29.19,29.19,0,0,1-2.43,6.06,17.09,17.09,0,0,1-5.44,6,19.82,19.82,0,0,1-1.8,2.38l15.84,3.18Z" fill="#61825d"/><path d="M1502.58,618.51a29.19,29.19,0,0,0,2.43-6.06,84.11,84.11,0,0,1-1.78-10c-1.41,6.66-1.88,13.65-4.82,19.79a20.21,20.21,0,0,1-1.27,2.27A17.09,17.09,0,0,0,1502.58,618.51Z" fill="#61825d"/><path d="M1531.26,667.4a11.79,11.79,0,0,1-4.18-7.95,2.71,2.71,0,0,0-.43-1.54c-.34-.42-1.15-.48-1.35,0a1.15,1.15,0,0,0,0,.49c.08,1.29.15,2.58.23,3.87l-.85-1.45a7.57,7.57,0,0,1-.77,5.89c-.95,1.35-2.63,2.35-2.77,4a27.85,27.85,0,0,1,8.05-.9,2.28,2.28,0,0,1,1.81.51,6.61,6.61,0,0,0,.44.6,1.08,1.08,0,0,0,1.6-.44,1.87,1.87,0,0,0-.32-1.81A7.32,7.32,0,0,0,1531.26,667.4Z" fill="#56412d"/><path d="M1540.15,632.5c-3.13-1.88-5.14-5.27-6.13-8.79a43.62,43.62,0,0,1-1.13-10.89c-.4,1.9-.8,3.82-1.34,5.68a73.32,73.32,0,0,0,5.64,15.54A21.29,21.29,0,0,0,1540.15,632.5Z" fill="#61825d"/><path d="M1520.57,630.83l2.42.48a19,19,0,0,0,1.59-2.1A10.57,10.57,0,0,1,1520.57,630.83Z" fill="#61825d"/><path d="M1537.26,634.18a.91.91,0,0,1-.07-.14l-.19.09Z" fill="#61825d"/><path d="M1529.4,623.87a26.54,26.54,0,0,0,2.15-5.37,72.89,72.89,0,0,1-1.58-8.81c-1.25,5.9-1.67,12.07-4.27,17.51a16.54,16.54,0,0,1-1.12,2A15.27,15.27,0,0,0,1529.4,623.87Z" fill="#61825d"/><path d="M1531.34,635.61a21.29,21.29,0,0,0,5.66-1.48l-14-2.82c-3,3.4-7.14,5.68-11.48,4.93a8.61,8.61,0,0,0,10.62-1.24c.28,2.57-1.6,4.88-3.68,6.42s-4.5,2.68-6.2,4.63a8.43,8.43,0,0,0,8.33-1,21.38,21.38,0,0,1-7.32,10.72,12.17,12.17,0,0,0,7.32-.75,15.16,15.16,0,0,1-8.58,7.34,14.57,14.57,0,0,0,15-1.67c1.14,5.16,8.18,7.92,12.53,4.9a15.05,15.05,0,0,1-8.53-9.28,6.73,6.73,0,0,0,8.78-1,13.08,13.08,0,0,1-8.14-9.3,5.9,5.9,0,0,0,8.63-.79A54,54,0,0,1,1531.34,635.61Z" fill="#61825d"/><path d="M1537.19,634a73.32,73.32,0,0,1-5.64-15.54,26.54,26.54,0,0,1-2.15,5.37,15.27,15.27,0,0,1-4.82,5.34,19,19,0,0,1-1.59,2.1l14,2.82Z" fill="#61825d"/><path d="M1514.16,685.27c-.79-.64-.88-1.78-1.25-2.73-.44-1.12-1.31-2-1.84-3.09a11.39,11.39,0,0,1-.73-5.63,14.57,14.57,0,0,1-2.64-.15,9.4,9.4,0,0,1-.85,4.31,19.1,19.1,0,0,1-1.78,2.88l-1.43,2-.42-.49c-.58,1.2-1.15,2.4-1.73,3.59-.09.18-.16.43,0,.56a.44.44,0,0,0,.42,0,3.78,3.78,0,0,0,1.43-.78c.59-.52,1.34-1.28,2-.86.2.13.33.35.54.46.62.33,1.34-.48,2-.31.18,0,.36.16.53.1s.24-.2.33-.33a1.53,1.53,0,0,1,2.27-.13,1.08,1.08,0,0,0,.4.37,1.5,1.5,0,0,0,.56,0c1,0,1.76,1.47,2.77,1.22C1515.06,686,1514.52,685.56,1514.16,685.27Z" fill="#56412d"/><path d="M1527.37,666.25a21.7,21.7,0,0,1-13.22-7.55,28.81,28.81,0,0,0,7.87.06c-5.71-1.13-9.61-7.8-7.82-13.34-4,6.38-9,13.37-16.4,14.46a25.53,25.53,0,0,0,8.9-1.54,23.11,23.11,0,0,1-12.92,9.57,19.62,19.62,0,0,0,11.88.68,24,24,0,0,1-13.54,7l3-1.52a14,14,0,0,1-6.21.11c1,3.65,5.36,5.41,9.11,5s7.13-2.36,10.64-3.77a1.81,1.81,0,0,1,.91-.18,2,2,0,0,1,1.1.81,13,13,0,0,0,16.62,2,24.56,24.56,0,0,1-12.13-9.91A10.11,10.11,0,0,0,1527.37,666.25Z" fill="#546b51"/><path d="M1546,670.76a.49.49,0,0,0,0,.12,1.37,1.37,0,0,0,.29.24Z" fill="#56412d"/><path d="M1550.92,675.35a5.55,5.55,0,0,1-.35-1.33l-.81-4.74a.57.57,0,0,0-.11-.28c-.22-.23-.57.06-.87.18-.57.23-1.17-.28-1.78-.33a1.24,1.24,0,0,0-1.27.85,1.26,1.26,0,0,0,.29,1.18.49.49,0,0,1,0-.12l.3.36a1.37,1.37,0,0,1-.29-.24,7.43,7.43,0,0,1-.68,4.76,10.23,10.23,0,0,1-2.83,2.52,5.23,5.23,0,0,0-2.27,3l3.31-2.13c.81-.53,1.81-1.07,2.69-.66a2.5,2.5,0,0,0,.63.27c.71.08,1-1,1.61-1.31s1.37.1,2,.52l3.18,2.32a2.54,2.54,0,0,0-.8-2.61A8.84,8.84,0,0,1,1550.92,675.35Z" fill="#56412d"/><path d="M1538.81,640.44q.66-1.11,1.26-2.25a11.69,11.69,0,0,0,.27-2.44Z" fill="#435440"/><path d="M1554,661.84c3.35,1.68,7.22,3.39,10.69,2q-6.37-6.2-12.12-13a13.89,13.89,0,0,0,8.42,1.76c-4.73-2.49-8.28-6.84-10.72-11.59s-3.89-9.94-5.32-15.09a57.17,57.17,0,0,1-4.87,12.27,16.25,16.25,0,0,1-3.65,7.07,39.35,39.35,0,0,1-8.06,6.7,51.61,51.61,0,0,0,14.63-.46,19.4,19.4,0,0,1-16.24,10.72,27,27,0,0,0,15.76,1.33,26.46,26.46,0,0,1-20,9.33c7.58,5.8,19.64,4.49,25.8-2.81a37.56,37.56,0,0,0,21.92,4.68A66.25,66.25,0,0,1,1554,661.84Z" fill="#435440"/><path d="M1482,666.23c-.83-.67-.93-1.87-1.31-2.86-.46-1.17-1.37-2.11-1.94-3.24a12.15,12.15,0,0,1-.76-5.91,16,16,0,0,1-2.77-.15,9.74,9.74,0,0,1-.89,4.51,19.92,19.92,0,0,1-1.86,3l-1.5,2.13-.45-.51c-.6,1.26-1.21,2.51-1.81,3.77-.09.19-.17.44,0,.58a.48.48,0,0,0,.45,0,3.89,3.89,0,0,0,1.49-.82c.62-.55,1.41-1.35,2.1-.9.21.13.35.36.57.48.65.34,1.4-.51,2.12-.33.19.05.38.17.56.11s.25-.22.35-.35a1.59,1.59,0,0,1,2.37-.13,1.33,1.33,0,0,0,.43.39,1.41,1.41,0,0,0,.58,0c1.09,0,1.84,1.55,2.9,1.29C1482.9,667,1482.33,666.54,1482,666.23Z" fill="#56412d"/><path d="M1495.8,646.29a22.75,22.75,0,0,1-13.86-7.92,30.87,30.87,0,0,0,8.26.06c-6-1.19-10.08-8.18-8.2-14-4.22,6.69-9.39,14-17.21,15.16a26.76,26.76,0,0,0,9.34-1.61,24.27,24.27,0,0,1-13.55,10,20.61,20.61,0,0,0,12.47.71,25.24,25.24,0,0,1-14.21,7.31l3.11-1.59a14.79,14.79,0,0,1-6.52.11c1,3.83,5.62,5.68,9.56,5.25s7.48-2.48,11.15-4a1.9,1.9,0,0,1,1-.19,2.15,2.15,0,0,1,1.16.85,13.65,13.65,0,0,0,17.42,2.12A25.75,25.75,0,0,1,1483,648.26,10.63,10.63,0,0,0,1495.8,646.29Z" fill="#546b51"/><path d="M1462.44,695.75c-.79-.63-.88-1.78-1.25-2.72-.44-1.12-1.3-2-1.84-3.09a11.56,11.56,0,0,1-.73-5.64,13.71,13.71,0,0,1-2.64-.14,9.38,9.38,0,0,1-.85,4.3,18.85,18.85,0,0,1-1.77,2.88l-1.43,2-.43-.48-1.73,3.59c-.09.18-.16.42,0,.56a.47.47,0,0,0,.42,0,3.72,3.72,0,0,0,1.43-.79c.59-.51,1.34-1.28,2-.85.2.13.33.35.54.46.62.32,1.34-.49,2-.32.18,0,.36.16.54.1s.23-.2.32-.33a1.53,1.53,0,0,1,2.27-.12c.13.13.23.3.4.37a1.5,1.5,0,0,0,.56,0c1,0,1.76,1.47,2.77,1.22C1463.34,696.48,1462.8,696,1462.44,695.75Z" fill="#56412d"/><path d="M1475.65,676.74a21.7,21.7,0,0,1-13.22-7.55,29.62,29.62,0,0,0,7.87.06c-5.71-1.14-9.61-7.8-7.82-13.34-4,6.37-9,13.36-16.4,14.45a25.72,25.72,0,0,0,8.9-1.53,23.16,23.16,0,0,1-12.92,9.57,19.65,19.65,0,0,0,11.89.68,24,24,0,0,1-13.55,7l3-1.52a14.3,14.3,0,0,1-6.21.11c1,3.65,5.36,5.41,9.11,5s7.13-2.36,10.64-3.77a1.82,1.82,0,0,1,.91-.19,2,2,0,0,1,1.1.81,13,13,0,0,0,16.62,2,24.6,24.6,0,0,1-12.13-9.9A10.14,10.14,0,0,0,1475.65,676.74Z" fill="#546b51"/><path d="M1480.46,682.68a8.62,8.62,0,0,1-3.06-5.78,2,2,0,0,0-.3-1.13c-.25-.31-.84-.35-1,0a1.08,1.08,0,0,0,0,.36c.06.94.11,1.88.17,2.82l-.62-1.05a5.48,5.48,0,0,1-.56,4.28c-.69,1-1.92,1.72-2,2.92a20.24,20.24,0,0,1,5.87-.66,1.69,1.69,0,0,1,1.31.37,3.61,3.61,0,0,0,.33.44.78.78,0,0,0,1.16-.32,1.36,1.36,0,0,0-.23-1.32A5.81,5.81,0,0,0,1480.46,682.68Z" fill="#56412d"/><path d="M1486.93,657.25a10.69,10.69,0,0,1-4.46-6.4,31.49,31.49,0,0,1-.83-7.93c-.29,1.38-.58,2.78-1,4.14a54.2,54.2,0,0,0,4.11,11.3A14.2,14.2,0,0,0,1486.93,657.25Z" fill="#61825d"/><path d="M1472.67,656l1.76.35a14.31,14.31,0,0,0,1.16-1.53A7.76,7.76,0,0,1,1472.67,656Z" fill="#61825d"/><path d="M1484.82,658.48l0-.12-.17.07Z" fill="#61825d"/><path d="M1487,666.52a39.51,39.51,0,0,1-6.49-7,15.27,15.27,0,0,0,4.09-1.09l-10.17-2c-2.16,2.48-5.2,4.14-8.37,3.59a6.27,6.27,0,0,0,7.74-.91c.2,1.88-1.17,3.57-2.68,4.69s-3.28,2-4.51,3.37a6.17,6.17,0,0,0,6.06-.73,15.59,15.59,0,0,1-5.33,7.81,8.93,8.93,0,0,0,5.33-.55,11,11,0,0,1-6.25,5.35,10.62,10.62,0,0,0,10.91-1.22c.83,3.76,6,5.77,9.13,3.57a11,11,0,0,1-6.22-6.76,4.91,4.91,0,0,0,6.4-.73,9.5,9.5,0,0,1-5.93-6.78A4.31,4.31,0,0,0,1487,666.52Z" fill="#61825d"/><path d="M1479.1,651a18.8,18.8,0,0,0,1.56-3.9,53.77,53.77,0,0,1-1.15-6.43c-.91,4.3-1.21,8.8-3.11,12.76a13.25,13.25,0,0,1-.81,1.47A11.16,11.16,0,0,0,1479.1,651Z" fill="#61825d"/><path d="M1484.77,658.36a54.2,54.2,0,0,1-4.11-11.3,18.8,18.8,0,0,1-1.56,3.9,11.16,11.16,0,0,1-3.51,3.9,14.31,14.31,0,0,1-1.16,1.53l10.17,2Z" fill="#61825d"/><path d="M845.81,693.73a.66.66,0,0,0,0,.14,1.35,1.35,0,0,0,.35.28Z" fill="#56412d"/><path d="M851.68,699.21a6.13,6.13,0,0,1-.41-1.58q-.49-2.83-1-5.67a.64.64,0,0,0-.13-.33c-.26-.28-.68.07-1,.22-.68.27-1.39-.34-2.12-.41a1.44,1.44,0,0,0-1.18,2.43.66.66,0,0,1,0-.14l.36.42a1.35,1.35,0,0,1-.35-.28c.21,2,.24,4-.81,5.69a12.25,12.25,0,0,1-3.38,3,6.27,6.27,0,0,0-2.72,3.53l4-2.55c1-.62,2.17-1.27,3.21-.79a2.54,2.54,0,0,0,.76.33c.85.09,1.17-1.15,1.92-1.56s1.64.11,2.33.61l3.81,2.78a3.05,3.05,0,0,0-1-3.12A10.71,10.71,0,0,1,851.68,699.21Z" fill="#56412d"/><path d="M837.2,657.49c.53-.89,1-1.78,1.52-2.69a14.25,14.25,0,0,0,.32-2.91Z" fill="#435440"/><path d="M855.35,683.07c4,2,8.62,4,12.77,2.38q-7.61-7.41-14.48-15.52A16.66,16.66,0,0,0,863.7,672c-5.65-3-9.89-8.17-12.81-13.85s-4.65-11.88-6.35-18a68.8,68.8,0,0,1-5.82,14.67,19.55,19.55,0,0,1-4.37,8.46,47.22,47.22,0,0,1-9.63,8,61.7,61.7,0,0,0,17.48-.55,23.16,23.16,0,0,1-19.41,12.81,32.2,32.2,0,0,0,18.84,1.59,31.65,31.65,0,0,1-24,11.15c9.07,6.93,23.48,5.37,30.84-3.35a44.91,44.91,0,0,0,26.2,5.59A79.52,79.52,0,0,1,855.35,683.07Z" fill="#435440"/><path d="M908.72,706.66A16.07,16.07,0,0,1,903,695.81a3.73,3.73,0,0,0-.58-2.11c-.47-.57-1.57-.64-1.84,0a1.67,1.67,0,0,0-.06.67c.11,1.76.21,3.52.31,5.28l-1.15-2c.57,2.72.54,5.76-1.06,8-1.29,1.85-3.58,3.21-3.78,5.46,3.53-1.12,7.29-1.18,11-1.23a3.11,3.11,0,0,1,2.47.7,8.22,8.22,0,0,0,.6.82,1.47,1.47,0,0,0,2.18-.6,2.53,2.53,0,0,0-.43-2.48A10.49,10.49,0,0,0,908.72,706.66Z" fill="#56412d"/><path d="M920.85,659c-4.28-2.56-7-7.18-8.36-12s-1.46-9.87-1.55-14.86c-.55,2.59-1.1,5.2-1.84,7.75a100.63,100.63,0,0,0,7.71,21.21A27.68,27.68,0,0,0,920.85,659Z" fill="#61825d"/><path d="M916.9,661.31l-.09-.19-.26.12Z" fill="#61825d"/><path d="M894.12,656.73l3.3.67a26,26,0,0,0,2.17-2.87A14.27,14.27,0,0,1,894.12,656.73Z" fill="#61825d"/><path d="M916.81,661.12a100.63,100.63,0,0,1-7.71-21.21,34.88,34.88,0,0,1-2.93,7.32,20.81,20.81,0,0,1-6.58,7.3,26,26,0,0,1-2.17,2.87l19.13,3.84Z" fill="#61825d"/><path d="M908.82,663.27a29.21,29.21,0,0,0,7.73-2l-19.13-3.84c-4,4.64-9.75,7.75-15.67,6.72a11.74,11.74,0,0,0,14.5-1.69c.37,3.51-2.19,6.67-5,8.77s-6.15,3.65-8.46,6.31a11.49,11.49,0,0,0,11.36-1.37,29.29,29.29,0,0,1-10,14.64,16.73,16.73,0,0,0,10-1,20.7,20.7,0,0,1-11.72,10,19.87,19.87,0,0,0,20.44-2.29c1.56,7.06,11.17,10.82,17.1,6.69a20.55,20.55,0,0,1-11.64-12.65,9.18,9.18,0,0,0,12-1.38,17.85,17.85,0,0,1-11.12-12.7A8.06,8.06,0,0,0,921,676.37,74.33,74.33,0,0,1,908.82,663.27Z" fill="#61825d"/><path d="M906.17,647.23a34.88,34.88,0,0,0,2.93-7.32,100,100,0,0,1-2.15-12c-1.7,8-2.27,16.48-5.82,23.9a25.67,25.67,0,0,1-1.54,2.75A20.81,20.81,0,0,0,906.17,647.23Z" fill="#61825d"/><path d="M847.34,716.21a8.82,8.82,0,0,1-3.12-5.91,2,2,0,0,0-.31-1.15c-.26-.31-.86-.35-1,0a1.16,1.16,0,0,0,0,.37c.06,1,.11,1.92.17,2.88l-.63-1.08a5.6,5.6,0,0,1-.57,4.38c-.71,1-2,1.75-2.07,3a20.83,20.83,0,0,1,6-.67,1.65,1.65,0,0,1,1.34.38,5,5,0,0,0,.33.44.8.8,0,0,0,1.19-.32,1.36,1.36,0,0,0-.24-1.35A5.38,5.38,0,0,0,847.34,716.21Z" fill="#56412d"/><path d="M854,690.24a10.93,10.93,0,0,1-4.57-6.54,32.32,32.32,0,0,1-.84-8.1c-.3,1.41-.6,2.84-1,4.22a55.22,55.22,0,0,0,4.19,11.55A16.54,16.54,0,0,0,854,690.24Z" fill="#61825d"/><path d="M839.38,689l1.8.37a13.7,13.7,0,0,0,1.18-1.57A7.77,7.77,0,0,1,839.38,689Z" fill="#61825d"/><path d="M851.8,691.49l-.06-.12-.17.07Z" fill="#61825d"/><path d="M851.74,691.37a55.22,55.22,0,0,1-4.19-11.55,18.91,18.91,0,0,1-1.6,4,11.35,11.35,0,0,1-3.59,4,13.7,13.7,0,0,1-1.18,1.57l10.39,2.08Z" fill="#61825d"/><path d="M854,699.7a40.43,40.43,0,0,1-6.63-7.14,16,16,0,0,0,4.18-1.12l-10.39-2.08c-2.2,2.53-5.31,4.22-8.54,3.66a6.4,6.4,0,0,0,7.9-.92c.21,1.91-1.19,3.63-2.74,4.78s-3.35,2-4.61,3.44a6.28,6.28,0,0,0,6.2-.74,16,16,0,0,1-5.45,8,9.09,9.09,0,0,0,5.45-.56,11.31,11.31,0,0,1-6.39,5.47,10.85,10.85,0,0,0,11.15-1.25c.85,3.84,6.08,5.89,9.32,3.65a11.24,11.24,0,0,1-6.35-6.9,5,5,0,0,0,6.53-.75,9.76,9.76,0,0,1-6.06-6.93A4.4,4.4,0,0,0,854,699.7Z" fill="#61825d"/><path d="M846,683.81a18.91,18.91,0,0,0,1.6-4,56,56,0,0,1-1.18-6.56c-.92,4.39-1.23,9-3.17,13a11.57,11.57,0,0,1-.84,1.49A11.35,11.35,0,0,0,846,683.81Z" fill="#61825d"/><path d="M763.36,701.07a13.32,13.32,0,0,1-4.73-9,3.18,3.18,0,0,0-.48-1.75c-.39-.47-1.3-.53-1.52,0a1.31,1.31,0,0,0,0,.56c.08,1.45.17,2.91.25,4.37l-1-1.64c.48,2.25.45,4.77-.87,6.66-1.08,1.52-3,2.65-3.14,4.51a31.6,31.6,0,0,1,9.1-1,2.59,2.59,0,0,1,2,.57,5.67,5.67,0,0,0,.5.68,1.21,1.21,0,0,0,1.8-.5,2.06,2.06,0,0,0-.36-2A8.6,8.6,0,0,0,763.36,701.07Z" fill="#56412d"/><path d="M770.13,663.52a1,1,0,0,0-.07-.15l-.21.09Z" fill="#61825d"/><path d="M773.41,661.62c-3.55-2.12-5.81-6-6.93-9.93s-1.2-8.17-1.28-12.3c-.45,2.14-.91,4.31-1.52,6.41a83.74,83.74,0,0,0,6.38,17.57A24.79,24.79,0,0,0,773.41,661.62Z" fill="#61825d"/><path d="M751.28,659.73l2.73.55a20.45,20.45,0,0,0,1.79-2.37A11.9,11.9,0,0,1,751.28,659.73Z" fill="#61825d"/><path d="M763.44,665.14a24.06,24.06,0,0,0,6.41-1.68L754,660.28c-3.34,3.85-8.07,6.42-13,5.57a9.73,9.73,0,0,0,12-1.4c.31,2.9-1.81,5.52-4.16,7.26s-5.09,3-7,5.23a9.49,9.49,0,0,0,9.4-1.14A24.16,24.16,0,0,1,743,687.92a13.76,13.76,0,0,0,8.28-.86,17.14,17.14,0,0,1-9.7,8.31,16.45,16.45,0,0,0,16.92-1.9c1.29,5.84,9.25,8.95,14.16,5.54A17,17,0,0,1,763,688.53a7.6,7.6,0,0,0,9.92-1.14,14.76,14.76,0,0,1-9.2-10.51,6.67,6.67,0,0,0,9.76-.89A61.32,61.32,0,0,1,763.44,665.14Z" fill="#61825d"/><path d="M770.06,663.37a83.74,83.74,0,0,1-6.38-17.57,29.27,29.27,0,0,1-2.43,6.07,17.19,17.19,0,0,1-5.45,6,20.45,20.45,0,0,1-1.79,2.37l15.84,3.18Z" fill="#61825d"/><path d="M761.25,651.87a29.27,29.27,0,0,0,2.43-6.07,81.78,81.78,0,0,1-1.78-10c-1.41,6.67-1.88,13.65-4.82,19.8a20.5,20.5,0,0,1-1.28,2.27A17.19,17.19,0,0,0,761.25,651.87Z" fill="#61825d"/><path d="M789.93,700.75a11.82,11.82,0,0,1-4.19-7.94,2.64,2.64,0,0,0-.42-1.55c-.34-.42-1.15-.47-1.35,0a1.2,1.2,0,0,0,0,.5c.08,1.29.15,2.57.23,3.86l-.85-1.44a7.54,7.54,0,0,1-.77,5.88c-.95,1.35-2.63,2.35-2.77,4a27.85,27.85,0,0,1,8.05-.9,2.25,2.25,0,0,1,1.8.51c.17.19.27.43.45.6a1.07,1.07,0,0,0,1.59-.44,1.85,1.85,0,0,0-.31-1.81A7.65,7.65,0,0,0,789.93,700.75Z" fill="#56412d"/><path d="M798.82,665.85c-3.14-1.88-5.14-5.26-6.13-8.79a43.59,43.59,0,0,1-1.13-10.88c-.4,1.89-.8,3.81-1.34,5.67a73.32,73.32,0,0,0,5.64,15.54A20.26,20.26,0,0,0,798.82,665.85Z" fill="#61825d"/><path d="M795.92,667.53l-.06-.14-.19.09Z" fill="#61825d"/><path d="M779.24,664.18l2.42.48a18.09,18.09,0,0,0,1.59-2.1A10.64,10.64,0,0,1,779.24,664.18Z" fill="#61825d"/><path d="M795.86,667.39a73.32,73.32,0,0,1-5.64-15.54,26.54,26.54,0,0,1-2.15,5.37,15.19,15.19,0,0,1-4.82,5.34,18.09,18.09,0,0,1-1.59,2.1l14,2.82Z" fill="#61825d"/><path d="M788.07,657.22a26.54,26.54,0,0,0,2.15-5.37,71,71,0,0,1-1.58-8.81c-1.25,5.9-1.67,12.08-4.27,17.51a18,18,0,0,1-1.12,2A15.19,15.19,0,0,0,788.07,657.22Z" fill="#61825d"/><path d="M790,669a21.36,21.36,0,0,0,5.67-1.48l-14-2.82c-3,3.41-7.14,5.69-11.48,4.93a8.61,8.61,0,0,0,10.62-1.24c.27,2.57-1.6,4.88-3.68,6.42s-4.5,2.68-6.2,4.63a8.43,8.43,0,0,0,8.33-1,21.49,21.49,0,0,1-7.32,10.72,12.17,12.17,0,0,0,7.32-.76,15.18,15.18,0,0,1-8.58,7.35,14.57,14.57,0,0,0,15-1.68c1.14,5.16,8.18,7.92,12.53,4.9a15,15,0,0,1-8.53-9.27,6.72,6.72,0,0,0,8.77-1,13.08,13.08,0,0,1-8.14-9.3,5.91,5.91,0,0,0,8.64-.79A54.1,54.1,0,0,1,790,669Z" fill="#61825d"/><path d="M713.35,689.86c-.68-.55-.76-1.54-1.08-2.35-.38-1-1.13-1.74-1.59-2.67a10,10,0,0,1-.63-4.86,12.45,12.45,0,0,1-2.28-.12,7.9,7.9,0,0,1-.73,3.71,15,15,0,0,1-1.53,2.48l-1.23,1.76-.37-.42c-.49,1-1,2.06-1.49,3.09-.07.16-.14.37,0,.48a.35.35,0,0,0,.36,0,3.25,3.25,0,0,0,1.24-.67c.5-.45,1.15-1.11,1.72-.74.17.11.29.3.47.39.53.29,1.15-.41,1.74-.27.15,0,.31.14.46.09s.2-.17.28-.29a1.32,1.32,0,0,1,2-.1c.11.11.2.26.35.32a1.28,1.28,0,0,0,.48,0c.89,0,1.51,1.27,2.38,1.06C714.12,690.49,713.66,690.11,713.35,689.86Z" fill="#56412d"/><path d="M724.73,673.46a18.69,18.69,0,0,1-11.4-6.51,25.31,25.31,0,0,0,6.79.06,9.3,9.3,0,0,1-6.74-11.5C709.92,661,705.66,667,699.24,668a21.81,21.81,0,0,0,7.67-1.33,19.91,19.91,0,0,1-11.14,8.26,17,17,0,0,0,10.25.58,20.66,20.66,0,0,1-11.68,6l2.56-1.31a12.12,12.12,0,0,1-5.36.09c.84,3.15,4.62,4.67,7.86,4.32s6.15-2,9.17-3.25a1.67,1.67,0,0,1,.78-.17,1.79,1.79,0,0,1,1,.7,11.22,11.22,0,0,0,14.32,1.75,21.16,21.16,0,0,1-10.46-8.54A8.71,8.71,0,0,0,724.73,673.46Z" fill="#546b51"/><path d="M881,711.62c-.83-.67-.93-1.87-1.32-2.86-.45-1.17-1.37-2.11-1.93-3.24-.9-1.8-.84-3.9-.77-5.91a15,15,0,0,1-2.76-.15,9.87,9.87,0,0,1-.89,4.51,19.92,19.92,0,0,1-1.86,3l-1.5,2.14-.45-.52c-.6,1.26-1.21,2.51-1.81,3.77-.09.19-.17.45,0,.59a.5.5,0,0,0,.45,0,3.89,3.89,0,0,0,1.49-.82c.62-.55,1.41-1.35,2.1-.9.21.13.35.36.57.48.65.34,1.4-.51,2.12-.33.19.05.38.17.56.11s.25-.22.34-.35a1.6,1.6,0,0,1,2.38-.13c.13.14.24.32.43.39a1.6,1.6,0,0,0,.58,0c1.09,0,1.84,1.54,2.9,1.28C882,712.39,881.41,711.93,881,711.62Z" fill="#56412d"/><path d="M894.88,691.68A22.75,22.75,0,0,1,881,683.76a30.87,30.87,0,0,0,8.26.06c-6-1.19-10.08-8.18-8.2-14-4.22,6.68-9.39,14-17.21,15.15a26.53,26.53,0,0,0,9.34-1.61,24.27,24.27,0,0,1-13.55,10,20.58,20.58,0,0,0,12.46.71,25.18,25.18,0,0,1-14.2,7.31l3.11-1.59a14.79,14.79,0,0,1-6.52.11c1,3.83,5.62,5.68,9.56,5.25s7.48-2.48,11.15-4a1.9,1.9,0,0,1,1-.19,2.15,2.15,0,0,1,1.16.85A13.65,13.65,0,0,0,894.76,704,25.7,25.7,0,0,1,882,693.65,10.63,10.63,0,0,0,894.88,691.68Z" fill="#546b51"/><path d="M826.47,702.94c-.68-.55-.76-1.53-1.08-2.35s-1.13-1.73-1.59-2.66a10,10,0,0,1-.63-4.86,12.3,12.3,0,0,1-2.27-.12,8.06,8.06,0,0,1-.74,3.71,15.92,15.92,0,0,1-1.53,2.48l-1.23,1.75-.37-.42c-.49,1-1,2.07-1.49,3.1-.07.16-.14.36,0,.48a.4.4,0,0,0,.37,0,3.46,3.46,0,0,0,1.23-.68c.51-.44,1.15-1.1,1.72-.74.17.11.29.3.47.4.53.28,1.15-.42,1.74-.27a1,1,0,0,0,.46.09.74.74,0,0,0,.29-.29,1.31,1.31,0,0,1,2-.11,1.06,1.06,0,0,0,.35.32,1.29,1.29,0,0,0,.48,0c.89,0,1.51,1.27,2.38,1C827.24,703.57,826.78,703.2,826.47,702.94Z" fill="#56412d"/><path d="M837.85,686.55A18.68,18.68,0,0,1,826.46,680a25.3,25.3,0,0,0,6.79.05,9.31,9.31,0,0,1-6.75-11.5c-3.46,5.5-7.71,11.52-14.14,12.46a22,22,0,0,0,7.67-1.32A19.94,19.94,0,0,1,808.89,688a17,17,0,0,0,10.25.59,20.73,20.73,0,0,1-11.67,6l2.55-1.31a12.27,12.27,0,0,1-5.36.09c.84,3.15,4.62,4.66,7.86,4.31s6.15-2,9.17-3.25a1.56,1.56,0,0,1,.79-.16,1.8,1.8,0,0,1,.95.7,11.22,11.22,0,0,0,14.32,1.75,21.09,21.09,0,0,1-10.45-8.54A8.72,8.72,0,0,0,837.85,686.55Z" fill="#546b51"/><path d="M772.83,718.62c-.79-.64-.88-1.78-1.25-2.72-.44-1.12-1.31-2-1.84-3.1a11.51,11.51,0,0,1-.74-5.63,14.46,14.46,0,0,1-2.63-.15,9.4,9.4,0,0,1-.85,4.31,19.1,19.1,0,0,1-1.78,2.88c-.47.68-1,1.35-1.43,2l-.42-.49c-.58,1.2-1.16,2.4-1.73,3.6-.09.18-.16.42,0,.55a.44.44,0,0,0,.43,0,3.85,3.85,0,0,0,1.43-.78c.59-.52,1.33-1.28,2-.86.2.13.33.35.54.46.62.33,1.34-.48,2-.31.18,0,.36.16.53.1s.24-.2.33-.33a1.54,1.54,0,0,1,2.27-.13,1.21,1.21,0,0,0,.4.38,1.5,1.5,0,0,0,.56,0c1,0,1.76,1.48,2.77,1.23C773.73,719.35,773.19,718.91,772.83,718.62Z" fill="#56412d"/><path d="M786,699.6a21.58,21.58,0,0,1-13.21-7.55,28.81,28.81,0,0,0,7.87.06c-5.71-1.13-9.61-7.8-7.82-13.33-4,6.37-9,13.36-16.41,14.45a25.55,25.55,0,0,0,8.91-1.54,23.18,23.18,0,0,1-12.92,9.58,19.77,19.77,0,0,0,11.88.68,24,24,0,0,1-13.54,7l3-1.52a14.19,14.19,0,0,1-6.22.1c1,3.65,5.36,5.41,9.12,5s7.13-2.37,10.64-3.77a1.72,1.72,0,0,1,.91-.19,2,2,0,0,1,1.1.81,13,13,0,0,0,16.62,2,24.6,24.6,0,0,1-12.13-9.9A10.11,10.11,0,0,0,786,699.6Z" fill="#546b51"/><path d="M804.67,704.11s0,.08,0,.12a1.13,1.13,0,0,0,.29.24Z" fill="#56412d"/><path d="M809.59,708.7a5.43,5.43,0,0,1-.35-1.33c-.27-1.58-.54-3.16-.82-4.74a.48.48,0,0,0-.1-.28c-.22-.23-.57.07-.87.19-.57.22-1.17-.29-1.78-.34a1.2,1.2,0,0,0-1,2s0-.08,0-.12l.31.36a1.13,1.13,0,0,1-.29-.24A7.43,7.43,0,0,1,804,709a10.41,10.41,0,0,1-2.83,2.53,5.18,5.18,0,0,0-2.27,3l3.31-2.13c.81-.53,1.81-1.07,2.69-.66a1.94,1.94,0,0,0,.63.27c.71.08,1-1,1.61-1.3s1.37.09,1.94.51l3.19,2.32a2.55,2.55,0,0,0-.8-2.61A8.84,8.84,0,0,1,809.59,708.7Z" fill="#56412d"/><path d="M797.47,673.79c.45-.74.86-1.49,1.27-2.25a11.69,11.69,0,0,0,.27-2.44Z" fill="#435440"/><path d="M812.66,695.19c3.34,1.68,7.21,3.39,10.68,2q-6.36-6.21-12.11-13a14,14,0,0,0,8.42,1.75c-4.73-2.49-8.28-6.83-10.72-11.59s-3.89-9.94-5.32-15.09a57,57,0,0,1-4.87,12.27,16.34,16.34,0,0,1-3.65,7.08,39.63,39.63,0,0,1-8.06,6.69,51.24,51.24,0,0,0,14.63-.46,19.39,19.39,0,0,1-16.24,10.72,26.89,26.89,0,0,0,15.76,1.33,26.48,26.48,0,0,1-20,9.33c7.58,5.8,19.64,4.49,25.8-2.8a37.56,37.56,0,0,0,21.92,4.67A66.25,66.25,0,0,1,812.66,695.19Z" fill="#435440"/><path d="M708.39,706.54a8.72,8.72,0,0,1-3.12-5.91,2.06,2.06,0,0,0-.32-1.15c-.25-.31-.85-.35-1,0a.73.73,0,0,0,0,.36c.05,1,.11,1.92.17,2.88l-.63-1.07a5.64,5.64,0,0,1-.58,4.38c-.7,1-2,1.75-2.06,3a20.76,20.76,0,0,1,6-.67,1.75,1.75,0,0,1,1.35.38,4.71,4.71,0,0,0,.33.45.8.8,0,0,0,1.18-.33,1.39,1.39,0,0,0-.23-1.35A6.9,6.9,0,0,0,708.39,706.54Z" fill="#56412d"/><path d="M715,680.57a10.89,10.89,0,0,1-4.56-6.54,32.8,32.8,0,0,1-.85-8.1c-.29,1.41-.59,2.84-1,4.23a54.37,54.37,0,0,0,4.19,11.54A15.33,15.33,0,0,0,715,680.57Z" fill="#61825d"/><path d="M712.84,681.82l-.05-.12-.17.08Z" fill="#61825d"/><path d="M700.43,679.33l1.8.36a12.88,12.88,0,0,0,1.18-1.57A7.76,7.76,0,0,1,700.43,679.33Z" fill="#61825d"/><path d="M715.07,690a40.08,40.08,0,0,1-6.63-7.14,15.94,15.94,0,0,0,4.18-1.11l-10.39-2.09c-2.2,2.53-5.32,4.23-8.55,3.67a6.4,6.4,0,0,0,7.91-.93c.2,1.92-1.19,3.64-2.74,4.78s-3.35,2-4.61,3.45a6.26,6.26,0,0,0,6.19-.75,15.88,15.88,0,0,1-5.45,8,9.06,9.06,0,0,0,5.46-.57,11.27,11.27,0,0,1-6.39,5.47,10.84,10.84,0,0,0,11.14-1.25c.85,3.85,6.09,5.9,9.32,3.65a11.2,11.2,0,0,1-6.34-6.9,5,5,0,0,0,6.53-.75,9.73,9.73,0,0,1-6.06-6.92A4.4,4.4,0,0,0,715.07,690Z" fill="#61825d"/><path d="M707,674.15a20.28,20.28,0,0,0,1.6-4,52.12,52.12,0,0,1-1.18-6.56c-.93,4.39-1.24,9-3.17,13a14.57,14.57,0,0,1-.84,1.49A11.24,11.24,0,0,0,707,674.15Z" fill="#61825d"/><path d="M712.79,681.7a54.37,54.37,0,0,1-4.19-11.54,20.28,20.28,0,0,1-1.6,4,11.24,11.24,0,0,1-3.59,4,12.88,12.88,0,0,1-1.18,1.57l10.39,2.09Z" fill="#61825d"/><path d="M740.62,694.58c-.82-.67-.92-1.87-1.31-2.86-.45-1.17-1.37-2.11-1.93-3.24-.9-1.8-.84-3.9-.77-5.91a14.16,14.16,0,0,1-2.76-.15,9.91,9.91,0,0,1-.89,4.52,20.42,20.42,0,0,1-1.86,3l-1.5,2.13-.45-.52c-.61,1.26-1.21,2.52-1.81,3.77-.09.19-.17.45,0,.59a.5.5,0,0,0,.45,0,3.89,3.89,0,0,0,1.49-.82c.62-.54,1.41-1.34,2.1-.9.21.13.35.37.57.48.65.35,1.4-.51,2.12-.33.19.05.37.17.56.11s.25-.21.34-.35a1.6,1.6,0,0,1,2.38-.13c.13.14.24.32.42.39a1.67,1.67,0,0,0,.59,0c1.09,0,1.84,1.54,2.9,1.28C741.57,695.35,741,694.89,740.62,694.58Z" fill="#56412d"/><path d="M754.47,674.64a22.75,22.75,0,0,1-13.86-7.92,30.46,30.46,0,0,0,8.26.06c-6-1.19-10.08-8.18-8.2-14-4.22,6.68-9.39,14-17.21,15.15a26.53,26.53,0,0,0,9.34-1.61,24.22,24.22,0,0,1-13.55,10,20.58,20.58,0,0,0,12.46.71,25.06,25.06,0,0,1-14.2,7.31l3.11-1.59a14.79,14.79,0,0,1-6.52.11c1,3.83,5.62,5.68,9.56,5.25s7.48-2.48,11.15-3.95a1.81,1.81,0,0,1,1-.2,2.15,2.15,0,0,1,1.16.85A13.66,13.66,0,0,0,754.35,687a25.77,25.77,0,0,1-12.72-10.39A10.6,10.6,0,0,0,754.47,674.64Z" fill="#546b51"/><path d="M721.11,729.11c-.79-.64-.88-1.78-1.25-2.73-.44-1.12-1.31-2-1.84-3.09a11.43,11.43,0,0,1-.73-5.64,13.67,13.67,0,0,1-2.64-.14,9.38,9.38,0,0,1-.85,4.3,18.15,18.15,0,0,1-1.78,2.88l-1.43,2-.42-.49-1.73,3.59c-.09.18-.16.42,0,.56a.44.44,0,0,0,.42,0,3.78,3.78,0,0,0,1.43-.78c.59-.52,1.34-1.28,2-.86.2.13.33.35.54.46.62.33,1.34-.48,2-.31.18,0,.36.15.53.1s.24-.21.33-.34a1.54,1.54,0,0,1,2.27-.12,1.18,1.18,0,0,0,.4.37,1.5,1.5,0,0,0,.56,0c1,0,1.76,1.47,2.77,1.22C722,729.84,721.47,729.4,721.11,729.11Z" fill="#56412d"/><path d="M734.31,710.09a21.7,21.7,0,0,1-13.21-7.55,29.62,29.62,0,0,0,7.87.06c-5.71-1.14-9.61-7.8-7.82-13.34-4,6.37-8.95,13.36-16.41,14.45a25.54,25.54,0,0,0,8.91-1.53,23.16,23.16,0,0,1-12.92,9.57,19.62,19.62,0,0,0,11.88.68,24,24,0,0,1-13.54,7l3-1.52a14.15,14.15,0,0,1-6.21.11c1,3.65,5.36,5.41,9.11,5s7.13-2.36,10.64-3.77a1.82,1.82,0,0,1,.91-.19,2,2,0,0,1,1.1.81,13,13,0,0,0,16.62,2,24.54,24.54,0,0,1-12.13-9.9A10.13,10.13,0,0,0,734.31,710.09Z" fill="#546b51"/><path d="M739.13,716a8.56,8.56,0,0,1-3.06-5.78,2,2,0,0,0-.3-1.13c-.25-.31-.84-.34-1,0a.88.88,0,0,0,0,.36c.06.94.11,1.88.17,2.82l-.62-1.05a5.51,5.51,0,0,1-.56,4.29c-.69,1-1.92,1.71-2,2.91a20.24,20.24,0,0,1,5.87-.66,1.66,1.66,0,0,1,1.31.38,4.46,4.46,0,0,0,.33.43.78.78,0,0,0,1.16-.32,1.36,1.36,0,0,0-.23-1.32A6.21,6.21,0,0,0,739.13,716Z" fill="#56412d"/><path d="M745.6,690.61a10.69,10.69,0,0,1-4.46-6.41,31.39,31.39,0,0,1-.83-7.93c-.29,1.38-.59,2.78-1,4.14a53.44,53.44,0,0,0,4.11,11.3A15.13,15.13,0,0,0,745.6,690.61Z" fill="#61825d"/><path d="M731.33,689.39l1.77.35a12.23,12.23,0,0,0,1.15-1.53A7.63,7.63,0,0,1,731.33,689.39Z" fill="#61825d"/><path d="M743.49,691.83l0-.12-.17.07Z" fill="#61825d"/><path d="M737.76,684.32a18.59,18.59,0,0,0,1.57-3.91,54,54,0,0,1-1.15-6.42c-.91,4.29-1.21,8.8-3.11,12.76a12.36,12.36,0,0,1-.82,1.46A11.12,11.12,0,0,0,737.76,684.32Z" fill="#61825d"/><path d="M745.67,699.87a39.45,39.45,0,0,1-6.49-7,15.39,15.39,0,0,0,4.09-1.1l-10.17-2c-2.16,2.48-5.21,4.14-8.37,3.59a6.26,6.26,0,0,0,7.74-.9c.2,1.87-1.17,3.56-2.68,4.68s-3.28,1.95-4.52,3.37a6.13,6.13,0,0,0,6.07-.73,15.6,15.6,0,0,1-5.34,7.81,8.89,8.89,0,0,0,5.34-.55,11,11,0,0,1-6.25,5.35A10.62,10.62,0,0,0,736,711.14c.83,3.76,6,5.77,9.12,3.57a11,11,0,0,1-6.21-6.76,4.91,4.91,0,0,0,6.4-.73,9.54,9.54,0,0,1-5.94-6.78A4.32,4.32,0,0,0,745.67,699.87Z" fill="#61825d"/><path d="M743.44,691.71a53.44,53.44,0,0,1-4.11-11.3,18.59,18.59,0,0,1-1.57,3.91,11.12,11.12,0,0,1-3.51,3.89,12.23,12.23,0,0,1-1.15,1.53l10.17,2Z" fill="#61825d"/><g opacity="0.05"><path d="M202.56,875.88c-6.2-2.25-13.48-3-19.34.63-4.4,2.73-7.43,7.93-6.92,13.16s4.69,9,9.21,11.23c7.05,3.54,15,5.53,22.46,8.07,1.83.63,2.61-2.27.79-2.89-5-1.7-10-3.39-14.94-5.11-4.38-1.5-9.59-3.14-12.53-7-3.79-4.94-1.68-11.71,3.44-14.9s11.58-2.3,17-.33c1.82.66,2.6-2.24.8-2.89Z" fill="#fff"/></g><g opacity="0.08"><path d="M310.05,764.91c-5.55,2.58-12.33,4.65-17.22,8.39-2.53,1.92-4.17,4.85-2.9,8s4.71,4.59,7.62,5.56c6.56,2.2,13.47,3.65,20.15,5.44a1.5,1.5,0,0,0,.8-2.89l-12.36-3.32c-3.36-.9-7.83-1.42-10.83-3.41a4.58,4.58,0,0,1,.16-7.57,35.18,35.18,0,0,1,4.12-2.06c4-1.87,8-3.71,12-5.56,1.74-.81.22-3.4-1.52-2.59Z" fill="#fff"/></g><g opacity="0.12"><path d="M791.72,794.57c4.7,0,15.27,2.49,15.93,8.17.85,7.32-7.87,9.38-13.35,10-1.9.22-1.92,3.22,0,3,7.16-.81,16.75-3.69,16.43-12.67-.3-8.09-12.52-11.44-19-11.5a1.5,1.5,0,0,0,0,3Z" fill="#fff"/></g><g opacity="0.08"><path d="M317.35,774.17a11.22,11.22,0,0,0-10.15,3.25,1.51,1.51,0,0,0,1.06,2.56A8.43,8.43,0,0,1,316,784.1a1.5,1.5,0,0,0,2.59-1.51A11.42,11.42,0,0,0,308.26,777l1.06,2.56a8.11,8.11,0,0,1,7.24-2.48c1.89.32,2.7-2.57.79-2.89Z" fill="#fff"/></g><g opacity="0.12"><path d="M789.32,803.4a1.83,1.83,0,0,1,2.53,1.05c.29,1.23-1.23,2.14-2.29,1.83-1.85-.56-2.64,2.33-.79,2.89,3.14,1,6.7-1.93,6-5.27a4.84,4.84,0,0,0-7-3.09c-1.69.94-.18,3.54,1.51,2.59Z" fill="#fff"/></g><g opacity="0.05"><path d="M204.53,886.75c-3.47-1-6.11-4.49-10-3.73-2.7.53-5.11,2.78-4.19,5.68.58,1.83,3.48,1,2.89-.8-.35-1.11.88-1.74,1.8-1.93a4.93,4.93,0,0,1,3.5,1,22.73,22.73,0,0,0,5.22,2.66,1.5,1.5,0,0,0,.8-2.89Z" fill="#fff"/></g><g opacity="0.15"><path d="M439.22,882.22c-2.82-3.73-7-4.87-11.59-4.32a23.89,23.89,0,0,0-6.57,2c-3.64,1.59-5.93,2.58-9.91.49a27.65,27.65,0,0,0-3.52-2.09c-2.51-.91-5-.44-7.49.3-4.7,1.42-8.72,3.15-13.78,2.63-5.71-.58-11.88-6.32-17.61-3.43-.51.26-.06,1,.46.78,4.27-2.16,8.24,1.2,12.05,2.5a22.91,22.91,0,0,0,6.71,1.22c7,.2,14.45-5.9,21-2.26,3.7,2.05,5.52,3.72,9.82,2,6.35-2.58,14.36-6.28,19.61.67.35.46,1.13,0,.78-.45Z" fill="#fff"/></g><g opacity="0.15"><path d="M441,872.73a6,6,0,0,0-5.35-2.16,20.38,20.38,0,0,0-2.6.57,7.61,7.61,0,0,1-6.22.33,6.53,6.53,0,0,0-1.19-.65c-3.3-.15-6,1.47-9.3,1.49-3.49,0-6.25-2.93-9.65-1.77-.54.19-.31,1.06.24.87,2.72-.93,5.27,1.35,7.95,1.7,3.43.45,6.24-1.59,9.55-1.13,2.06.28,3.54,1.7,5.65,1.41,3.68-.5,6.74-4.13,10.28,0,.38.44,1-.2.64-.64Z" fill="#fff"/></g><g opacity="0.15"><path d="M589.58,826.44a20.39,20.39,0,0,0-10.69-1.86c-5.26.58-10,5.12-15.35,3.68-4-1.09-7-2.49-11.32-1.77-6.76,1.12-13.1,7.42-18.88-.11-.34-.46-1.13,0-.77.45a10.16,10.16,0,0,0,7.41,4.35c5.55.41,9.83-4.28,15.55-4,4.68.2,9,3.86,13.61,2.21,2.73-1,4.65-2.78,7.61-3.48a19,19,0,0,1,12.38,1.34c.52.23,1-.54.45-.78Z" fill="#fff"/></g><g opacity="0.15"><path d="M583.29,815.27a11.75,11.75,0,0,0-5.88-1c-3.07.32-5.41,2.46-8.7,2-2-.28-3.35-1.25-5.52-1-4,.37-7.64,4.11-11.09,0-.38-.44-1,.2-.64.64,4.26,5,8-.1,13.15.18,2.15.12,4.37,1.86,6.53,1.49a9.49,9.49,0,0,0,2.4-1.15,11.14,11.14,0,0,1,9.52-.28c.53.22.76-.65.23-.87Z" fill="#fff"/></g><text transform="translate(1455 640)" font-size="12" font-family="MyriadPro-Regular, Myriad Pro">le<tspan x="8.84" y="0" letter-spacing="0.01em">f</tspan><tspan x="12.48" y="0">t: -20</tspan><tspan x="37.47" y="0" letter-spacing="0.01em">v</tspan><tspan x="43.39" y="0" letter-spacing="0.02em">w</tspan><tspan x="52.51" y="0" letter-spacing="0em">;</tspan></text></g></svg>