<svg xmlns="http://www.w3.org/2000/svg" xmlns:xlink="http://www.w3.org/1999/xlink" viewBox="0 0 2618.32 836.26"><defs><linearGradient id="linear-gradient" x1="1408.16" y1="946.32" x2="1018.14" y2="27.49" gradientUnits="userSpaceOnUse"><stop offset="0" stop-color="#1b1449"/><stop offset="1"/></linearGradient></defs><title>Artboard 9</title><g id="Layer_11" data-name="Layer 11"><path d="M211,479c7-5,106-53,106-53l24-27,38-14,46-31,55-15,29-19,29-10,12-24,20-19,31-36,31-39h34l29-12,21,15,27-27,26,17,48,3,65,7,82,19,58-12,24-2,58-10,14-22,46-31,22-34,115-67,94,38,65,11,79,54,65,22,37,24s41,34,48,29,91,2,91,2l36,12,46,5,48,24,65-14,63-34,45,5,75,29,50,75,80,57,62,53,44,36,29,51-125,53-145-19-147-10-122,48-116-31-176,55-110,48H1337l-79-38-181,38L882,609s-218,23-228,14-137-16-147-21-241-27-241-27L91,592,47,561Z" fill="#ededed" stroke-miterlimit="10" stroke="url(#linear-gradient)"/></g><g id="Layer_12" data-name="Layer 12"><path d="M480.5,347.5l-31,68v80h82s49-33,52-43,29-37,29-37l39-31,77-48,29-45s38-27,38-39,22-64,22-64l-45,12s-17-9-20-8-9,9-9,9l-10-10-24,12-13-6-15,20-8-18-46,24-12-11-48,63-15,8-15,32-34,16Z" fill="#383838" opacity="0.12"/><path d="M856.5,203.5l-17,20-5,19-14,5-47,56,4,16-8,16,8,12s-11,23-11,24v38l-9,24,14,26,4,36-7,14,20-25,11-2-2,17,13-28-3-14,10-3,6,13-6,28s-3,19,0,17,19-6,18-9-4-19-3-21,6-32,6-32l-6-31,3-25-1-19,16-28,15,16s-2,16,0,18-16,49-13,44,27-50,27-50l8,6-19,47-18,10-7,25-3,18,9,10,13-3,17,7s14,7,18,6,23-2,23-2v-18s13-13,13-15,4-20,4-20l10-31s-23,38-24,36,4-34,5-36,8-28,8-28-5-16-7-14-15,25-15,25l5-29-16,28s-11,28-12,25,21-60,21-60l-16-21-19-25,1-26,7-6s-4-26-4-29,4-22,4-26,3-29,3-29Z" fill="#383838" opacity="0.12"/><path d="M947.5,230.5l14,37s14,7,22,12,28,25,28,25l-4-54s27,22,28,26,29-9,29-9,11-8,8-9-36-46-36-46l-5,17-21-25-44,13Z" fill="#383838" opacity="0.12"/><path d="M1040.5,200.5l27,20L1073,264l-40.52,22.5v18s-12,11-11,13,12,19,12,19l19-13,13,9,8,27s6-19,7-21,16,3,16,3l-9-27,9-10,21,6s21-5,18-6-31-25-31-25v-19l-4-19,17-31,15,8,8,18v18l-5,32,14-26,8,19v16l33,22,8,30,31,24s-2-47-4-48-16-31-18-31-29-16-29-16l-10-14-19-8,9-25s17,15,19,15,18,2,18,2,4,15,6,16,8-12,8-12l-8,30,19-35-9-16s-5,8-8,5-12-34-12-34l-10-22,2-11h36l30-18,29-20,8-30,4-15,6-13-6-8,10-28-115,68-22,34-46,30-14,22Z" fill="#383838" opacity="0.12"/><path d="M1235.5,250.5l4-28-4-25,24-33,20-22,12-29,18,9,18-30v37s-7,20-9,19-14,14-18,18-19,27-19,27-20,30-22,30S1235.5,250.5,1235.5,250.5Z" fill="#383838" opacity="0.12"/><path d="M1359.5,84.5s-9,24-10,30-8,27-8,27v39l-17,34,3,20-17,34-10-6-12,16,8,10-19,37-6,22,25-38,7,3,5-20,19-28v-14l15-35s8-35,9-37,8-36,8-36l3-31Z" fill="#383838" opacity="0.12"/><path d="M1403.5,108.5h11l8-9,11,4,17,9,12,3,15-8-6,15v13l12,21,8,21,15,20s-2,13,0,11,46-54,46-54l-10,41,17,13h10s7,10,8,12-8,14-10,16-5,14-5,14,4,10,3,16-2,16-2,16l5,12,20,17,21,21,10,15s7,12,5,14-11,18-10,21,15-11,15-11,12-3,12,0-3,11,0,15,3,11,3,11l-34,15-26,10s27-67,25-66-12-6-12-6l-34,6-15-27-7-32-29,37-28,26s-12,33-12,35-20,11-20,11l-27,30-7,19-15,6-34,23-23-22-19-2-14-8-27,3-11,7-18,4-13-2,32-24,16-15,16-10-8-19,17-10,10-15,14-24-9,39,24-10-18,39s-4,13-5,15,0,18,1,14,31-34,31-34l34-39,21-30s-16,38-17,40-3,26-3,23,22-23,22-23l8-25s11-6,14-9,10-11,10-11-3-10-5-13-5-25-5-25,22-14,24-14,21-14,21-14l1-25s-16-1-20-1-22-6-22-6l-14-14-6-16h-17l-17,22,17,24s8,25,8,26,10,28,7,24-19-22-19-22-23,68-23,65,16-62,14-67-10-14-14-13-12,0-19,11-18,27-19,29-8,15-9,18-10,22-10,22l-14,17s-6,18-8,18-34,40-34,40,33-82,36-82,0-13,0-13l20-23,9-23-2-13,14-18,18-27,14,5-10-41,14-16,4-13,7-6-6-20Z" fill="#383838" opacity="0.12"/><path d="M1472.5,419.5l-3,19s-3,15-4,17,1,21,0,23,0,8-6,16-10,21-15,24l-18,16-23,28-16,12s-12-39-10-36,10-20,12-21,12-35,14-33,13-16,13-16l14-20s17-20,19-19S1472.5,419.5,1472.5,419.5Z" fill="#383838" opacity="0.12"/><path d="M1809.5,371.5l-23,15s7,20,6,23-8,5-20,14-30,16-33,17-42,36-44,36-31,20-31,20-28,45-29,47-30,31-30,31l-63,58,54-23,171-54,116,31,122-48-24-42s-23-24-25-27-21-9-21-9l-3-36-10-15,5-18-6-6-9,8-2-22-10,18,1-35-18,8-33,13s-20-5-22-4S1809.5,371.5,1809.5,371.5Z" fill="#383838" opacity="0.12"/><path d="M1909.5,256.5l-8,28-17,23s-6,14-3,13,19,0,19,0l32-29,6,14-29,32-19.43,22.08,19.43-12.08,15,12,8,16,19,12,12,17,7,15,6-35s8-18,8-20,14-30,14-30l11-10,10-21,7-16-3-16,9-15v-14l11,3,3-36h-9l-63,33Z" fill="#383838" opacity="0.12"/></g></svg>