<svg xmlns="http://www.w3.org/2000/svg" viewBox="0 0 509 562"><defs><style>.cls-1{isolation:isolate;}.cls-2{fill:#dbdbdb;}.cls-11,.cls-12,.cls-13,.cls-14,.cls-15,.cls-16,.cls-2,.cls-3,.cls-4,.cls-5,.cls-6{stroke:#000;stroke-miterlimit:10;}.cls-3{fill:#dbdddd;}.cls-4{fill:none;}.cls-5{fill:#ededed;}.cls-6{fill:#01172d;}.cls-13,.cls-17,.cls-7{fill:#fff;}.cls-8{opacity:0.14;}.cls-9{fill:#4c4c4c;}.cls-10{fill:#333;}.cls-11{fill:#efb600;}.cls-12,.cls-19{fill:#004656;}.cls-14{fill:#ccc;}.cls-15{fill:#d2fffe;}.cls-16,.cls-18{fill:#089e7a;}.cls-17{mix-blend-mode:soft-light;}.cls-20{opacity:0.15;}</style></defs><title>Artboard 6</title><g class="cls-1"><g id="Layer_7" data-name="Layer 7"><path class="cls-2" d="M236.77,188.59c-1.39,1.7-7.06,8.13-8.48,11.57-4,9.69-3.28,17.29-3.09,22,.39,9.64.8,22.1,2.32,31.23,1.62,9.75,3.31.8,4.62,6.55,3.94,17.28,46.09,32.1,65.93,15.81,5-4.13-1.15-14.63-1.55-17.74-3.08-23.9-8.86-48.19-18.5-65.53C278,192.45,240.66,187,236.77,188.59Z"/><path class="cls-3" d="M314.77,250.14l-4.57,13.92a4.63,4.63,0,0,1-5.84,2.95l-48.3-15.86-8.83-2.9a21.8,21.8,0,0,1-4.64-4.53,28.44,28.44,0,0,1-5-10.71c-2.83-11.9,1.92-23.24,10.62-25.31s18,5.9,20.89,17.81a30.7,30.7,0,0,1,.76,5l42,13.78A4.65,4.65,0,0,1,314.77,250.14Z"/><line class="cls-4" x1="256.06" y1="251.15" x2="247.23" y2="248.25"/><path class="cls-5" d="M242.59,243.72a21.8,21.8,0,0,0,4.64,4.53"/><path class="cls-5" d="M279.32,186.86c-.9.74-1.85,1.45-2.82,2.1,2.48,1,4.45,2.17,4.45,3.57,0,3.77-14.51,5.11-15.65,5.31,0,0-12.53.76-21.21-.38-3.17-.42-6.32-.34-10.91-2.68-1.66-.85-3-2.33-3-3.25,0-1.35,2.81-2.39,5-3.07a36,36,0,0,1-15.13-26.68c-1.62-21.28,13.43-34.7,33.38-36.28,13.94-1.11,26,3,33.48,14.2a34.22,34.22,0,0,1,5.39,16.35A36.22,36.22,0,0,1,279.32,186.86Z"/><path class="cls-6" d="M292.37,156.05c1,12.23-3.38,20.76-8.72,26.6-20.42,5.87-36.69-14-37.07-18.72-.42-5.38,15.07-24,30.1-25.2a30.61,30.61,0,0,1,10.3,1A36.15,36.15,0,0,1,292.37,156.05Z"/><path class="cls-7" d="M265.5,150.92c2.4-1.26,4.51-2.87,7-3.95s5-1.39,7.52-2.11c2.3-.65,2.95-3.16,0-3.21-5.74-.11-14.17,3.33-17.51,8.15-1.19,1.71,2.27,1.48,3,1.12Z"/><g class="cls-8"><path class="cls-9" d="M276.11,188.06a72.65,72.65,0,0,0-11.33,2.09c-.48.12-1.36.93-.46,1.19a18.28,18.28,0,0,0,12.25-1.1c1.39-.67,1.32-2.36-.46-2.18Z"/></g><path class="cls-7" d="M229.6,142.15c3.05-2.69,5.23-6,8.61-8.43a54.08,54.08,0,0,1,10.38-5.25c.75-.33.66-1.23-.24-1.13a23.55,23.55,0,0,0-12,5c-3,2.27-7.11,5.72-7.79,9.62-.1.57.85.36,1.07.16Z"/><path class="cls-7" d="M233,191.22l-.25.41a.35.35,0,0,0,0,.37c.82,1.35,2.8,2.09,4.19,2.73a11.59,11.59,0,0,0,5.4,1.41c.37,0,1.46-.59.79-1-1.38-.86-3.06-1-4.59-1.58a16.43,16.43,0,0,1-4.91-2.47.48.48,0,0,0-.63.13Z"/></g><g id="Layer_4" data-name="Layer 4"><path class="cls-10" d="M379.48,423.94a68.07,68.07,0,1,1,68.07-68.07A68.15,68.15,0,0,1,379.48,423.94Zm0-128.68a60.61,60.61,0,1,0,60.62,60.61A60.68,60.68,0,0,0,379.48,295.26Z"/><path d="M379.48,288.3a67.57,67.57,0,1,1-67.57,67.57,67.64,67.64,0,0,1,67.57-67.57m0,128.68a61.11,61.11,0,1,0-61.11-61.11A61.18,61.18,0,0,0,379.48,417m0-129.68a68.57,68.57,0,1,0,68.57,68.57,68.57,68.57,0,0,0-68.57-68.57Zm0,128.68a60.11,60.11,0,1,1,60.12-60.11A60.11,60.11,0,0,1,379.48,416Z"/><line class="cls-4" x1="379.48" y1="355.87" x2="379.48" y2="415.98"/><line class="cls-4" x1="379.48" y1="355.87" x2="363.92" y2="413.94"/><line class="cls-4" x1="379.48" y1="355.87" x2="349.43" y2="407.93"/><line class="cls-4" x1="379.48" y1="355.87" x2="336.98" y2="398.38"/><line class="cls-4" x1="379.48" y1="355.87" x2="327.42" y2="385.93"/><line class="cls-4" x1="379.48" y1="355.87" x2="321.42" y2="371.43"/><line class="cls-4" x1="379.48" y1="355.87" x2="319.37" y2="355.87"/><line class="cls-4" x1="379.48" y1="355.87" x2="321.42" y2="340.31"/><line class="cls-4" x1="379.48" y1="355.87" x2="327.42" y2="325.81"/><line class="cls-4" x1="379.48" y1="355.87" x2="336.98" y2="313.36"/><line class="cls-4" x1="379.48" y1="355.87" x2="349.43" y2="303.81"/><line class="cls-4" x1="379.48" y1="355.87" x2="363.92" y2="297.81"/><line class="cls-4" x1="379.48" y1="355.87" x2="379.48" y2="295.76"/><line class="cls-4" x1="379.48" y1="355.87" x2="395.04" y2="297.81"/><line class="cls-4" x1="379.48" y1="355.87" x2="409.54" y2="303.81"/><line class="cls-4" x1="379.48" y1="355.87" x2="421.99" y2="313.36"/><line class="cls-4" x1="379.48" y1="355.87" x2="431.54" y2="325.81"/><line class="cls-4" x1="379.48" y1="355.87" x2="437.55" y2="340.31"/><line class="cls-4" x1="379.48" y1="355.87" x2="439.6" y2="355.87"/><line class="cls-4" x1="379.48" y1="355.87" x2="437.55" y2="371.43"/><line class="cls-4" x1="379.48" y1="355.87" x2="431.54" y2="385.93"/><line class="cls-4" x1="379.48" y1="355.87" x2="421.99" y2="398.38"/><line class="cls-4" x1="379.48" y1="355.87" x2="409.54" y2="407.93"/><line class="cls-4" x1="379.48" y1="355.87" x2="395.04" y2="413.94"/><path class="cls-10" d="M146,423.94a68.07,68.07,0,1,1,68.07-68.07A68.14,68.14,0,0,1,146,423.94Zm0-128.68a60.61,60.61,0,1,0,60.62,60.61A60.68,60.68,0,0,0,146,295.26Z"/><path d="M146,288.3a67.57,67.57,0,1,1-67.56,67.57A67.64,67.64,0,0,1,146,288.3M146,417a61.11,61.11,0,1,0-61.11-61.11A61.18,61.18,0,0,0,146,417m0-129.68a68.57,68.57,0,1,0,68.57,68.57A68.57,68.57,0,0,0,146,287.3ZM146,416a60.11,60.11,0,1,1,60.12-60.11A60.11,60.11,0,0,1,146,416Z"/><line class="cls-4" x1="145.98" y1="355.87" x2="145.98" y2="415.98"/><line class="cls-4" x1="145.98" y1="355.87" x2="130.43" y2="413.94"/><line class="cls-4" x1="145.98" y1="355.87" x2="115.93" y2="407.93"/><line class="cls-4" x1="145.98" y1="355.87" x2="103.48" y2="398.38"/><line class="cls-4" x1="145.98" y1="355.87" x2="93.92" y2="385.93"/><line class="cls-4" x1="145.98" y1="355.87" x2="87.92" y2="371.43"/><line class="cls-4" x1="145.98" y1="355.87" x2="85.87" y2="355.87"/><line class="cls-4" x1="145.98" y1="355.87" x2="87.92" y2="340.31"/><line class="cls-4" x1="145.98" y1="355.87" x2="93.92" y2="325.81"/><line class="cls-4" x1="145.98" y1="355.87" x2="103.48" y2="313.36"/><line class="cls-4" x1="145.98" y1="355.87" x2="115.93" y2="303.81"/><line class="cls-4" x1="145.98" y1="355.87" x2="130.43" y2="297.81"/><line class="cls-4" x1="145.98" y1="355.87" x2="145.98" y2="295.76"/><line class="cls-4" x1="145.98" y1="355.87" x2="161.54" y2="297.81"/><line class="cls-4" x1="145.98" y1="355.87" x2="176.04" y2="303.81"/><line class="cls-4" x1="145.98" y1="355.87" x2="188.49" y2="313.36"/><line class="cls-4" x1="145.98" y1="355.87" x2="198.04" y2="325.81"/><line class="cls-4" x1="145.98" y1="355.87" x2="204.05" y2="340.31"/><line class="cls-4" x1="145.98" y1="355.87" x2="206.1" y2="355.87"/><line class="cls-4" x1="145.98" y1="355.87" x2="204.05" y2="371.43"/><line class="cls-4" x1="145.98" y1="355.87" x2="198.04" y2="385.93"/><line class="cls-4" x1="145.98" y1="355.87" x2="188.49" y2="398.38"/><line class="cls-4" x1="145.98" y1="355.87" x2="176.04" y2="407.93"/><line class="cls-4" x1="145.98" y1="355.87" x2="161.54" y2="413.94"/><rect class="cls-11" x="89" y="357" width="19" height="10" rx="1.71" ry="1.71" transform="translate(435.62 197.4) rotate(79.2)"/><path class="cls-12" d="M62,415.49s117.07,2.08,107.92-32.08a372.71,372.71,0,0,0,40.73,10.18C209.68,400.88,198.13,448.16,62,415.49Z"/><path class="cls-12" d="M62,210.71s117.07-2.08,107.92,32.09a372.83,372.83,0,0,1,40.73-10.19C209.68,225.32,198.13,178,62,210.71Z"/><path class="cls-13" d="M368.45,246.13a254,254,0,0,0-56.35-15.78C302.71,238.49,284.7,244,264,244c-19.76,0-37.09-5-46.78-12.57a388,388,0,0,0-73.06,20.26q-14.59,5.55-29.87,12.55V362q15.27,7,29.87,12.55,13.16,5,25.76,8.9a372.71,372.71,0,0,0,40.73,10.18c65.43,12.41,118,2.79,157.8-13.52,61.91-25.38,92.8-67,92.8-67S430.36,271.51,368.45,246.13Z"/><path class="cls-12" d="M368.45,380.07a429.77,429.77,0,0,1,0-133.94c61.91,25.38,92.8,67,92.8,67S430.36,354.69,368.45,380.07Z"/><circle class="cls-14" cx="291.08" cy="313.1" r="40.52"/><path class="cls-15" d="M324.85,313.1a33.75,33.75,0,0,1-.75,7.08c-.16.76-.35,1.52-.56,2.27s-.52,1.7-.84,2.52a32.75,32.75,0,0,1-1.37,3.16c-.37.74-.76,1.46-1.18,2.17a34.22,34.22,0,0,1-2.7,3.9A33.77,33.77,0,1,1,273.88,284c.71-.42,1.43-.82,2.18-1.19a31.54,31.54,0,0,1,3.15-1.37c.83-.31,1.67-.59,2.52-.83s1.51-.41,2.27-.57a33.77,33.77,0,0,1,40.85,33Z"/><path class="cls-4" d="M324.85,313.1a33.75,33.75,0,0,1-.75,7.08c-.16.76-.35,1.52-.56,2.27s-.52,1.7-.84,2.52a32.75,32.75,0,0,1-1.37,3.16c-.37.74-.76,1.46-1.18,2.17a34.22,34.22,0,0,1-2.7,3.9A33.77,33.77,0,1,1,273.88,284c.71-.42,1.43-.82,2.18-1.19a31.54,31.54,0,0,1,3.15-1.37c.83-.31,1.67-.59,2.52-.83s1.51-.41,2.27-.57a33.77,33.77,0,0,1,40.85,33Z"/><path class="cls-16" d="M144.16,374.51Q129.57,369,114.29,362V264.24q15.27-7,29.87-12.55Z"/><path class="cls-17" d="M461.25,313.1c-.48.64-31.37,41.78-92.79,67-39.79,16.31-92.37,25.93-157.8,13.52a372.71,372.71,0,0,1-40.73-10.18q-12.6-3.9-25.76-8.9Q129.57,369,114.3,362V332.87c41.15,13.69,93.12,22,149.6,22.4C345.4,355.89,417.47,339.31,461.25,313.1Z"/><path class="cls-18" d="M140.16,257.53V368.67c-7.23-2.86-14.56-6-21.87-9.28V266.81c7.29-3.31,14.62-6.41,21.87-9.28m4-5.84q-14.59,5.55-29.87,12.55V362q15.27,7,29.87,12.55V251.69Z"/><path class="cls-4" d="M144.16,374.51Q129.57,369,114.29,362V264.24q15.27-7,29.87-12.55Z"/><path class="cls-19" d="M371.61,251.81A246.79,246.79,0,0,1,435.23,292a192.83,192.83,0,0,1,20.9,21.13c-7.33,8.81-35.64,40.06-84.52,61.29a428.11,428.11,0,0,1,0-122.58m-3.16-5.68a429.77,429.77,0,0,0,0,133.94c61.91-25.38,92.8-67,92.8-67s-30.89-41.59-92.8-67Z"/><path class="cls-4" d="M368.45,380.07a429.77,429.77,0,0,1,0-133.94c61.91,25.38,92.8,67,92.8,67S430.36,354.69,368.45,380.07Z"/><polygon class="cls-12" points="62 312.76 138.97 309.15 210.65 309.15 210.65 316.38 138.97 316.38 62 312.76"/><path class="cls-17" d="M324.61,318.06a26.3,26.3,0,0,1-.46,2.68c-.15.77-.34,1.53-.55,2.27s-.53,1.7-.84,2.53c-.41,1.07-.86,2.13-1.37,3.15-.37.75-.77,1.47-1.19,2.18a32.62,32.62,0,0,1-2.7,3.9,33.76,33.76,0,0,1-55.74-4.45q2.53.09,5.13.09C289.94,330.41,310.6,325.63,324.61,318.06Z"/></g><g id="Layer_6" data-name="Layer 6"><g class="cls-20"><path class="cls-9" d="M231.79,196c2.16,2.32,5.29,2.71,8.33,3.17,4.84.75,9.71,1.45,14.57,2.08,9.05,1.17,17.84-1.67,26.18-5.09,2.42-1,1.07-3.35-1.23-2.75-8.3,2.18-15.31,5.87-24.14,5-7.53-.71-14.92-1.47-22.23-3.38-.37-.1-2.14.24-1.48.94Z"/></g><g class="cls-20"><path class="cls-9" d="M225.73,235.38c3.77,3.31,9.85,4.41,14.7,4.84.4,0,1.36-.24,1-.81-1.12-1.95-2.2-3.93-3.4-5.84-.33-.52-1.7-.09-1.36.55,1,2,2.2,3.92,3.31,5.88l1-.81c-5.34-.52-9.67-2.6-14.63-4.35-.28-.09-1.08.18-.68.54Z"/></g><g class="cls-20"><path class="cls-9" d="M244,210.16c-8.25,8.29-8.87,21.56-2.06,30.92.23.32,1.13,0,.87-.35-6.63-10-5.78-21.14,1.65-30.4.23-.28-.3-.34-.46-.17Z"/></g></g></g></svg>