<?xml version="1.0" encoding="UTF-8"?>
<svg width="135px" height="77px" viewBox="0 0 135 77" version="1.1" xmlns="http://www.w3.org/2000/svg" xmlns:xlink="http://www.w3.org/1999/xlink">
    <!-- Generator: Sketch 50.2 (55047) - http://www.bohemiancoding.com/sketch -->
    <title>progresbar ship</title>
    <desc>Created with Sketch.</desc>
    <defs></defs>
    <g id="Page-1" stroke="none" stroke-width="1" fill="none" fill-rule="evenodd">
        <g id="Artboard" transform="translate(-692.000000, -1072.000000)">
            <g id="progressbar" transform="translate(90.000000, 995.000000)">
                <g id="progresbar-ship" transform="translate(602.000000, 78.000000)">
                    <path d="M0,71.332558 C0,71.332558 39.3777329,72.0024994 36.3000336,61 C40.7987268,62.3385619 45.3726366,63.4332475 50,64.2788479 C49.6737302,66.6268637 45.7887656,81.8551474 0,71.332558 Z" id="Shape" stroke="#000000" fill="#004656" fill-rule="nonzero"></path>
                    <path d="M0,3.67061807 C0,3.67061807 39.3777329,3.00109128 36.3000336,14 C40.7986825,12.6612591 45.3725886,11.5661773 50,10.7199625 C49.6737302,8.37339993 45.7887656,-6.85833435 0,3.67061807 Z" id="Shape" stroke="#000000" fill="#004656" fill-rule="nonzero"></path>
                    <path d="M102.973945,15.400451 C96.9182911,12.951124 90.5964689,11.2016459 84.1343094,10.1868385 C79.1039535,9.09891425 74.9017288,9 67.9810463,9 C61.3746363,9 56.624437,9.61329704 52.412843,10.5436637 C44.0691292,11.9815549 35.8879707,14.2235143 27.9865114,17.2374399 C24.7345707,18.4598966 21.4057336,19.8420435 18,21.3838808 L18,53.6831682 C21.4035047,55.2250054 24.7323419,56.6071523 27.9865114,57.829609 C30.9197218,58.9309213 33.7905234,59.9110893 36.5989163,60.7701129 C41.0704845,62.1431957 45.6168159,63.2661126 50.2162785,64.1335207 C72.0916532,68.2337064 89.6675121,65.0553191 102.973945,59.6665979 C123.672469,51.281206 134,37.5302205 134,37.5302205 C134,37.5302205 123.672469,23.7858429 102.973945,15.400451 Z" id="Shape" stroke="#000000" fill="#FFFFFF" fill-rule="nonzero"></path>
                    <path d="M102.76694,60 C100.41102,45.4234658 100.41102,30.5765342 102.76694,16 C123.603564,24.3374645 134,38.0098552 134,38.0098552 C134,38.0098552 123.603564,51.6625355 102.76694,60 Z" id="Shape" stroke="#000000" fill="#004656" fill-rule="nonzero"></path>
                    <circle id="Oval" stroke="#000000" fill="#CCCCCC" fill-rule="nonzero" cx="76.5" cy="37.5" r="13.5"></circle>
                    <path d="M87.9999999,37.0189803 C88.0001084,37.7945734 87.9144159,38.5680022 87.7443524,39.3263599 C87.6898143,39.5740447 87.6250503,39.8217295 87.553469,40.0661553 C87.4818877,40.3105811 87.3762201,40.6201872 87.2671438,40.887426 C87.1304833,41.2383021 86.9746069,41.5820599 86.8001611,41.9172734 C86.6740417,42.1584402 86.541105,42.393089 86.3979424,42.6244787 C86.1222834,43.0679933 85.8147679,43.4926847 85.4776115,43.8954929 C82.5898243,47.3250404 77.8421307,48.7790289 73.407686,47.5919263 C68.9732413,46.4048237 65.7055022,42.8051008 65.1002064,38.4404537 C64.4949106,34.0758066 66.6685539,29.7862588 70.6261974,27.5352591 C70.8682104,27.3983807 71.113632,27.2680202 71.3692794,27.1474369 C71.7184374,26.980071 72.0768753,26.8310219 72.4429988,26.7009524 C72.7259154,26.5999231 73.0122406,26.5086708 73.3019744,26.4304545 C73.5917082,26.3522382 73.8166779,26.2968351 74.0757341,26.2446909 C77.4738103,25.5480612 81.0191706,26.3565601 83.7225728,28.4445966 C86.4259749,30.532633 87.9979946,33.6766634 87.9999999,36.9994262 L87.9999999,37.0189803 Z" id="Shape" stroke="#000000" fill="#D2FFFE" fill-rule="nonzero"></path>
                    <path d="M87.9999999,37.0189803 C88.0001084,37.7945734 87.9144159,38.5680022 87.7443524,39.3263599 C87.6898143,39.5740447 87.6250503,39.8217295 87.553469,40.0661553 C87.4818877,40.3105811 87.3762201,40.6201872 87.2671438,40.887426 C87.1304833,41.2383021 86.9746069,41.5820599 86.8001611,41.9172734 C86.6740417,42.1584402 86.541105,42.393089 86.3979424,42.6244787 C86.1222834,43.0679933 85.8147679,43.4926847 85.4776115,43.8954929 C82.5898243,47.3250404 77.8421307,48.7790289 73.407686,47.5919263 C68.9732413,46.4048237 65.7055022,42.8051008 65.1002064,38.4404537 C64.4949106,34.0758066 66.6685539,29.7862588 70.6261974,27.5352591 C70.8682104,27.3983807 71.113632,27.2680202 71.3692794,27.1474369 C71.7184374,26.980071 72.0768753,26.8310219 72.4429988,26.7009524 C72.7259154,26.5999231 73.0122406,26.5086708 73.3019744,26.4304545 C73.5917082,26.3522382 73.8166779,26.2968351 74.0757341,26.2446909 C77.4738103,25.5480612 81.0191706,26.3565601 83.7225728,28.4445966 C86.4259749,30.532633 87.9979946,33.6766634 87.9999999,36.9994262 L87.9999999,37.0189803 Z" id="Shape" stroke="#000000"></path>
                    <path d="M28,57 C24.743667,55.8036693 21.4103337,54.4455843 18,52.925745 L18,21.0872822 C21.4081018,19.5674429 24.7414351,18.2050155 28,17 L28,57 Z" id="Shape" stroke="#000000" fill="#089E7A" fill-rule="nonzero"></path>
                    <path d="M134,38 C133.839516,38.2079628 123.511688,51.5760713 102.976394,59.7711053 C89.6729212,65.0709072 72.0932123,68.196848 50.2172071,64.1643194 C45.6176119,63.3112244 41.0711495,62.2068368 36.5994524,60.8564112 C33.7909785,60.0115623 30.9200942,59.0475681 27.9867993,57.9644285 C24.7325359,56.7643099 21.4036028,55.4060529 18,53.8896575 L18,44.4241008 C31.7581784,48.872555 49.1339386,51.5728219 68.0175818,51.7027987 C95.2664649,51.9042626 119.362502,46.5167264 134,38 Z" id="Shape" fill="#FFFFFF" fill-rule="nonzero" style="mix-blend-mode: soft-light;"></path>
                    <path d="M26.6608637,18.9013511 L26.6608637,55.0856259 C24.240375,54.1544848 21.7864078,53.132183 19.3391363,52.0643008 L19.3391363,21.9226762 C21.7797121,20.8450269 24.2336793,19.835748 26.6608637,18.9013511 Z M28,17 C24.743667,18.2046231 21.4103337,19.566607 18,21.0859515 L18,52.9140485 C21.4081018,54.433393 24.7414351,55.7953769 28,57 L28,17 Z" id="Shape" fill="#089E7A" fill-rule="nonzero"></path>
                    <path d="M28,57 C24.743667,55.8036693 21.4103337,54.4455843 18,52.925745 L18,21.0872822 C21.4081018,19.5674429 24.7414351,18.2050155 28,17 L28,57 Z" id="Shape" stroke="#000000"></path>
                    <path d="M103.83048,16.8749254 C111.617354,20.1800883 118.838666,24.6307209 125.242627,30.0716418 C127.766811,32.2043851 130.118517,34.5240093 132.276797,37.0098507 C129.809789,39.9026866 120.281686,50.1638806 103.83048,57.1349254 C101.851498,43.7876698 101.851498,30.2320317 103.83048,16.8847761 L103.83048,16.8749254 Z M102.76694,15.0197015 C100.41102,29.5897089 100.41102,44.4299926 102.76694,59 C123.603564,50.6662687 134,37 134,37 C134,37 123.603564,23.3435821 102.76694,15 L102.76694,15.0197015 Z" id="Shape" fill="#004656" fill-rule="nonzero"></path>
                    <path d="M102.76694,60 C100.41102,45.4234658 100.41102,30.5765342 102.76694,16 C123.603564,24.3374645 134,38.0098552 134,38.0098552 C134,38.0098552 123.603564,51.6625355 102.76694,60 Z" id="Shape" stroke="#000000"></path>
                    <polygon id="Shape" stroke="#000000" fill="#004656" fill-rule="nonzero" points="0 36.9986169 25.8896737 36 50 36 50 38 25.8896737 38"></polygon>
                    <path d="M88,39 C87.9642421,39.3065265 87.9129404,39.6109638 87.8463007,39.9120913 C87.7961814,40.1741474 87.7326969,40.4328002 87.6625298,40.6846463 C87.5923628,40.9364924 87.4854415,41.2632116 87.3818616,41.5456877 C87.2448687,41.9098435 87.0945107,42.2705961 86.924105,42.6177353 C86.8004773,42.8729847 86.6668258,43.1180242 86.5264916,43.3596603 C86.2577976,43.8238061 85.9562847,44.267411 85.6243437,44.6869574 C83.2859538,47.664796 79.6494485,49.2669455 75.9176268,48.9634841 C72.185805,48.6600227 68.8449229,46.4904914 67,43.1724774 C67.563564,43.1928974 68.1349244,43.2031073 68.7140811,43.2031073 C76.4157518,43.2031073 83.3188544,41.5763176 88,39 Z" id="Shape" fill="#FFFFFF" fill-rule="nonzero" style="mix-blend-mode: soft-light;"></path>
                </g>
            </g>
        </g>
    </g>
</svg>