<svg xmlns="http://www.w3.org/2000/svg" viewBox="0 0 447.89 231.54"><defs><style>.cls-1{fill:#fff;opacity:0.54;}</style></defs><title>sky1</title><g id="Layer_14" data-name="Layer 14"><path class="cls-1" d="M376.3,112.94q-39-3.84-78.06-7.5a47.08,47.08,0,0,0-3.18-6.71c8.12-8.24,13.29-18.47,11.9-31-1.29-11.56-8.18-20.48-17.48-27-8.2-21.08-37.67-31.93-58.16-32.05-31.16-.17-59.37,3.85-86.64,19.86-15.46,9.08-28.2,23.89-31.65,38.87-8.16,5.69-15,12.77-18.54,21.63-28,1.91-60.66,13.84-72,38.91-10.28,22.65,1.66,40.4,20.16,50.85a38.1,38.1,0,0,0,.91,17C47.76,211.72,66.41,212.38,80,210c14.07,1.31,28.67-.37,42.67-.38,26.56,0,53,0,79.55-1.08,48.27-2,96.67-1.6,145,0,30.12,1,77.78-9,87.26-43.19C444,130.62,402.57,115.53,376.3,112.94Z"/></g></svg>