<svg xmlns="http://www.w3.org/2000/svg" viewBox="0 0 350.12 183.49"><defs><style>.cls-1{fill:#fff;opacity:0.65;}</style></defs><title>sky2</title><g id="Layer_14" data-name="Layer 14"><path class="cls-1" d="M284.93,52.3c-2-22-37.34-39.58-80.7-39.58-32.1,0-59.83,9.62-72.87,23.55C93.14,39.5,64.13,55.08,64.13,73.82v0c-24.55.6-44.07,10.24-44.07,22.05,0,8.87,11,16.51,26.9,20-3.28,3.72-5.06,7.72-5.06,11.88,0,20,41,36.13,91.54,36.13,47,0,85.65-14,90.92-31.94A165.31,165.31,0,0,0,252,134.28c47.28,0,85.61-19.08,85.61-42.62C337.65,73.93,315.88,58.72,284.93,52.3Z"/></g></svg>