<svg xmlns="http://www.w3.org/2000/svg" viewBox="0 0 356.03 157.49"><defs><style>.cls-1{fill:#fff;opacity:0.77;}</style></defs><title>sky4</title><g id="Layer_14" data-name="Layer 14"><path class="cls-1" d="M318.31,81.82C318.31,70,297,59.4,263.5,52.32c-6.44-10.26-22.86-17.72-42.42-18.38C208.09,18.7,177.86,8,142.64,8,95.56,8,57.39,27.1,57.39,50.64a21,21,0,0,0,.28,3.27C28.27,60.94,10,70.84,10,81.82c0,21.32,69,38.59,154.18,38.59A572.59,572.59,0,0,0,225,117.29a135.84,135.84,0,0,0,30,3.12c29.27,0,53-8,53-17.78a7.84,7.84,0,0,0-2.46-5.37C313.72,92.53,318.31,87.31,318.31,81.82Z"/></g></svg>