<svg xmlns="http://www.w3.org/2000/svg" viewBox="0 0 396.98 216.06"><defs><style>.cls-1{fill:#fff;opacity:0.68;}</style></defs><title>sky6</title><g id="Layer_14" data-name="Layer 14"><path class="cls-1" d="M299.94,97.3c-4.11-11.86-18.15-17.66-33.66-20.65-1.59-4.64-5.42-8.89-12.11-12a186.75,186.75,0,0,0-27.24-10.2A44.28,44.28,0,0,0,218,50.27a25.1,25.1,0,0,0-4.34-8.8c-15-20.13-55.25-16.11-65.52,7.08a6.31,6.31,0,0,0-1.56,2.53c-10.13,7.86-10.93,16.4-6.85,23.55-6.48.72-13,1.54-19.44,2.55-14.79,2.3-36.65,9.49-38.15,27.34-1.49,17.64,18.67,24.25,32.77,25.85a236.44,236.44,0,0,0,97.61-9.69c1.92-.12,3.85-.3,5.77-.4,25.81-1.4,56.84,2.76,78.85-13.56C300.52,104.26,301.22,101,299.94,97.3Z"/></g></svg>