<svg xmlns="http://www.w3.org/2000/svg" viewBox="0 0 299.36 152.28"><defs><style>.cls-1{fill:#fff;opacity:0.8;}</style></defs><title>sky7</title><g id="Layer_14" data-name="Layer 14"><path class="cls-1" d="M216,81.19q-9.37,0-18.74.21c-1.39-8.51-8.59-16.13-21.49-19.06C169.8,61,163.85,59.91,157.88,59c3.14-4.13,5-8.88,3.69-13.65-4.81-17.5-14.65-24.15-31.84-29-14.65-4.13-34.76-.17-46.47,9.82-5.81,4.95-10,13.49-8.78,21a30,30,0,0,0-6.37,8C54.45,57.85,40.63,64.59,37,77.87a16.83,16.83,0,0,0,3.45,16,25.74,25.74,0,0,0-9,13.36c-.14.52-.18,1-.28,1.51-13.19,8.28-11.6,26,8.36,25.3,4.19-.14,8.39-.32,12.59-.49A55.71,55.71,0,0,0,64,135.73c49.26,3.21,98.78-1,147.89-5,13.7-1.12,33.94-10.34,35-26S229.18,81.16,216,81.19Z"/></g></svg>