<?xml version="1.0" encoding="utf-8"?>
<!-- Generator: Adobe Illustrator 22.1.0, SVG Export Plug-In . SVG Version: 6.00 Build 0)  -->
<svg version="1.1" id="Layer_1" xmlns="http://www.w3.org/2000/svg" xmlns:xlink="http://www.w3.org/1999/xlink" x="0px" y="0px"
	 viewBox="0 0 506.9 562" style="enable-background:new 0 0 506.9 562;" xml:space="preserve">
<style type="text/css">
	.st0{fill:#919191;stroke:#434444;stroke-width:0.5;stroke-miterlimit:10;}
	.st1{fill:#898989;stroke:#000000;stroke-width:0.5;stroke-miterlimit:10;}
	.st2{opacity:0.3;}
	.st3{opacity:0.35;}
	.st4{fill:#FFFFFF;}
	.st5{fill:#D6D6D6;stroke:#000000;stroke-width:0.5;stroke-miterlimit:10;}
	.st6{fill:#D8D8D8;stroke:#000000;stroke-width:0.5;stroke-miterlimit:10;}
	.st7{fill:#898989;stroke:#898989;stroke-width:0.5;stroke-miterlimit:10;}
	.st8{stroke:#000000;stroke-width:0.5;stroke-miterlimit:10;}
	.st9{fill:#B21818;}
	.st10{fill:none;stroke:#000000;stroke-width:0.5;stroke-miterlimit:10;}
	.st11{fill:none;stroke:#000000;stroke-width:0.45;stroke-miterlimit:10;}
</style>
<title>sputnik</title>
<g id="Layer_8">
	<path class="st0" d="M286.4,282.6c-0.1,0.5-0.5,1-1.1,0.9l-42.1-4.2c-0.1,0.1-0.2,0.3-0.4,0.4c-0.4,0.3-0.9,0.5-1.5,0.5l-3-0.3
		c-0.7-0.1-1.3-0.5-1.6-1.2l-104-10.3c-0.1,0.1-0.2,0.3-0.4,0.4c-0.4,0.3-0.9,0.5-1.5,0.5l-3-0.3c-0.7-0.1-1.3-0.5-1.6-1.2L99.2,265
		l0.2-2l27.1,2.7c0.8-0.9,1.3-0.9,1.8-0.8l3,0.3c0.7,0.1,1.3,0.5,1.6,1.2l104,10.3c0.1-0.1,0.2-0.3,0.4-0.4c0.4-0.3,0.9-0.5,1.5-0.4
		l3,0.3c0.7,0.1,1.3,0.5,1.6,1.2l42.1,4.2C286,281.6,286.4,282,286.4,282.6z"/>
	<circle class="st1" cx="140.1" cy="260.8" r="49.5"/>
	<g class="st2">
		<path d="M167.7,220.9c6.3,5.4,11.9,10.3,15.5,17.9c3.6,7.7,4.8,15.3,5.2,23.6c0,0.5,1,0,1-0.4c0.5-16.6-7.5-32.3-21.2-41.6
			C168,220.3,167.4,220.7,167.7,220.9L167.7,220.9z"/>
	</g>
	<g class="st2">
		<path d="M162,305c14.7-7.4,25.8-23.1,27.1-39.6c0.1-0.8-1.2-0.3-1.3,0.2c-2.5,16.8-11.4,30.4-26.1,38.9
			C161.3,304.8,161.5,305.2,162,305L162,305z"/>
	</g>
	<g class="st3">
		<path class="st4" d="M111.4,248.6c4.2-5,8-9.8,13.4-13.6c2.4-1.7,5-3,7.7-4.1c1.7-0.6,6.4-2.5,7.6-2l-2.3-1.7l0.3,0.9l-0.4-2.9
			c0.5-1.7,1.3-1.5-0.4-0.5c-0.9,0.5-1.7,1.2-2.6,1.8c-1.8,1.1-3.8,2.1-5.7,3.1c-4.5,2.4-8.5,5.4-12,9.1c-3,3.3-5.4,7.1-7,11.2
			c-0.7,1.9-1.3,3.9-1.8,5.9c-0.5,2.3-0.3,5.3-1.3,7.4l4.5-4.7l-0.7,0.5l8-1.6l-1-0.4l2.5,1.8c-1.2-2.3-1.7-5-1.4-7.6
			c0.3-2.7,1.9-5.1,1.1-7.8c-1.6-5.4-8.7-2.8-11.7-0.2c-5.9,5-7,13.9-4.8,21.1c1,3.3,2.5,5.7,6.1,6.2c4.1,0.6,8.8-2,11.2-5.2
			c4.2-5.4,2.5-13.2,6.6-19c3.8-5.5,10.1-7.5,15.4-11.2c4.1-2.9,13.7-10.6,9.1-16.5c-4.1-5.2-15.3-0.5-20.1,1.4
			c-12.3,4.9-25.8,14.9-29.2,28.4C101,253.9,109.8,250.4,111.4,248.6L111.4,248.6z"/>
	</g>
	<path class="st4" d="M108.2,260.7c-0.5-1.5,0.8-4,0.9-5.6c0.2-2,0.6-4,1.4-5.9c1.2-3,2.5-6.2,5.1-8.4l-9.4,1.9l1.2,0.9l0.1-3.9
		c-4.4,6.7-8.4,13.3-7.3,21.7c0.2,0.9,0.8,1.7,1.7,1.9l0.9,0.3c2.4,0.9,6.1-1.6,6.6-4c0.6-3.1,0.4-6.3,1-9.4
		c0.7-3.4,2.5-6.4,4.1-9.5l-2.2,2.4l1.9-1.2c3.6-2.3,6.9-9.1,0.2-9.6c-7.6-0.5-13.4,8.6-16,14.7c-1.4,3.1-2,6.4-1.9,9.8
		c0,1.6,0.5,3.2,1.6,4.5c0.9,1,2.9,1.4,3.5,2.6C102.7,266.8,109.1,263.3,108.2,260.7L108.2,260.7z"/>
	<g class="st2">
		<path d="M159.8,263.4c0.9,2.2,4.8,2.7,6.8,1.8c0.2-0.1,0.4-0.6,0.6-0.7c1-0.2,2-0.2,3,0c3.7,0.6,7.5,0.8,11.3,0.8
			c0.6,0,1.5-1.3,0.6-1.2c-3,0-6-0.2-9-0.6c-1.5-0.2-4.5-1-5.8-0.4c-0.5,0.2-0.9,1.1-1.3,1.2c-1.2,0.4-5.2-1-5.7-1.4
			C160.1,262.8,159.7,263.1,159.8,263.4L159.8,263.4z"/>
	</g>
	<path class="st5" d="M363,277c0,0.6-0.5,1-1.1,0.9c0,0,0,0,0,0l-42.1-3.2c-0.1,0.1-0.2,0.3-0.4,0.4c-0.4,0.4-0.9,0.5-1.4,0.5
		l-3-0.3c-0.7-0.1-1.3-0.5-1.6-1.1l-104.2-7.8c-0.1,0.1-0.2,0.3-0.4,0.4c-0.4,0.4-0.9,0.5-1.4,0.5l-3-0.2c-0.7-0.1-1.3-0.5-1.6-1.1
		l-27.2-2l0.2-2l27.2,2c0.8-0.9,1.2-0.9,1.8-0.9l3,0.2c0.7,0.1,1.3,0.5,1.6,1.1l104.2,7.8c0.1-0.1,0.2-0.3,0.4-0.4
		c0.4-0.4,0.9-0.5,1.4-0.5l3,0.2c0.7,0.1,1.3,0.5,1.7,1.1l42.1,3.1C362.7,276,363.1,276.4,363,277C363.1,277,363,277,363,277z"/>
	
		<rect x="172.6" y="260.8" transform="matrix(7.487769e-02 -0.9972 0.9972 7.487769e-02 -101.5144 416.2152)" class="st1" width="2" height="4"/>
	<path class="st6" d="M161.8,259.9l5,0.4l0,0l-0.3,4l0,0l-5-0.4c-1.1-0.1-1.9-1-1.8-2.1l0,0C159.7,260.7,160.7,259.8,161.8,259.9z"
		/>
	<path class="st7" d="M162.3,261l4.3,0.3l0,0l-0.1,2l0,0l-4.3-0.3c-0.4,0-0.6-0.3-0.6-0.7l0.1-0.7C161.6,261.2,162,261,162.3,261
		C162.3,261,162.3,261,162.3,261z"/>
	<path class="st8" d="M166.5,261.3l5.1,0.4l0,0l-0.1,2l0,0l-5.1-0.4c-0.5,0-0.8-0.5-0.8-0.9c0,0,0,0,0,0l0-0.2
		C165.6,261.7,166,261.3,166.5,261.3z"/>
	<path class="st5" d="M364.3,213.4c0,0.6-0.4,1-1,1c0,0,0,0,0,0l-42.2,0.9c-0.1,0.2-0.2,0.3-0.3,0.4c-0.4,0.4-0.9,0.6-1.4,0.6
		l-3,0.1c-0.7,0-1.4-0.4-1.8-1l-104.5,2.2c-0.1,0.2-0.2,0.3-0.3,0.4c-0.4,0.4-0.9,0.6-1.4,0.6l-3,0.1c-0.7,0-1.4-0.4-1.8-1
		l-27.3,0.6l0-2l27.3-0.6c0.7-1,1.2-1,1.7-1l3-0.1c0.7,0,1.4,0.4,1.8,1l104.5-2.2c0.1-0.2,0.2-0.3,0.3-0.4c0.4-0.4,0.9-0.6,1.4-0.6
		l3-0.1c0.7,0,1.4,0.4,1.8,1l42.3-0.9C363.9,212.5,364.3,212.9,364.3,213.4z"/>
	
		<rect x="172.4" y="216.5" transform="matrix(0.9998 -2.086922e-02 2.086922e-02 0.9998 -4.5004 3.6864)" class="st1" width="4" height="2"/>
	<path class="st8" d="M167.2,216.6l5.1-0.1l0,0l0,2l0,0l-5.1,0.1c-0.5,0-0.9-0.4-0.9-0.9c0,0,0,0,0,0l0-0.2
		C166.4,217,166.7,216.6,167.2,216.6z"/>
	<path class="st6" d="M162,216.8c0.9-0.6,2-0.8,3.1-0.8c0.8,0.1,2.2,0.1,2.9,1.2s0.4,2.8-0.2,3c-0.4,0.1-0.6-0.4-1.9-1.1
		c-0.9-0.6-1.9-1-2.9-1.2c-1.1-0.2-1.9,0.1-2-0.1C160.8,217.5,161.8,216.9,162,216.8z"/>
	<path class="st5" d="M354.8,340.7c0.1-0.5-0.3-1.1-0.8-1.2l-41.7-7.2c-0.1-0.2-0.1-0.3-0.2-0.5c-0.3-0.4-0.8-0.7-1.3-0.8l-3-0.5
		c-0.7-0.1-1.4,0.1-1.9,0.7l-103-17.8c-0.1-0.2-0.1-0.3-0.2-0.5c-0.3-0.4-0.8-0.7-1.3-0.8l-3-0.5c-0.7-0.1-1.4,0.1-1.9,0.7
		l-26.9-4.6l-0.4,2l26.9,4.6c0.6,1.1,1,1.2,1.5,1.3l3,0.5c0.7,0.1,1.4-0.1,1.9-0.7l103,17.8c0.1,0.2,0.1,0.3,0.2,0.5
		c0.3,0.4,0.8,0.7,1.3,0.8l3,0.5c0.7,0.1,1.4-0.1,1.9-0.7l41.7,7.2c0.5,0.1,1.1-0.2,1.2-0.7C354.8,340.8,354.8,340.8,354.8,340.7z"
		/>
	
		<rect x="166.5" y="306.4" transform="matrix(0.1699 -0.9855 0.9855 0.1699 -164.8855 421.1436)" class="st1" width="2" height="4"/>
	<path class="st8" d="M160.7,306.2l5,0.9l0,0l-0.3,2l0,0l-5-0.9c-0.5-0.1-0.8-0.5-0.7-1l0,0l0-0.2
		C159.8,306.5,160.2,306.2,160.7,306.2C160.7,306.2,160.7,306.2,160.7,306.2z"/>
	<path class="st6" d="M155.2,307.2c0.8,0.7,1.8,1.1,2.9,1.2c0.8,0.1,2.2,0.2,3.1-0.8s0.8-2.7,0.2-3c-0.4-0.2-0.7,0.2-2.1,0.8
		c-1,0.5-2,0.7-3.1,0.8c-1.2,0-1.9-0.4-2-0.1C154.2,306.4,155.1,307.1,155.2,307.2z"/>
	<path class="st9" d="M443.4,237.2c-28.1,7.3-56.7,3.5-85.2,2.1l-2.1-0.1c-17.6-0.8-35.2-0.5-52.5,4l-0.8-18
		c46.2-12.1,93.6,6.1,139.9-6c-3.5,3.9-7,7.7-10.5,11.3C435.9,232.9,439.6,235.1,443.4,237.2z"/>
	<path class="st10" d="M443.4,237.2c-28.1,7.3-56.7,3.5-85.2,2.1l-2.1-0.1c-17.6-0.8-35.2-0.5-52.5,4l-0.8-18
		c46.2-12.1,93.6,6.1,139.9-6c-3.5,3.9-7,7.7-10.5,11.3C435.9,232.9,439.6,235.1,443.4,237.2z"/>
	<path class="st10" d="M280.4,216.1c6.2,15.3,7.9,22.3,23.1,27"/>
	<path class="st10" d="M295.3,216.2c0,0,2.7,7.5,7.4,9"/>
	<path class="st4" d="M340.5,224c0.9-0.1,1.8-0.1,2.7,0.2l0.4-1.5c-1-0.3-2.1-0.4-3.2-0.2c-4.1,0.7-7.1,4.3-7,8.5
		c0,4.4,2.9,6,6.7,5.5c1.2-0.1,2.4-0.5,3.6-1.1c-0.1-0.5-0.2-0.9-0.4-1.4c-0.9,0.5-1.9,0.8-2.9,0.9c-3.3,0.5-5.2-1.2-5.2-4.5
		C335.3,227,337.4,224.4,340.5,224z"/>
	<path class="st4" d="M345.7,226c0,3.2,0.1,6.4,0.1,9.7l1.7-0.1l-0.1-8.2c1.5-0.1,3-0.1,4.5-0.1c0,2.8,0,5.5,0.1,8.2l1.8,0l-0.1-9.7
		C351.1,225.8,348.4,225.8,345.7,226z"/>
	<path class="st4" d="M362.5,226.3l-1.9,5.5c-0.2,0.7-0.4,1.4-0.6,2l0,0c-0.2-0.6-0.4-1.4-0.6-2c-0.7-2-1.4-3.9-2.2-5.8
		c-0.6,0-1.3-0.1-1.9-0.1c1.2,3,2.4,6,3.7,9.1c0.1,0.1,0.1,0.3,0.1,0.5c0,0.1-0.1,0.3-0.1,0.4c-0.3,0.7-0.8,1.4-1.5,1.9
		c-0.5,0.4-1,0.6-1.5,0.8c0.1,0.2,0.1,0.4,0.2,0.6l2.1,0.1l0.3-0.3c1.2-1,2-2.6,3.3-5.8l2.6-6.7L362.5,226.3z"/>
	<path class="st4" d="M365.1,226.5c0,0.5,0,0.9,0,1.4l3,0.3l0.1,8.2l1.7,0.2l-0.1-8.2l3,0.3c0-0.5,0-0.9,0-1.4
		C370.3,227,367.7,226.7,365.1,226.5z"/>
	<path class="st4" d="M380.8,228.2c0,1.3,0,2.6,0,3.9l-4.6-0.5c0-1.3,0-2.6,0-3.9l-1.7-0.2c0,3.2,0.1,6.4,0.1,9.7l1.7,0.2
		c0-1.5,0-2.9,0-4.4l4.6,0.5l0,4.4l1.7,0.2c0-3.2,0-6.4-0.1-9.7L380.8,228.2z"/>
	<path class="st4" d="M391.6,229.2l-3,4.8c-0.6,1.1-1,1.7-1.5,2.9l0,0c0.1-1.4,0.1-2.3,0.1-3.9l0-4.1l-1.7-0.2c0,3.2,0,6.5,0.1,9.7
		l2,0.2c1-1.6,2.1-3.4,3-4.8c0.6-0.9,1-1.7,1.6-2.9l0.1,0c-0.1,1.6-0.1,2.4-0.1,4c0,1.4,0,2.7,0.1,4.1l1.7,0.1
		c0-3.2-0.1-6.5-0.1-9.7L391.6,229.2z"/>
	<path class="st4" d="M400.2,233.8c1.4-1.5,2.8-3,4.2-4.5c-0.7,0-1.4,0.1-2.1,0.1c-1.2,1.4-2.4,2.9-3.6,4.3l-0.4,0l-0.1-4.2l-1.7,0
		c0,3.2,0.1,6.4,0.1,9.7l1.7,0l-0.1-4.2l0.3,0c1.5-0.1,2.8,0.8,3.2,2.3c0.2,0.7,0.6,1.3,0.9,1.9c0.6,0,1.2-0.1,1.8-0.1
		c-0.4-0.7-0.8-1.5-1.1-2.3C402.7,234.9,401.8,233.9,400.2,233.8z"/>
	<path class="st4" d="M405.2,232.8c0,0.4,0,0.9,0,1.3c1.6-0.1,3.3-0.3,4.9-0.5c0-0.4,0-0.9,0-1.3
		C408.5,232.5,406.9,232.7,405.2,232.8z"/>
	<path class="st4" d="M415.6,224.3c-0.9,0.7-1.9,1.4-2.8,2.1c0.1,0.4,0.2,0.9,0.3,1.3c0.7-0.5,1.5-1.1,2.2-1.7l0,0
		c0,3.8,0.1,7.6,0.1,11.4c0.6-0.1,1.1-0.3,1.7-0.4l-0.1-13C416.6,224.1,416.1,224.2,415.6,224.3z"/>
	<line class="st11" x1="354.5" y1="239" x2="358.6" y2="239.2"/>
</g>
</svg>
