<svg xmlns="http://www.w3.org/2000/svg" viewBox="0 0 506.91 562"><defs><style>.cls-1{fill:#919191;stroke:#434444;}.cls-1,.cls-11,.cls-12,.cls-2,.cls-6,.cls-7,.cls-8,.cls-9{stroke-miterlimit:10;}.cls-1,.cls-11,.cls-2,.cls-6,.cls-7,.cls-8,.cls-9{stroke-width:0.5px;}.cls-2,.cls-8{fill:#898989;}.cls-11,.cls-12,.cls-2,.cls-6,.cls-7,.cls-9{stroke:#000;}.cls-3{opacity:0.3;}.cls-4{opacity:0.35;}.cls-5{fill:#fff;}.cls-6{fill:#d6d6d6;}.cls-7{fill:#d8d8d8;}.cls-8{stroke:#898989;}.cls-10{fill:#b21818;}.cls-11,.cls-12{fill:none;}.cls-12{stroke-width:0.45px;}</style></defs><title>sputnik</title><g id="Layer_8" data-name="Layer 8"><path class="cls-1" d="M279.87,285.2a1,1,0,0,1-1.33.48l-38.27-17.95a1.8,1.8,0,0,1-.46.23,2,2,0,0,1-1.53-.06l-2.71-1.28a2,2,0,0,1-1.14-1.64l-94.64-44.41a1.8,1.8,0,0,1-.46.23,2,2,0,0,1-1.53-.06l-2.72-1.28a2,2,0,0,1-1.14-1.64l-24.68-11.58.85-1.81L134.79,216c1.09-.59,1.5-.4,2-.17l2.72,1.28a2,2,0,0,1,1.14,1.64l94.64,44.41a1.83,1.83,0,0,1,.46-.24,2,2,0,0,1,1.53.07l2.71,1.27a2,2,0,0,1,1.14,1.64l38.27,18A1,1,0,0,1,279.87,285.2Z"/><circle class="cls-2" cx="149.23" cy="215.93" r="49.5"/><g class="cls-3"><path d="M188.49,187.49c4.11,7.22,7.82,13.64,8.65,22.09s-.55,16.08-2.93,24c-.15.51.95.37,1.1,0a48.43,48.43,0,0,0-6.14-46.34c-.18-.24-.86,0-.68.27Z"/></g><g class="cls-3"><path d="M155.1,264.88c16.36-2.05,32-13.21,38.77-28.31.31-.69-1-.68-1.28-.19-7.93,15-20.86,24.85-37.6,28-.51.09-.38.57.11.51Z"/></g><g class="cls-4"><path class="cls-5" d="M126.23,194.83c5.6-3.28,10.85-6.56,17.19-8.3a36.53,36.53,0,0,1,8.63-1.29c1.77-.05,6.83-.19,7.82.66l-1.65-2.37,0,1,.55-2.87c1.07-1.44,1.73-1-.21-.58-1,.21-2,.58-3.05.79-2.11.42-4.25.68-6.38,1a46.14,46.14,0,0,0-14.31,4.57,35.85,35.85,0,0,0-10.39,8.25,40,40,0,0,0-3.64,4.94c-1.23,2-2.07,4.85-3.71,6.55l5.81-2.94-.82.23,8.11,1.16-.78-.68,1.79,2.56a12.75,12.75,0,0,1,1.24-7.61c1.14-2.45,3.46-4.21,3.59-7,.27-5.67-7.23-5.55-11-4.13-7.24,2.74-11.22,10.75-11.58,18.24-.16,3.4.42,6.18,3.67,7.87,3.66,1.91,8.93,1,12.35-1.19,5.77-3.74,6.75-11.58,12.52-15.68,5.44-3.87,12-3.7,18.23-5.41,4.85-1.34,16.45-5.44,14.05-12.55-2.12-6.25-14.24-5.6-19.39-5.4-13.17.5-29.32,5.46-37,17-3.19,4.76,6.26,4.36,8.34,3.14Z"/></g><path class="cls-5" d="M119.13,205.18c0-1.6,2.06-3.51,2.74-5a19.72,19.72,0,0,1,3.26-5.09c2.14-2.46,4.46-5,7.57-6.19l-9.54-1.34.8,1.24,1.35-3.62c-6.38,4.85-12.39,9.75-14.16,18.06a2.47,2.47,0,0,0,1,2.4l.72.58c2,1.69,6.28.57,7.55-1.6,1.58-2.71,2.43-5.82,4.07-8.55,1.81-3,4.54-5.21,7.07-7.59L128.65,190l2.17-.5c4.2-1,9.51-6.31,3.42-8.95-7-3-15.49,3.63-20,8.54a22.27,22.27,0,0,0-5.09,8.62,6.92,6.92,0,0,0,0,4.79c.49,1.27,2.25,2.33,2.42,3.63.4,3,7.55,1.86,7.55-.93Z"/><g class="cls-3"><path d="M166.89,224.91c.13,2.43,3.64,4.1,5.85,4,.26,0,.6-.43.82-.42a7.48,7.48,0,0,1,2.86,1A73.11,73.11,0,0,0,186.8,234c.62.19,1.88-.67,1-.95a63.54,63.54,0,0,1-8.33-3.55c-1.37-.65-3.86-2.45-5.39-2.3-.53.05-1.24.73-1.61.72-1.31,0-4.52-2.67-4.92-3.2-.16-.2-.64-.08-.62.19Z"/></g><path class="cls-6" d="M354,305.52a1,1,0,0,1-1.32.51L314,289a1.86,1.86,0,0,1-.46.25,2,2,0,0,1-1.53,0L309.26,288a2,2,0,0,1-1.18-1.61L212.4,244.28a2.3,2.3,0,0,1-.46.25,2,2,0,0,1-1.53,0l-2.75-1.21a2,2,0,0,1-1.18-1.61l-25-11,.81-1.83,25,11c1.07-.62,1.48-.44,2-.22l2.75,1.21a2,2,0,0,1,1.18,1.61l95.68,42.12a2.05,2.05,0,0,1,.46-.25,2,2,0,0,1,1.53,0l2.74,1.21a2,2,0,0,1,1.19,1.61l38.68,17A1,1,0,0,1,354,305.52Z"/><rect class="cls-2" x="178.1" y="227.97" width="4" height="2" transform="translate(107.5 -53.15) rotate(23.76)"/><path class="cls-7" d="M169,222.74h5a0,0,0,0,1,0,0v4a0,0,0,0,1,0,0h-5a2,2,0,0,1-2-2v0a2,2,0,0,1,2-2Z" transform="translate(104.98 -49.64) rotate(23.76)"/><path class="cls-8" d="M169.55,224.15h4.36a0,0,0,0,1,0,0v2a0,0,0,0,1,0,0h-4.36a.64.64,0,0,1-.64-.64v-.71A.64.64,0,0,1,169.55,224.15Z" transform="translate(105.22 -49.97) rotate(23.76)"/><path class="cls-9" d="M173.4,226h5.12a0,0,0,0,1,0,0v2a0,0,0,0,1,0,0H173.4a.88.88,0,0,1-.88-.88v-.24A.88.88,0,0,1,173.4,226Z" transform="translate(106.3 -51.48) rotate(23.76)"/><path class="cls-6" d="M376.41,246a1,1,0,0,1-1.27.63L335,233.42a2.16,2.16,0,0,1-.43.29,2,2,0,0,1-1.52.11l-2.85-.94a2,2,0,0,1-1.33-1.49l-99.28-32.76a2.16,2.16,0,0,1-.43.29,2,2,0,0,1-1.52.11l-2.85-.94a2,2,0,0,1-1.33-1.49l-25.9-8.54.63-1.9,25.9,8.54c1-.72,1.43-.58,1.95-.4l2.85.94a2,2,0,0,1,1.33,1.49l99.27,32.76a2.57,2.57,0,0,1,.44-.29,2,2,0,0,1,1.52-.12l2.85.95a2,2,0,0,1,1.33,1.49l40.14,13.25A1,1,0,0,1,376.41,246Z"/><rect class="cls-2" x="193.98" y="185.48" width="4" height="2" transform="translate(68.32 -52.03) rotate(18.27)"/><path class="cls-9" d="M189.11,183.91h5.12a0,0,0,0,1,0,0v2a0,0,0,0,1,0,0h-5.12a.88.88,0,0,1-.88-.88v-.24A.88.88,0,0,1,189.11,183.91Z" transform="translate(67.59 -50.62) rotate(18.27)"/><path class="cls-7" d="M184.5,181.74a5.41,5.41,0,0,1,3.14.3c.75.32,2.05.88,2.35,2.12s-.55,2.74-1.21,2.75c-.41,0-.48-.56-1.43-1.72a7.66,7.66,0,0,0-2.34-2.13c-1-.54-1.84-.55-1.83-.8S184.32,181.77,184.5,181.74Z"/><path class="cls-6" d="M325,362.82a1,1,0,0,0-.38-1.36L287.73,340.8a1.79,1.79,0,0,0-.07-.51,2,2,0,0,0-1-1.2l-2.61-1.47a2,2,0,0,0-2,0l-91.21-51.08a2.26,2.26,0,0,0-.08-.51,2,2,0,0,0-.94-1.21l-2.62-1.46a2,2,0,0,0-2,0l-23.79-13.32-1,1.75,23.79,13.32c.15,1.23.54,1.45,1,1.72l2.62,1.46a2,2,0,0,0,2,0l91.21,51.07a2.25,2.25,0,0,0,.08.52,1.93,1.93,0,0,0,.94,1.2l2.62,1.47a2,2,0,0,0,2,0l36.88,20.65A1,1,0,0,0,325,362.82Z"/><rect class="cls-2" x="157.22" y="268.99" width="4" height="2" transform="translate(152.21 -43.37) rotate(29.25)"/><path class="cls-9" d="M152.74,266.54h5.12a0,0,0,0,1,0,0v2a0,0,0,0,1,0,0h-5.12a.88.88,0,0,1-.88-.88v-.24A.88.88,0,0,1,152.74,266.54Z" transform="translate(150.46 -41.55) rotate(29.25)"/><path class="cls-7" d="M148,264.72a5.4,5.4,0,0,0,2.35,2.12c.74.34,2,.92,3.15.29s1.65-2.25,1.2-2.74c-.27-.3-.73,0-2.23.11a7.79,7.79,0,0,1-3.15-.3c-1.09-.38-1.65-1-1.83-.8S147.88,264.56,148,264.72Z"/><path class="cls-10" d="M447.38,283.78c-29.08-.07-55.76-11.09-82.95-19.73l-2-.63c-16.82-5.26-33.87-9.48-51.83-9.52l3.84-17.58c47.75.11,89,29.77,136.78,29.88q-6.59,4.38-13.06,8.24Q442.71,279.36,447.38,283.78Z"/><path class="cls-11" d="M447.38,283.78c-29.08-.07-55.76-11.09-82.95-19.73l-2-.63c-16.82-5.26-33.87-9.48-51.83-9.52l3.84-17.58c47.75.11,89,29.77,136.78,29.88q-6.59,4.38-13.06,8.24Q442.71,279.36,447.38,283.78Z"/><path class="cls-11" d="M296.41,220.55c.69,16.52,1.31,23.49,14,33"/><path class="cls-11" d="M310.41,225.55s0,8,4,11"/><path class="cls-5" d="M351.26,244.84a5.7,5.7,0,0,1,2.57.92l.77-1.31a6.39,6.39,0,0,0-3-1,8.27,8.27,0,0,0-8.9,6.41c-1.1,4.29,1.27,6.58,5.08,7a10.82,10.82,0,0,0,3.71-.13c0-.47,0-.93,0-1.4a8.18,8.18,0,0,1-3,.15c-3.28-.38-4.72-2.45-3.9-5.66C345.43,246.39,348.09,244.47,351.26,244.84Z"/><path class="cls-5" d="M355.78,248.13q-1.18,4.68-2.39,9.38l1.71.34,2-8c1.47.31,2.93.66,4.38,1-.69,2.68-1.37,5.35-2,8l1.7.46,2.39-9.38C361,249.26,358.41,248.63,355.78,248.13Z"/><path class="cls-5" d="M371.91,252.64l-3.22,4.88c-.41.6-.78,1.25-1.09,1.76h0c0-.62-.05-1.43-.1-2.12-.2-2.07-.41-4.13-.61-6.19-.61-.2-1.23-.38-1.84-.56q.62,4.83,1.22,9.71a1.46,1.46,0,0,1,0,.48,1.12,1.12,0,0,1-.24.37,4.92,4.92,0,0,1-1.89,1.44,4.35,4.35,0,0,1-1.69.38c0,.21,0,.43,0,.64l2,.63.38-.16c1.4-.64,2.64-2,4.66-4.82l4.2-5.8Z"/><path class="cls-5" d="M374.42,253.55c-.11.45-.23.9-.34,1.35l2.84,1.06-2,8,1.64.62,2-8,2.84,1.09c.11-.45.23-.9.34-1.35C379.31,255.38,376.87,254.44,374.42,253.55Z"/><path class="cls-5" d="M389.11,259.19c-.33,1.26-.65,2.52-1,3.78l-4.32-1.68c.32-1.26.64-2.52,1-3.78l-1.64-.63c-.8,3.12-1.59,6.25-2.39,9.38l1.63.64c.37-1.42.73-2.83,1.09-4.25l4.32,1.68-1.08,4.24,1.63.62q1.2-4.68,2.39-9.38Z"/><path class="cls-5" d="M399.3,262.86l-4.11,3.87c-.88.88-1.37,1.42-2.21,2.37l-.05,0c.41-1.31.67-2.24,1.05-3.73l1-3.95-1.57-.57c-.8,3.13-1.6,6.25-2.39,9.38l1.91.69c1.4-1.3,2.87-2.75,4.11-3.91.78-.77,1.37-1.4,2.26-2.4h.06c-.46,1.49-.7,2.27-1.09,3.8-.34,1.33-.68,2.65-1,4l1.6.51c.8-3.13,1.59-6.26,2.39-9.38Z"/><path class="cls-5" d="M406.51,269.51q2.6-1.62,5.21-3.33c-.7-.14-1.4-.28-2.1-.44q-2.3,1.63-4.57,3.21l-.41-.11,1-4.07-1.68-.46c-.8,3.12-1.59,6.25-2.39,9.38l1.68.46,1-4.13.33.09a3.16,3.16,0,0,1,2.54,3,12.79,12.79,0,0,0,.39,2.11c.6.14,1.2.26,1.81.38a19.77,19.77,0,0,1-.44-2.5C408.66,271.24,408,270,406.51,269.51Z"/><path class="cls-5" d="M411.59,269.83c-.11.43-.21.85-.32,1.27,1.62.3,3.26.55,4.91.74.1-.42.21-.84.32-1.26C414.85,270.39,413.21,270.14,411.59,269.83Z"/><path class="cls-5" d="M423.8,264.28c-1.09.46-2.18.9-3.27,1.31,0,.45,0,.89,0,1.33.86-.34,1.73-.69,2.6-1.06h0q-1.4,5.5-2.8,11c.57,0,1.16,0,1.74,0l3.21-12.6C424.83,264.31,424.31,264.3,423.8,264.28Z"/><line class="cls-12" x1="360.94" y1="262.94" x2="364.88" y2="264.17"/></g></svg>