<svg xmlns="http://www.w3.org/2000/svg" viewBox="0 0 545.16 1872.01"><title>Artboard 10</title><g id="Layer_14" data-name="Layer 14"><rect x="129.92" y="292" width="17" height="1303.5" fill="#757575" stroke="#000" stroke-miterlimit="10"/><rect x="129.92" y="1641.5" width="17" height="197.5" fill="#757575" stroke="#000" stroke-miterlimit="10"/><rect x="390.92" y="292" width="17" height="1303.5" fill="#757575" stroke="#000" stroke-miterlimit="10"/><rect x="390.92" y="1641.5" width="17" height="197.5" fill="#757575" stroke="#000" stroke-miterlimit="10"/><rect x="91.92" y="1595.5" width="347" height="23" fill="#757575" stroke="#000" stroke-miterlimit="10"/><rect x="91.92" y="1618.5" width="347" height="23" fill="#757575" stroke="#000" stroke-miterlimit="10"/><rect x="146.92" y="512.5" width="244" height="20" fill="#757575" stroke="#000" stroke-miterlimit="10"/><rect x="146.92" y="932.5" width="244" height="20" fill="#757575" stroke="#000" stroke-miterlimit="10"/><polygon points="149.04 741.5 146.92 743.21 146.92 741.5 149.04 741.5" fill="#757575" stroke="#000" stroke-miterlimit="10"/><polygon points="390.92 532.5 390.92 546.75 287.05 630.38 269.23 644.73 173.88 721.5 146.92 721.5 146.92 714.51 251.41 630.38 269.23 616.03 372.97 532.5 390.92 532.5" fill="#757575" stroke="#000" stroke-miterlimit="10"/><polygon points="390.92 311.5 390.92 325.75 287.67 408.88 269.85 423.23 158.98 512.5 146.92 512.5 146.92 493.51 252.03 408.88 269.85 394.53 372.97 311.5 390.92 311.5" fill="#757575" stroke="#000" stroke-miterlimit="10"/><polygon points="390.92 492.01 390.92 512.5 380.73 512.5 269.85 423.23 252.03 408.88 146.92 324.24 146.92 311.5 166.73 311.5 269.85 394.53 287.67 408.88 390.92 492.01" fill="#757575" stroke="#000" stroke-miterlimit="10"/><polygon points="390.92 714.01 390.92 721.5 364.58 721.5 269.23 644.73 251.41 630.38 146.92 546.24 146.92 532.5 165.49 532.5 269.23 616.03 287.05 630.38 390.92 714.01" fill="#757575" stroke="#000" stroke-miterlimit="10"/><polygon points="390.92 741.5 390.92 742.71 389.42 741.5 390.92 741.5" fill="#757575" stroke="#000" stroke-miterlimit="10"/><rect x="146.92" y="721.5" width="244" height="20" fill="#757575" stroke="#000" stroke-miterlimit="10"/><polygon points="390.92 925.01 390.92 932.5 364.58 932.5 266.75 853.73 248.93 839.38 146.92 757.24 146.92 741.5 163.01 741.5 266.75 825.03 284.57 839.38 390.92 925.01" fill="#757575" stroke="#000" stroke-miterlimit="10"/><polygon points="390.92 741.5 390.92 753.75 284.57 839.38 266.75 853.73 168.91 932.5 146.92 932.5 146.92 921.51 248.93 839.38 266.75 825.03 370.49 741.5 390.92 741.5" fill="#757575" stroke="#000" stroke-miterlimit="10"/><rect x="146.92" y="1143.5" width="244" height="20" fill="#757575" stroke="#000" stroke-miterlimit="10"/><polygon points="390.92 1136.01 390.92 1143.5 364.58 1143.5 266.75 1064.73 248.93 1050.38 146.92 968.24 146.92 952.5 163.01 952.5 266.75 1036.03 284.57 1050.38 390.92 1136.01" fill="#757575" stroke="#000" stroke-miterlimit="10"/><polygon points="390.92 952.5 390.92 964.75 284.57 1050.38 266.75 1064.73 168.91 1143.5 146.92 1143.5 146.92 1132.51 248.93 1050.38 266.75 1036.03 370.49 952.5 390.92 952.5" fill="#757575" stroke="#000" stroke-miterlimit="10"/><rect x="146.92" y="1354.5" width="244" height="20" fill="#757575" stroke="#000" stroke-miterlimit="10"/><polygon points="390.92 1347.01 390.92 1354.5 364.58 1354.5 266.75 1275.73 248.93 1261.38 146.92 1179.24 146.92 1163.5 163.01 1163.5 266.75 1247.03 284.57 1261.38 390.92 1347.01" fill="#757575" stroke="#000" stroke-miterlimit="10"/><polygon points="390.92 1163.5 390.92 1175.75 284.57 1261.38 266.75 1275.73 168.91 1354.5 146.92 1354.5 146.92 1343.51 248.93 1261.38 266.75 1247.03 370.49 1163.5 390.92 1163.5" fill="#757575" stroke="#000" stroke-miterlimit="10"/><rect x="145.92" y="291.5" width="244" height="20" fill="#757575" stroke="#000" stroke-miterlimit="10"/><rect x="101.92" y="291" width="17" height="1303.5" fill="#9e9e9e" stroke="#000" stroke-miterlimit="10"/><rect x="101.92" y="1640.5" width="17" height="197.5" fill="#9e9e9e" stroke="#000" stroke-miterlimit="10"/><rect x="362.92" y="291" width="17" height="1303.5" fill="#9e9e9e" stroke="#000" stroke-miterlimit="10"/><rect x="362.92" y="1640.5" width="17" height="197.5" fill="#9e9e9e" stroke="#000" stroke-miterlimit="10"/><rect x="63.92" y="1594.5" width="347" height="23" fill="#9e9e9e" stroke="#000" stroke-miterlimit="10"/><rect x="63.92" y="1617.5" width="347" height="23" fill="#dd8d00" stroke="#000" stroke-miterlimit="10"/><rect x="118.92" y="291.5" width="244" height="20" fill="#9e9e9e" stroke="#000" stroke-miterlimit="10"/><rect x="118.92" y="511.5" width="244" height="20" fill="#9e9e9e" stroke="#000" stroke-miterlimit="10"/><rect x="118.92" y="931.5" width="244" height="20" fill="#9e9e9e" stroke="#000" stroke-miterlimit="10"/><polygon points="121.04 740.5 118.92 742.21 118.92 740.5 121.04 740.5" fill="none" stroke="#aa17aa" stroke-miterlimit="10"/><polygon points="362.92 531.5 362.92 545.75 259.05 629.38 241.23 643.73 145.88 720.5 118.92 720.5 118.92 713.51 223.41 629.38 241.23 615.03 344.97 531.5 362.92 531.5" fill="#939393" stroke="#000" stroke-miterlimit="10"/><polygon points="362.92 310.5 362.92 324.75 259.67 407.88 241.85 422.23 130.98 511.5 118.92 511.5 118.92 492.51 224.03 407.88 241.85 393.53 344.97 310.5 362.92 310.5" fill="#939393" stroke="#000" stroke-miterlimit="10"/><polygon points="362.92 491.01 362.92 511.5 352.73 511.5 241.85 422.23 224.03 407.88 118.92 323.24 118.92 310.5 138.73 310.5 241.85 393.53 259.67 407.88 362.92 491.01" fill="#9e9e9e" stroke="#000" stroke-miterlimit="10"/><polygon points="362.92 713.01 362.92 720.5 336.58 720.5 241.23 643.73 223.41 629.38 118.92 545.24 118.92 531.5 137.49 531.5 241.23 615.03 259.05 629.38 362.92 713.01" fill="#9e9e9e" stroke="#000" stroke-miterlimit="10"/><polygon points="362.92 740.5 362.92 741.71 361.42 740.5 362.92 740.5" fill="none" stroke="#aa17aa" stroke-miterlimit="10"/><rect x="118.92" y="720.5" width="244" height="20" fill="#9e9e9e" stroke="#000" stroke-miterlimit="10"/><polygon points="362.92 924.01 362.92 931.5 336.58 931.5 238.75 852.73 220.93 838.38 118.92 756.24 118.92 740.5 135.01 740.5 238.75 824.03 256.57 838.38 362.92 924.01" fill="#939393" stroke="#000" stroke-miterlimit="10"/><polygon points="362.92 740.5 362.92 752.75 256.57 838.38 238.75 852.73 140.91 931.5 118.92 931.5 118.92 920.51 220.93 838.38 238.75 824.03 342.49 740.5 362.92 740.5" fill="#9e9e9e" stroke="#000" stroke-miterlimit="10"/><rect x="118.92" y="1142.5" width="244" height="20" fill="#9e9e9e" stroke="#000" stroke-miterlimit="10"/><polygon points="362.92 1135.01 362.92 1142.5 336.58 1142.5 238.75 1063.73 220.93 1049.38 118.92 967.24 118.92 951.5 135.01 951.5 238.75 1035.03 256.57 1049.38 362.92 1135.01" fill="#939393" stroke="#000" stroke-miterlimit="10"/><polygon points="362.92 951.5 362.92 963.75 256.57 1049.38 238.75 1063.73 140.91 1142.5 118.92 1142.5 118.92 1131.51 220.93 1049.38 238.75 1035.03 342.49 951.5 362.92 951.5" fill="#9e9e9e" stroke="#000" stroke-miterlimit="10"/><rect x="118.92" y="1353.5" width="244" height="20" fill="#9e9e9e" stroke="#000" stroke-miterlimit="10"/><polygon points="362.92 1346.01 362.92 1353.5 336.58 1353.5 238.75 1274.73 220.93 1260.38 118.92 1178.24 118.92 1162.5 135.01 1162.5 238.75 1246.03 256.57 1260.38 362.92 1346.01" fill="#939393" stroke="#000" stroke-miterlimit="10"/><polygon points="362.92 1162.5 362.92 1174.75 256.57 1260.38 238.75 1274.73 140.91 1353.5 118.92 1353.5 118.92 1342.51 220.93 1260.38 238.75 1246.03 342.49 1162.5 362.92 1162.5" fill="#9e9e9e" stroke="#000" stroke-miterlimit="10"/><path d="M245.92,92.38V290.5h-10V91.75a9.48,9.48,0,0,0,5.5,1.75A9.58,9.58,0,0,0,245.92,92.38Z" fill="#9e9e9e" stroke="#000" stroke-miterlimit="10"/><path d="M250.92,84a9.5,9.5,0,1,1-9.5-9.5A9.52,9.52,0,0,1,250.92,84Z" fill="#b52c2c" stroke="#000" stroke-miterlimit="10"/></g></svg>