<svg xmlns="http://www.w3.org/2000/svg" viewBox="0 0 545.16 1872.01"><title>Artboard 10</title><g id="Layer_19" data-name="Layer 19"><rect x="159.14" y="252.16" width="17" height="1303.5" fill="#757575" stroke="#000" stroke-miterlimit="10"/><rect x="159.14" y="1601.66" width="17" height="197.5" fill="#757575" stroke="#000" stroke-miterlimit="10"/><rect x="420.14" y="252.16" width="17" height="1303.5" fill="#757575" stroke="#000" stroke-miterlimit="10"/><rect x="420.14" y="1601.66" width="17" height="197.5" fill="#757575" stroke="#000" stroke-miterlimit="10"/><rect x="121.14" y="1555.66" width="347" height="23" fill="#757575" stroke="#000" stroke-miterlimit="10"/><rect x="121.14" y="1578.66" width="347" height="23" fill="#757575" stroke="#000" stroke-miterlimit="10"/><rect x="176.14" y="472.66" width="244" height="20" fill="#757575" stroke="#000" stroke-miterlimit="10"/><rect x="176.14" y="892.66" width="244" height="20" fill="#757575" stroke="#000" stroke-miterlimit="10"/><polygon points="178.26 701.66 176.14 703.37 176.14 701.66 178.26 701.66" fill="#757575" stroke="#000" stroke-miterlimit="10"/><polygon points="420.14 492.66 420.14 506.91 316.27 590.54 298.45 604.89 203.1 681.66 176.14 681.66 176.14 674.67 280.63 590.54 298.45 576.19 402.19 492.66 420.14 492.66" fill="#757575" stroke="#000" stroke-miterlimit="10"/><polygon points="420.14 271.66 420.14 285.91 316.89 369.04 299.07 383.39 188.2 472.66 176.14 472.66 176.14 453.67 281.25 369.04 299.07 354.69 402.19 271.66 420.14 271.66" fill="#757575" stroke="#000" stroke-miterlimit="10"/><polygon points="420.14 452.17 420.14 472.66 409.95 472.66 299.07 383.39 281.25 369.04 176.14 284.4 176.14 271.66 195.95 271.66 299.07 354.69 316.89 369.04 420.14 452.17" fill="#757575" stroke="#000" stroke-miterlimit="10"/><polygon points="420.14 674.17 420.14 681.66 393.8 681.66 298.45 604.89 280.63 590.54 176.14 506.4 176.14 492.66 194.71 492.66 298.45 576.19 316.27 590.54 420.14 674.17" fill="#757575" stroke="#000" stroke-miterlimit="10"/><polygon points="420.14 701.66 420.14 702.87 418.64 701.66 420.14 701.66" fill="#757575" stroke="#000" stroke-miterlimit="10"/><rect x="176.14" y="681.66" width="244" height="20" fill="#757575" stroke="#000" stroke-miterlimit="10"/><polygon points="420.14 885.17 420.14 892.66 393.8 892.66 295.97 813.89 278.15 799.54 176.14 717.4 176.14 701.66 192.23 701.66 295.97 785.19 313.79 799.54 420.14 885.17" fill="#757575" stroke="#000" stroke-miterlimit="10"/><polygon points="420.14 701.66 420.14 713.91 313.79 799.54 295.97 813.89 198.13 892.66 176.14 892.66 176.14 881.67 278.15 799.54 295.97 785.19 399.71 701.66 420.14 701.66" fill="#757575" stroke="#000" stroke-miterlimit="10"/><rect x="176.14" y="1103.66" width="244" height="20" fill="#757575" stroke="#000" stroke-miterlimit="10"/><polygon points="420.14 1096.17 420.14 1103.66 393.8 1103.66 295.97 1024.89 278.15 1010.54 176.14 928.4 176.14 912.66 192.23 912.66 295.97 996.19 313.79 1010.54 420.14 1096.17" fill="#757575" stroke="#000" stroke-miterlimit="10"/><polygon points="420.14 912.66 420.14 924.91 313.79 1010.54 295.97 1024.89 198.13 1103.66 176.14 1103.66 176.14 1092.67 278.15 1010.54 295.97 996.19 399.71 912.66 420.14 912.66" fill="#757575" stroke="#000" stroke-miterlimit="10"/><rect x="176.14" y="1314.66" width="244" height="20" fill="#757575" stroke="#000" stroke-miterlimit="10"/><polygon points="420.14 1307.17 420.14 1314.66 393.8 1314.66 295.97 1235.89 278.15 1221.54 176.14 1139.4 176.14 1123.66 192.23 1123.66 295.97 1207.19 313.79 1221.54 420.14 1307.17" fill="#757575" stroke="#000" stroke-miterlimit="10"/><polygon points="420.14 1123.66 420.14 1135.91 313.79 1221.54 295.97 1235.89 198.13 1314.66 176.14 1314.66 176.14 1303.67 278.15 1221.54 295.97 1207.19 399.71 1123.66 420.14 1123.66" fill="#757575" stroke="#000" stroke-miterlimit="10"/><rect x="175.14" y="251.66" width="244" height="20" fill="#757575" stroke="#000" stroke-miterlimit="10"/><rect x="131.14" y="251.16" width="17" height="1303.5" fill="#9e9e9e" stroke="#000" stroke-miterlimit="10"/><rect x="131.14" y="1600.66" width="17" height="233.08" fill="#9e9e9e" stroke="#000" stroke-miterlimit="10"/><rect x="392.14" y="251.16" width="17" height="1303.5" fill="#9e9e9e" stroke="#000" stroke-miterlimit="10"/><rect x="392.14" y="1600.66" width="17" height="233.08" fill="#9e9e9e" stroke="#000" stroke-miterlimit="10"/><rect x="93.14" y="1554.66" width="347" height="23" fill="#9e9e9e" stroke="#000" stroke-miterlimit="10"/><rect x="93.14" y="1577.66" width="347" height="23" fill="#dd8d00" stroke="#000" stroke-miterlimit="10"/><rect x="148.14" y="251.66" width="244" height="20" fill="#9e9e9e" stroke="#000" stroke-miterlimit="10"/><rect x="148.14" y="471.66" width="244" height="20" fill="#9e9e9e" stroke="#000" stroke-miterlimit="10"/><rect x="148.14" y="891.66" width="244" height="20" fill="#9e9e9e" stroke="#000" stroke-miterlimit="10"/><polygon points="150.26 700.66 148.14 702.37 148.14 700.66 150.26 700.66" fill="none" stroke="#aa17aa" stroke-miterlimit="10"/><polygon points="392.14 491.66 392.14 505.91 288.27 589.54 270.45 603.89 175.1 680.66 148.14 680.66 148.14 673.67 252.63 589.54 270.45 575.19 374.19 491.66 392.14 491.66" fill="#939393" stroke="#000" stroke-miterlimit="10"/><polygon points="392.14 270.66 392.14 284.91 288.89 368.04 271.07 382.39 160.2 471.66 148.14 471.66 148.14 452.67 253.25 368.04 271.07 353.69 374.19 270.66 392.14 270.66" fill="#939393" stroke="#000" stroke-miterlimit="10"/><polygon points="392.14 451.17 392.14 471.66 381.95 471.66 271.07 382.39 253.25 368.04 148.14 283.4 148.14 270.66 167.95 270.66 271.07 353.69 288.89 368.04 392.14 451.17" fill="#9e9e9e" stroke="#000" stroke-miterlimit="10"/><polygon points="392.14 673.17 392.14 680.66 365.8 680.66 270.45 603.89 252.63 589.54 148.14 505.4 148.14 491.66 166.71 491.66 270.45 575.19 288.27 589.54 392.14 673.17" fill="#9e9e9e" stroke="#000" stroke-miterlimit="10"/><polygon points="392.14 700.66 392.14 701.87 390.64 700.66 392.14 700.66" fill="none" stroke="#aa17aa" stroke-miterlimit="10"/><rect x="148.14" y="680.66" width="244" height="20" fill="#9e9e9e" stroke="#000" stroke-miterlimit="10"/><polygon points="392.14 884.17 392.14 891.66 365.8 891.66 267.97 812.89 250.15 798.54 148.14 716.4 148.14 700.66 164.23 700.66 267.97 784.19 285.79 798.54 392.14 884.17" fill="#939393" stroke="#000" stroke-miterlimit="10"/><polygon points="392.14 700.66 392.14 712.91 285.79 798.54 267.97 812.89 170.13 891.66 148.14 891.66 148.14 880.67 250.15 798.54 267.97 784.19 371.71 700.66 392.14 700.66" fill="#9e9e9e" stroke="#000" stroke-miterlimit="10"/><rect x="148.14" y="1102.66" width="244" height="20" fill="#9e9e9e" stroke="#000" stroke-miterlimit="10"/><polygon points="392.14 1095.17 392.14 1102.66 365.8 1102.66 267.97 1023.89 250.15 1009.54 148.14 927.4 148.14 911.66 164.23 911.66 267.97 995.19 285.79 1009.54 392.14 1095.17" fill="#939393" stroke="#000" stroke-miterlimit="10"/><polygon points="392.14 911.66 392.14 923.91 285.79 1009.54 267.97 1023.89 170.13 1102.66 148.14 1102.66 148.14 1091.67 250.15 1009.54 267.97 995.19 371.71 911.66 392.14 911.66" fill="#9e9e9e" stroke="#000" stroke-miterlimit="10"/><rect x="148.14" y="1313.66" width="244" height="20" fill="#9e9e9e" stroke="#000" stroke-miterlimit="10"/><polygon points="392.14 1306.17 392.14 1313.66 365.8 1313.66 267.97 1234.89 250.15 1220.54 148.14 1138.4 148.14 1122.66 164.23 1122.66 267.97 1206.19 285.79 1220.54 392.14 1306.17" fill="#939393" stroke="#000" stroke-miterlimit="10"/><polygon points="392.14 1122.66 392.14 1134.91 285.79 1220.54 267.97 1234.89 170.13 1313.66 148.14 1313.66 148.14 1302.67 250.15 1220.54 267.97 1206.19 371.71 1122.66 392.14 1122.66" fill="#9e9e9e" stroke="#000" stroke-miterlimit="10"/><path d="M275.14,52.54V250.66h-10V51.91a9.48,9.48,0,0,0,5.5,1.75A9.58,9.58,0,0,0,275.14,52.54Z" fill="#9e9e9e" stroke="#000" stroke-miterlimit="10"/><path d="M280.14,44.16a9.5,9.5,0,1,1-9.5-9.5A9.52,9.52,0,0,1,280.14,44.16Z" fill="#b52c2c" stroke="#000" stroke-miterlimit="10"/></g></svg>